<?xml version="1.0" encoding="UTF-8" standalone="no"?>
<svg
   width="500"
   height="650"
   viewBox="0 0 500 650"
   version="1.1"
   id="svg52"
   sodipodi:docname="8253_pinout_01.svg"
   inkscape:export-filename="8253_pinout_01.png"
   inkscape:export-xdpi="96"
   inkscape:export-ydpi="96"
   inkscape:version="1.4 (86a8ad7, 2024-10-11)"
   xmlns:inkscape="http://www.inkscape.org/namespaces/inkscape"
   xmlns:sodipodi="http://sodipodi.sourceforge.net/DTD/sodipodi-0.dtd"
   xmlns:xlink="http://www.w3.org/1999/xlink"
   xmlns="http://www.w3.org/2000/svg"
   xmlns:svg="http://www.w3.org/2000/svg">
  <sodipodi:namedview
     id="namedview52"
     pagecolor="#ffffff"
     bordercolor="#000000"
     borderopacity="0.25"
     inkscape:showpageshadow="2"
     inkscape:pageopacity="0.0"
     inkscape:pagecheckerboard="0"
     inkscape:deskcolor="#d1d1d1"
     inkscape:zoom="0.92076923"
     inkscape:cx="252.50627"
     inkscape:cy="320.92732"
     inkscape:window-width="2194"
     inkscape:window-height="1211"
     inkscape:window-x="364"
     inkscape:window-y="122"
     inkscape:window-maximized="0"
     inkscape:current-layer="svg52" />
  <defs
     id="defs2">
    <linearGradient
       id="linearGradient70"
       inkscape:collect="always">
      <stop
         style="stop-color:#e1e1e1;stop-opacity:0.58811879;"
         offset="0"
         id="stop71" />
      <stop
         style="stop-color:#e1e1e1;stop-opacity:0;"
         offset="0.54237288"
         id="stop72" />
    </linearGradient>
    <linearGradient
       id="linearGradient68"
       inkscape:collect="always">
      <stop
         style="stop-color:#f8ffb4;stop-opacity:1;"
         offset="0"
         id="stop69" />
      <stop
         style="stop-color:#a49100;stop-opacity:1;"
         offset="1"
         id="stop70" />
    </linearGradient>
    <linearGradient
       id="linearGradient59"
       inkscape:collect="always">
      <stop
         style="stop-color:#ffffff;stop-opacity:1;"
         offset="0"
         id="stop59" />
      <stop
         style="stop-color:#000000;stop-opacity:0;"
         offset="1"
         id="stop60" />
    </linearGradient>
    <linearGradient
       id="linearGradient57"
       inkscape:collect="always">
      <stop
         style="stop-color:#adadad;stop-opacity:1;"
         offset="0"
         id="stop57" />
      <stop
         style="stop-color:#7f7f7f;stop-opacity:1;"
         offset="1"
         id="stop58" />
    </linearGradient>
    <linearGradient
       id="swatch52"
       inkscape:swatch="solid">
      <stop
         style="stop-color:#000000;stop-opacity:1;"
         offset="0"
         id="stop52" />
    </linearGradient>
    <!-- Arrowhead Marker -->
    <marker
       id="arrowhead-left"
       markerWidth="10"
       markerHeight="10"
       refX="0"
       refY="3"
       orient="auto"
       markerUnits="strokeWidth">
      <path
         d="M0,3 L9,6 L9,0 z"
         fill="#0f5394"
         id="path1" />
    </marker>
    <marker
       id="arrowhead-right"
       markerWidth="10"
       markerHeight="10"
       refX="9"
       refY="3"
       orient="auto"
       markerUnits="strokeWidth">
      <path
         d="M9,3 L0,6 L0,0 z"
         fill="#0f5394"
         id="path2" />
    </marker>
    <style
       id="style2">
      .chip-body { fill: #ebeadd; stroke: #d0cfc0; stroke-width: 2; }
      .pin-shape { fill: #0f5394; }
      .arrow-line { stroke: #0f5394; stroke-width: 3; }
      .pin-num { font-family: Arial, sans-serif; font-size: 16px; fill: #3a4b5f; font-weight: bold; dominant-baseline: middle; }
      .label-text { font-family: Arial, sans-serif; font-size: 18px; fill: #002f5f; font-weight: bold; dominant-baseline: middle; }
      .chip-title { font-family: Arial, sans-serif; font-size: 32px; fill: #002f5f; font-weight: bold; text-anchor: middle; }
      .sub { baseline-shift: sub; font-size: 0.7em; }
      .over { text-decoration: overline; }
    </style>
    <linearGradient
       inkscape:collect="always"
       xlink:href="#linearGradient57"
       id="linearGradient58"
       x1="150"
       y1="325"
       x2="350"
       y2="325"
       gradientUnits="userSpaceOnUse" />
    <linearGradient
       inkscape:collect="always"
       xlink:href="#linearGradient59"
       id="linearGradient60"
       x1="167.80779"
       y1="280.52969"
       x2="332.19214"
       y2="367.93442"
       gradientUnits="userSpaceOnUse" />
    <radialGradient
       inkscape:collect="always"
       xlink:href="#linearGradient68"
       id="radialGradient164"
       gradientUnits="userSpaceOnUse"
       gradientTransform="matrix(1,0,0,2.0000008,-1.0860493,-91.086122)"
       cx="355.25"
       cy="90"
       fx="355.25"
       fy="90"
       r="5.2499978" />
    <linearGradient
       inkscape:collect="always"
       xlink:href="#linearGradient70"
       id="linearGradient164"
       gradientUnits="userSpaceOnUse"
       x1="347.0629"
       y1="88.372688"
       x2="359.84006"
       y2="94.330772"
       gradientTransform="translate(-1.0860493,-1.0860485)" />
    <radialGradient
       inkscape:collect="always"
       xlink:href="#linearGradient68"
       id="radialGradient165"
       gradientUnits="userSpaceOnUse"
       gradientTransform="matrix(1,0,0,2.0000008,-1.0860493,-46.168509)"
       cx="355.25"
       cy="90"
       fx="355.25"
       fy="90"
       r="5.2499978" />
    <linearGradient
       inkscape:collect="always"
       xlink:href="#linearGradient70"
       id="linearGradient165"
       gradientUnits="userSpaceOnUse"
       x1="347.0629"
       y1="88.372688"
       x2="359.84006"
       y2="94.330772"
       gradientTransform="translate(-1.0860493,43.831565)" />
    <radialGradient
       inkscape:collect="always"
       xlink:href="#linearGradient68"
       id="radialGradient166"
       gradientUnits="userSpaceOnUse"
       gradientTransform="matrix(1,0,0,2.0000008,-1.0860493,-1.2508973)"
       cx="355.25"
       cy="90"
       fx="355.25"
       fy="90"
       r="5.2499978" />
    <linearGradient
       inkscape:collect="always"
       xlink:href="#linearGradient70"
       id="linearGradient166"
       gradientUnits="userSpaceOnUse"
       x1="347.0629"
       y1="88.372688"
       x2="359.84006"
       y2="94.330772"
       gradientTransform="translate(-1.0860493,88.749177)" />
    <radialGradient
       inkscape:collect="always"
       xlink:href="#linearGradient68"
       id="radialGradient167"
       gradientUnits="userSpaceOnUse"
       gradientTransform="matrix(1,0,0,2.0000008,-1.0860493,43.666714)"
       cx="355.25"
       cy="90"
       fx="355.25"
       fy="90"
       r="5.2499978" />
    <linearGradient
       inkscape:collect="always"
       xlink:href="#linearGradient70"
       id="linearGradient167"
       gradientUnits="userSpaceOnUse"
       x1="347.0629"
       y1="88.372688"
       x2="359.84006"
       y2="94.330772"
       gradientTransform="translate(-1.0860493,133.66679)" />
    <radialGradient
       inkscape:collect="always"
       xlink:href="#linearGradient68"
       id="radialGradient168"
       gradientUnits="userSpaceOnUse"
       gradientTransform="matrix(1,0,0,2.0000008,-1.0860493,88.584324)"
       cx="355.25"
       cy="90"
       fx="355.25"
       fy="90"
       r="5.2499978" />
    <linearGradient
       inkscape:collect="always"
       xlink:href="#linearGradient70"
       id="linearGradient168"
       gradientUnits="userSpaceOnUse"
       x1="347.0629"
       y1="88.372688"
       x2="359.84006"
       y2="94.330772"
       gradientTransform="translate(-1.0860493,178.5844)" />
    <radialGradient
       inkscape:collect="always"
       xlink:href="#linearGradient68"
       id="radialGradient169"
       gradientUnits="userSpaceOnUse"
       gradientTransform="matrix(1,0,0,2.0000008,-1.0860493,133.50194)"
       cx="355.25"
       cy="90"
       fx="355.25"
       fy="90"
       r="5.2499978" />
    <linearGradient
       inkscape:collect="always"
       xlink:href="#linearGradient70"
       id="linearGradient169"
       gradientUnits="userSpaceOnUse"
       x1="347.0629"
       y1="88.372688"
       x2="359.84006"
       y2="94.330772"
       gradientTransform="translate(-1.0860493,223.50201)" />
    <radialGradient
       inkscape:collect="always"
       xlink:href="#linearGradient68"
       id="radialGradient170"
       gradientUnits="userSpaceOnUse"
       gradientTransform="matrix(1,0,0,2.0000008,-1.0860493,178.41956)"
       cx="355.25"
       cy="90"
       fx="355.25"
       fy="90"
       r="5.2499978" />
    <linearGradient
       inkscape:collect="always"
       xlink:href="#linearGradient70"
       id="linearGradient170"
       gradientUnits="userSpaceOnUse"
       x1="347.0629"
       y1="88.372688"
       x2="359.84006"
       y2="94.330772"
       gradientTransform="translate(-1.0860493,268.41963)" />
    <radialGradient
       inkscape:collect="always"
       xlink:href="#linearGradient68"
       id="radialGradient171"
       gradientUnits="userSpaceOnUse"
       gradientTransform="matrix(1,0,0,2.0000008,-1.0860493,223.33717)"
       cx="355.25"
       cy="90"
       fx="355.25"
       fy="90"
       r="5.2499978" />
    <linearGradient
       inkscape:collect="always"
       xlink:href="#linearGradient70"
       id="linearGradient171"
       gradientUnits="userSpaceOnUse"
       x1="347.0629"
       y1="88.372688"
       x2="359.84006"
       y2="94.330772"
       gradientTransform="translate(-1.0860493,313.33724)" />
    <radialGradient
       inkscape:collect="always"
       xlink:href="#linearGradient68"
       id="radialGradient172"
       gradientUnits="userSpaceOnUse"
       gradientTransform="matrix(1,0,0,2.0000008,-1.0860493,268.25478)"
       cx="355.25"
       cy="90"
       fx="355.25"
       fy="90"
       r="5.2499978" />
    <linearGradient
       inkscape:collect="always"
       xlink:href="#linearGradient70"
       id="linearGradient172"
       gradientUnits="userSpaceOnUse"
       x1="347.0629"
       y1="88.372688"
       x2="359.84006"
       y2="94.330772"
       gradientTransform="translate(-1.0860493,358.25485)" />
    <radialGradient
       inkscape:collect="always"
       xlink:href="#linearGradient68"
       id="radialGradient173"
       gradientUnits="userSpaceOnUse"
       gradientTransform="matrix(1,0,0,2.0000008,-1.0860493,313.17239)"
       cx="355.25"
       cy="90"
       fx="355.25"
       fy="90"
       r="5.2499978" />
    <linearGradient
       inkscape:collect="always"
       xlink:href="#linearGradient70"
       id="linearGradient173"
       gradientUnits="userSpaceOnUse"
       x1="347.0629"
       y1="88.372688"
       x2="359.84006"
       y2="94.330772"
       gradientTransform="translate(-1.0860493,403.17246)" />
    <radialGradient
       inkscape:collect="always"
       xlink:href="#linearGradient68"
       id="radialGradient174"
       gradientUnits="userSpaceOnUse"
       gradientTransform="matrix(1,0,0,2.0000008,-1.0860493,358.09001)"
       cx="355.25"
       cy="90"
       fx="355.25"
       fy="90"
       r="5.2499978" />
    <linearGradient
       inkscape:collect="always"
       xlink:href="#linearGradient70"
       id="linearGradient174"
       gradientUnits="userSpaceOnUse"
       x1="347.0629"
       y1="88.372688"
       x2="359.84006"
       y2="94.330772"
       gradientTransform="translate(-1.0860493,448.09008)" />
    <radialGradient
       inkscape:collect="always"
       xlink:href="#linearGradient68"
       id="radialGradient175"
       gradientUnits="userSpaceOnUse"
       gradientTransform="matrix(1,0,0,2.0000008,0.54302074,403.00762)"
       cx="355.25"
       cy="90"
       fx="355.25"
       fy="90"
       r="5.2499978" />
    <linearGradient
       inkscape:collect="always"
       xlink:href="#linearGradient70"
       id="linearGradient175"
       gradientUnits="userSpaceOnUse"
       x1="347.0629"
       y1="88.372688"
       x2="359.84006"
       y2="94.330772"
       gradientTransform="translate(0.54302074,493.00769)" />
    <radialGradient
       inkscape:collect="always"
       xlink:href="#linearGradient68"
       id="radialGradient176"
       gradientUnits="userSpaceOnUse"
       gradientTransform="matrix(-1,0,0,2.0000008,499.44712,-93.25822)"
       cx="355.25"
       cy="90"
       fx="355.25"
       fy="90"
       r="5.2499978" />
    <linearGradient
       inkscape:collect="always"
       xlink:href="#linearGradient70"
       id="linearGradient176"
       gradientUnits="userSpaceOnUse"
       x1="347.0629"
       y1="88.372688"
       x2="359.84006"
       y2="94.330772"
       gradientTransform="matrix(-1,0,0,1,499.44712,-3.2581457)" />
    <radialGradient
       inkscape:collect="always"
       xlink:href="#linearGradient68"
       id="radialGradient177"
       gradientUnits="userSpaceOnUse"
       gradientTransform="matrix(-1,0,0,2.0000008,499.44712,-48.192509)"
       cx="355.25"
       cy="90"
       fx="355.25"
       fy="90"
       r="5.2499978" />
    <linearGradient
       inkscape:collect="always"
       xlink:href="#linearGradient70"
       id="linearGradient177"
       gradientUnits="userSpaceOnUse"
       x1="347.0629"
       y1="88.372688"
       x2="359.84006"
       y2="94.330772"
       gradientTransform="matrix(-1,0,0,1,499.44712,41.807565)" />
    <radialGradient
       inkscape:collect="always"
       xlink:href="#linearGradient68"
       id="radialGradient178"
       gradientUnits="userSpaceOnUse"
       gradientTransform="matrix(-1,0,0,2.0000008,499.44712,-3.126798)"
       cx="355.25"
       cy="90"
       fx="355.25"
       fy="90"
       r="5.2499978" />
    <linearGradient
       inkscape:collect="always"
       xlink:href="#linearGradient70"
       id="linearGradient178"
       gradientUnits="userSpaceOnUse"
       x1="347.0629"
       y1="88.372688"
       x2="359.84006"
       y2="94.330772"
       gradientTransform="matrix(-1,0,0,1,499.44712,86.873276)" />
    <radialGradient
       inkscape:collect="always"
       xlink:href="#linearGradient68"
       id="radialGradient179"
       gradientUnits="userSpaceOnUse"
       gradientTransform="matrix(-1,0,0,2.0000008,499.44712,41.938916)"
       cx="355.25"
       cy="90"
       fx="355.25"
       fy="90"
       r="5.2499978" />
    <linearGradient
       inkscape:collect="always"
       xlink:href="#linearGradient70"
       id="linearGradient179"
       gradientUnits="userSpaceOnUse"
       x1="347.0629"
       y1="88.372688"
       x2="359.84006"
       y2="94.330772"
       gradientTransform="matrix(-1,0,0,1,499.44712,131.93899)" />
    <radialGradient
       inkscape:collect="always"
       xlink:href="#linearGradient68"
       id="radialGradient180"
       gradientUnits="userSpaceOnUse"
       gradientTransform="matrix(-1,0,0,2.0000008,499.44712,87.004626)"
       cx="355.25"
       cy="90"
       fx="355.25"
       fy="90"
       r="5.2499978" />
    <linearGradient
       inkscape:collect="always"
       xlink:href="#linearGradient70"
       id="linearGradient180"
       gradientUnits="userSpaceOnUse"
       x1="347.0629"
       y1="88.372688"
       x2="359.84006"
       y2="94.330772"
       gradientTransform="matrix(-1,0,0,1,499.44712,177.0047)" />
    <radialGradient
       inkscape:collect="always"
       xlink:href="#linearGradient68"
       id="radialGradient181"
       gradientUnits="userSpaceOnUse"
       gradientTransform="matrix(-1,0,0,2.0000008,499.44712,132.07034)"
       cx="355.25"
       cy="90"
       fx="355.25"
       fy="90"
       r="5.2499978" />
    <linearGradient
       inkscape:collect="always"
       xlink:href="#linearGradient70"
       id="linearGradient181"
       gradientUnits="userSpaceOnUse"
       x1="347.0629"
       y1="88.372688"
       x2="359.84006"
       y2="94.330772"
       gradientTransform="matrix(-1,0,0,1,499.44712,222.07041)" />
    <radialGradient
       inkscape:collect="always"
       xlink:href="#linearGradient68"
       id="radialGradient182"
       gradientUnits="userSpaceOnUse"
       gradientTransform="matrix(-1,0,0,2.0000008,499.44712,177.13605)"
       cx="355.25"
       cy="90"
       fx="355.25"
       fy="90"
       r="5.2499978" />
    <linearGradient
       inkscape:collect="always"
       xlink:href="#linearGradient70"
       id="linearGradient182"
       gradientUnits="userSpaceOnUse"
       x1="347.0629"
       y1="88.372688"
       x2="359.84006"
       y2="94.330772"
       gradientTransform="matrix(-1,0,0,1,499.44712,267.13612)" />
    <radialGradient
       inkscape:collect="always"
       xlink:href="#linearGradient68"
       id="radialGradient183"
       gradientUnits="userSpaceOnUse"
       gradientTransform="matrix(-1,0,0,2.0000008,499.44712,222.20177)"
       cx="355.25"
       cy="90"
       fx="355.25"
       fy="90"
       r="5.2499978" />
    <linearGradient
       inkscape:collect="always"
       xlink:href="#linearGradient70"
       id="linearGradient183"
       gradientUnits="userSpaceOnUse"
       x1="347.0629"
       y1="88.372688"
       x2="359.84006"
       y2="94.330772"
       gradientTransform="matrix(-1,0,0,1,499.44712,312.20184)" />
    <radialGradient
       inkscape:collect="always"
       xlink:href="#linearGradient68"
       id="radialGradient184"
       gradientUnits="userSpaceOnUse"
       gradientTransform="matrix(-1,0,0,2.0000008,499.44712,267.26748)"
       cx="355.25"
       cy="90"
       fx="355.25"
       fy="90"
       r="5.2499978" />
    <linearGradient
       inkscape:collect="always"
       xlink:href="#linearGradient70"
       id="linearGradient184"
       gradientUnits="userSpaceOnUse"
       x1="347.0629"
       y1="88.372688"
       x2="359.84006"
       y2="94.330772"
       gradientTransform="matrix(-1,0,0,1,499.44712,357.26755)" />
    <radialGradient
       inkscape:collect="always"
       xlink:href="#linearGradient68"
       id="radialGradient185"
       gradientUnits="userSpaceOnUse"
       gradientTransform="matrix(-1,0,0,2.0000008,499.44712,312.33319)"
       cx="355.25"
       cy="90"
       fx="355.25"
       fy="90"
       r="5.2499978" />
    <linearGradient
       inkscape:collect="always"
       xlink:href="#linearGradient70"
       id="linearGradient185"
       gradientUnits="userSpaceOnUse"
       x1="347.0629"
       y1="88.372688"
       x2="359.84006"
       y2="94.330772"
       gradientTransform="matrix(-1,0,0,1,499.44712,402.33326)" />
    <radialGradient
       inkscape:collect="always"
       xlink:href="#linearGradient68"
       id="radialGradient186"
       gradientUnits="userSpaceOnUse"
       gradientTransform="matrix(-1,0,0,2.0000008,499.44712,357.3989)"
       cx="355.25"
       cy="90"
       fx="355.25"
       fy="90"
       r="5.2499978" />
    <linearGradient
       inkscape:collect="always"
       xlink:href="#linearGradient70"
       id="linearGradient186"
       gradientUnits="userSpaceOnUse"
       x1="347.0629"
       y1="88.372688"
       x2="359.84006"
       y2="94.330772"
       gradientTransform="matrix(-1,0,0,1,499.44712,447.39897)" />
    <radialGradient
       inkscape:collect="always"
       xlink:href="#linearGradient68"
       id="radialGradient187"
       gradientUnits="userSpaceOnUse"
       gradientTransform="matrix(-1,0,0,2.0000008,499.44712,402.46461)"
       cx="355.25"
       cy="90"
       fx="355.25"
       fy="90"
       r="5.2499978" />
    <linearGradient
       inkscape:collect="always"
       xlink:href="#linearGradient70"
       id="linearGradient187"
       gradientUnits="userSpaceOnUse"
       x1="347.0629"
       y1="88.372688"
       x2="359.84006"
       y2="94.330772"
       gradientTransform="matrix(-1,0,0,1,499.44712,492.46468)" />
  </defs>
  <path
     d="m 229.52002,40.191988 c 0,8.284277 9.29813,14.999993 20.76795,14.999993 11.46982,0 20.76795,-6.715716 20.76795,-14.999993"
     fill="#e0dfd0"
     id="path3"
     style="fill:#8d8d8d;fill-opacity:1;stroke:none;stroke-width:0.203804;stroke-dasharray:none;stroke-opacity:1"
     sodipodi:nodetypes="csc" />
  <!-- Chip Body -->
  <path
     id="rect2"
     style="fill:url(#linearGradient58);stroke:none;stroke-width:2;font-variation-settings:normal;opacity:1;vector-effect:none;fill-opacity:1;stroke-linecap:butt;stroke-linejoin:miter;stroke-miterlimit:4;stroke-dasharray:none;stroke-dashoffset:0;stroke-opacity:1;-inkscape-stroke:none;stop-color:#000000;stop-opacity:1"
     class="chip-body"
     d="m 165,40 h 64.52172 c 0,0 2.82668,14.29471 20.06275,14.30311 C 267.5725,54.311876 269.93521,40 269.93521,40 H 335 c 8.31,0 15,6.69 15,15 v 540 c 0,8.31 -6.69,15 -15,15 H 165 c -8.31,0 -15,-6.69 -15,-15 V 55 c 0,-8.31 6.69,-15 15,-15 z"
     sodipodi:nodetypes="scscssssssss" />
  <path
     id="rect2-4"
     style="fill:#bebebe;stroke:url(#linearGradient60);stroke-width:1.904;stroke-dasharray:none;fill-opacity:1"
     class="chip-body"
     d="m 170.87483,46.642787 h 60.06226 c 0,0 2.63131,13.923011 18.6761,13.931191 16.74477,0.0086 18.94418,-13.931191 18.94418,-13.931191 h 60.5678 c 7.73564,0 13.96326,6.516043 13.96326,14.609961 V 587.21134 c 0,8.09392 -6.22762,14.60997 -13.96326,14.60997 H 170.87483 c -7.73564,0 -13.96326,-6.51605 -13.96326,-14.60997 V 61.252748 c 0,-8.093918 6.22762,-14.609961 13.96326,-14.609961 z"
     sodipodi:nodetypes="scscssssssss" />
  <!-- Top Notch -->
  <!-- Center Text -->
  <text
     x="249.23204"
     y="308.87302"
     class="chip-title"
     id="text3"><tspan
       sodipodi:role="line"
       id="tspan187"
       x="249.23204"
       y="308.87302">Intel</tspan><tspan
       sodipodi:role="line"
       id="tspan188"
       x="249.23204"
       y="348.87302">8253</tspan></text>
  <!-- PINS GENERATION -->
  <!-- Group for Left Pins -->
  <text
     x="165"
     y="92"
     class="pin-num"
     id="text4">1</text>
  <text
     x="130.7477"
     y="90"
     class="label-text"
     text-anchor="end"
     id="text5"
     style="fill:#406e9d;fill-opacity:1">D<tspan
   class="sub"
   id="tspan4"
   style="fill:#406e9d;fill-opacity:1">7</tspan></text>
  <text
     x="165"
     y="137"
     class="pin-num"
     id="text6">2</text>
  <text
     x="130.7477"
     y="135"
     class="label-text"
     text-anchor="end"
     id="text7"
     style="fill:#406e9d;fill-opacity:1">D<tspan
   class="sub"
   id="tspan6"
   style="fill:#406e9d;fill-opacity:1">6</tspan></text>
  <text
     x="165"
     y="182"
     class="pin-num"
     id="text8">3</text>
  <text
     x="130.7477"
     y="180"
     class="label-text"
     text-anchor="end"
     id="text9"
     style="fill:#406e9d;fill-opacity:1">D<tspan
   class="sub"
   id="tspan8"
   style="fill:#406e9d;fill-opacity:1">5</tspan></text>
  <text
     x="165"
     y="227"
     class="pin-num"
     id="text10">4</text>
  <text
     x="130.7477"
     y="225"
     class="label-text"
     text-anchor="end"
     id="text11"
     style="fill:#406e9d;fill-opacity:1">D<tspan
   class="sub"
   id="tspan10"
   style="fill:#406e9d;fill-opacity:1">4</tspan></text>
  <text
     x="165"
     y="272"
     class="pin-num"
     id="text12">5</text>
  <text
     x="130.7477"
     y="270"
     class="label-text"
     text-anchor="end"
     id="text13"
     style="fill:#406e9d;fill-opacity:1">D<tspan
   class="sub"
   id="tspan12"
   style="fill:#406e9d;fill-opacity:1">3</tspan></text>
  <text
     x="165"
     y="317"
     class="pin-num"
     id="text14">6</text>
  <text
     x="130.7477"
     y="315"
     class="label-text"
     text-anchor="end"
     id="text15"
     style="fill:#406e9d;fill-opacity:1">D<tspan
   class="sub"
   id="tspan14"
   style="fill:#406e9d;fill-opacity:1">2</tspan></text>
  <text
     x="165"
     y="362"
     class="pin-num"
     id="text16">7</text>
  <text
     x="130.7477"
     y="360"
     class="label-text"
     text-anchor="end"
     id="text17"
     style="fill:#406e9d;fill-opacity:1">D<tspan
   class="sub"
   id="tspan16"
   style="fill:#406e9d;fill-opacity:1">1</tspan></text>
  <text
     x="165"
     y="407"
     class="pin-num"
     id="text18">8</text>
  <text
     x="130.7477"
     y="405"
     class="label-text"
     text-anchor="end"
     id="text19"
     style="fill:#406e9d;fill-opacity:1">D<tspan
   class="sub"
   id="tspan18"
   style="fill:#406e9d;fill-opacity:1">0</tspan></text>
  <text
     x="165"
     y="452"
     class="pin-num"
     id="text20">9</text>
  <text
     x="130.7477"
     y="450"
     class="label-text"
     text-anchor="end"
     id="text21"
     style="fill:#406e9d;fill-opacity:1">CLK 0</text>
  <text
     x="160"
     y="497"
     class="pin-num"
     id="text22">10</text>
  <text
     x="130.7477"
     y="495"
     class="label-text"
     text-anchor="end"
     id="text23"
     style="fill:#406e9d;fill-opacity:1">OUT 0</text>
  <text
     x="160"
     y="542"
     class="pin-num"
     id="text24">11</text>
  <text
     x="130.7477"
     y="540"
     class="label-text"
     text-anchor="end"
     id="text25"
     style="fill:#406e9d;fill-opacity:1">GATE 0</text>
  <text
     x="160"
     y="587"
     class="pin-num"
     id="text26">12</text>
  <text
     x="130.7477"
     y="585"
     class="label-text"
     text-anchor="end"
     id="text27"
     style="fill:#406e9d;fill-opacity:1">GND</text>
  <!-- Group for Right Pins -->
  <text
     x="315"
     y="92"
     class="pin-num"
     id="text28">24</text>
  <text
     x="365.45114"
     y="91.629074"
     class="label-text"
     text-anchor="start"
     id="text29"
     style="fill:#406e9d;fill-opacity:1">V<tspan
   class="sub"
   id="tspan28"
   style="fill:#406e9d;fill-opacity:1">CC</tspan></text>
  <text
     x="315"
     y="137"
     class="pin-num"
     id="text30">23</text>
  <text
     x="315"
     y="182"
     class="pin-num"
     id="text32">22</text>
  <text
     x="315"
     y="227"
     class="pin-num"
     id="text34">21</text>
  <text
     x="315"
     y="272"
     class="pin-num"
     id="text36">20</text>
  <text
     x="365.45114"
     y="271.62906"
     class="label-text"
     text-anchor="start"
     id="text37"
     style="fill:#406e9d;fill-opacity:1">A<tspan
   class="sub"
   id="tspan36"
   style="fill:#406e9d;fill-opacity:1">1</tspan></text>
  <text
     x="315"
     y="317"
     class="pin-num"
     id="text38">19</text>
  <text
     x="365.45114"
     y="316.62906"
     class="label-text"
     text-anchor="start"
     id="text39"
     style="fill:#406e9d;fill-opacity:1">A<tspan
   class="sub"
   id="tspan38"
   style="fill:#406e9d;fill-opacity:1">0</tspan></text>
  <text
     x="315"
     y="362"
     class="pin-num"
     id="text40">18</text>
  <text
     x="365.45114"
     y="361.62906"
     class="label-text"
     text-anchor="start"
     id="text41"
     style="fill:#406e9d;fill-opacity:1">CLK 2</text>
  <text
     x="398.41147"
     y="139.8243"
     class="label-text"
     text-anchor="start"
     id="text41-1"
     style="font-weight:bold;font-size:18px;font-family:Arial, sans-serif;dominant-baseline:middle;white-space:pre;inline-size:0;fill:#406e9d;fill-opacity:1"
     transform="translate(-34.210526,42.35589)">RD</text>
  <text
     x="398.41147"
     y="139.8243"
     class="label-text"
     text-anchor="start"
     id="text41-1-9"
     style="font-weight:bold;font-size:18px;font-family:Arial, sans-serif;dominant-baseline:middle;white-space:pre;inline-size:0;fill:#406e9d;fill-opacity:1"
     transform="translate(-33.139185,-2.392654)">WR</text>
  <text
     x="315"
     y="407"
     class="pin-num"
     id="text42">17</text>
  <text
     x="365.45114"
     y="406.62906"
     class="label-text"
     text-anchor="start"
     id="text43"
     style="fill:#406e9d;fill-opacity:1">OUT 2</text>
  <text
     x="315"
     y="452"
     class="pin-num"
     id="text44">16</text>
  <text
     x="365.45114"
     y="451.62906"
     class="label-text"
     text-anchor="start"
     id="text45"
     style="fill:#406e9d;fill-opacity:1">GATE 2</text>
  <text
     x="315"
     y="497"
     class="pin-num"
     id="text46">15</text>
  <text
     x="365.45114"
     y="496.62906"
     class="label-text"
     text-anchor="start"
     id="text47"
     style="fill:#406e9d;fill-opacity:1">CLK 1</text>
  <text
     x="315"
     y="542"
     class="pin-num"
     id="text48">14</text>
  <text
     x="365.45114"
     y="541.62909"
     class="label-text"
     text-anchor="start"
     id="text49"
     style="fill:#406e9d;fill-opacity:1">GATE 1</text>
  <text
     x="315"
     y="587"
     class="pin-num"
     id="text50">13</text>
  <text
     x="365.45114"
     y="586.62909"
     class="label-text"
     text-anchor="start"
     id="text51"
     style="fill:#406e9d;fill-opacity:1">OUT 1</text>
  <path
     d="m 345.31641,79.746957 c 0.96848,0 1.27071,0.02083 2.38307,0.02149 1.71506,0.001 2.20482,3.681052 4.16714,3.857951 3.4362,0.309768 7.03269,0.953571 7.04192,1.924424 0.0133,1.402274 0,2.056699 0,2.543062 0,1.21161 0.0122,5.569538 0,7.086904 -0.0159,1.90534 -4.82562,2.06054 -7.13682,2.11413 -2.96237,0.0687 -2.64987,3.453252 -4.15,3.426182 0,0 -1.38712,0.0633 -2.30531,0.0633"
     class="pin-shape"
     id="use141"
     style="fill:url(#radialGradient164);stroke:url(#linearGradient164);stroke-opacity:1;paint-order:normal"
     sodipodi:nodetypes="csssssssc"
     inkscape:tile-x0="346.40246"
     inkscape:tile-y0="80.333005" />
  <path
     d="m 345.31641,124.66457 c 0.96848,0 1.27071,0.0208 2.38307,0.0215 1.71506,0.001 2.20482,3.68105 4.16714,3.85795 3.4362,0.30977 7.03269,0.95357 7.04192,1.92443 0.0133,1.40227 0,2.0567 0,2.54306 0,1.21161 0.0122,5.56954 0,7.0869 -0.0159,1.90534 -4.82562,2.06054 -7.13682,2.11414 -2.96237,0.0687 -2.64987,3.45325 -4.15,3.42618 0,0 -1.38712,0.0633 -2.30531,0.0633"
     class="pin-shape"
     id="use142"
     style="fill:url(#radialGradient165);stroke:url(#linearGradient165);stroke-opacity:1;paint-order:normal"
     sodipodi:nodetypes="csssssssc"
     inkscape:tile-x0="346.40246"
     inkscape:tile-y0="80.333005" />
  <path
     d="m 345.31641,169.58218 c 0.96848,0 1.27071,0.0208 2.38307,0.0215 1.71506,0.001 2.20482,3.68106 4.16714,3.85795 3.4362,0.30977 7.03269,0.95358 7.04192,1.92443 0.0133,1.40227 0,2.0567 0,2.54306 0,1.21161 0.0122,5.56954 0,7.0869 -0.0159,1.90534 -4.82562,2.06054 -7.13682,2.11414 -2.96237,0.0687 -2.64987,3.45325 -4.15,3.42618 0,0 -1.38712,0.0633 -2.30531,0.0633"
     class="pin-shape"
     id="use143"
     style="fill:url(#radialGradient166);stroke:url(#linearGradient166);stroke-opacity:1;paint-order:normal"
     sodipodi:nodetypes="csssssssc"
     inkscape:tile-x0="346.40246"
     inkscape:tile-y0="80.333005" />
  <path
     d="m 345.31641,214.49979 c 0.96848,0 1.27071,0.0208 2.38307,0.0215 1.71506,0.001 2.20482,3.68106 4.16714,3.85796 3.4362,0.30976 7.03269,0.95357 7.04192,1.92442 0.0133,1.40227 0,2.0567 0,2.54306 0,1.21161 0.0122,5.56954 0,7.0869 -0.0159,1.90534 -4.82562,2.06054 -7.13682,2.11414 -2.96237,0.0687 -2.64987,3.45325 -4.15,3.42618 0,0 -1.38712,0.0633 -2.30531,0.0633"
     class="pin-shape"
     id="use144"
     style="fill:url(#radialGradient167);stroke:url(#linearGradient167);stroke-opacity:1;paint-order:normal"
     sodipodi:nodetypes="csssssssc"
     inkscape:tile-x0="346.40246"
     inkscape:tile-y0="80.333005" />
  <path
     d="m 345.31641,259.4174 c 0.96848,0 1.27071,0.0208 2.38307,0.0215 1.71506,9.9e-4 2.20482,3.68105 4.16714,3.85795 3.4362,0.30976 7.03269,0.95357 7.04192,1.92442 0.0133,1.40227 0,2.0567 0,2.54306 0,1.21161 0.0122,5.56954 0,7.0869 -0.0159,1.90534 -4.82562,2.06054 -7.13682,2.11414 -2.96237,0.0687 -2.64987,3.45325 -4.15,3.42618 0,0 -1.38712,0.0633 -2.30531,0.0633"
     class="pin-shape"
     id="use145"
     style="fill:url(#radialGradient168);stroke:url(#linearGradient168);stroke-opacity:1;paint-order:normal"
     sodipodi:nodetypes="csssssssc"
     inkscape:tile-x0="346.40246"
     inkscape:tile-y0="80.333005" />
  <path
     d="m 345.31641,304.33502 c 0.96848,0 1.27071,0.0208 2.38307,0.0215 1.71506,0.001 2.20482,3.68106 4.16714,3.85796 3.4362,0.30976 7.03269,0.95357 7.04192,1.92442 0.0133,1.40227 0,2.0567 0,2.54306 0,1.21161 0.0122,5.56954 0,7.08691 -0.0159,1.90533 -4.82562,2.06053 -7.13682,2.11413 -2.96237,0.0687 -2.64987,3.45325 -4.15,3.42618 0,0 -1.38712,0.0633 -2.30531,0.0633"
     class="pin-shape"
     id="use146"
     style="fill:url(#radialGradient169);stroke:url(#linearGradient169);stroke-opacity:1;paint-order:normal"
     sodipodi:nodetypes="csssssssc"
     inkscape:tile-x0="346.40246"
     inkscape:tile-y0="80.333005" />
  <path
     d="m 345.31641,349.25264 c 0.96848,0 1.27071,0.0208 2.38307,0.0215 1.71506,0.001 2.20482,3.68106 4.16714,3.85796 3.4362,0.30976 7.03269,0.95357 7.04192,1.92442 0.0133,1.40227 0,2.0567 0,2.54306 0,1.21161 0.0122,5.56954 0,7.08691 -0.0159,1.90533 -4.82562,2.06053 -7.13682,2.11413 -2.96237,0.0687 -2.64987,3.45325 -4.15,3.42618 0,0 -1.38712,0.0633 -2.30531,0.0633"
     class="pin-shape"
     id="use147"
     style="fill:url(#radialGradient170);stroke:url(#linearGradient170);stroke-opacity:1;paint-order:normal"
     sodipodi:nodetypes="csssssssc"
     inkscape:tile-x0="346.40246"
     inkscape:tile-y0="80.333005" />
  <path
     d="m 345.31641,394.17024 c 0.96848,0 1.27071,0.0208 2.38307,0.0215 1.71506,0.001 2.20482,3.68106 4.16714,3.85796 3.4362,0.30976 7.03269,0.95357 7.04192,1.92442 0.0133,1.40227 0,2.0567 0,2.54306 0,1.21161 0.0122,5.56954 0,7.0869 -0.0159,1.90534 -4.82562,2.06054 -7.13682,2.11414 -2.96237,0.0687 -2.64987,3.45325 -4.15,3.42618 0,0 -1.38712,0.0633 -2.30531,0.0633"
     class="pin-shape"
     id="use148"
     style="fill:url(#radialGradient171);stroke:url(#linearGradient171);stroke-opacity:1;paint-order:normal"
     sodipodi:nodetypes="csssssssc"
     inkscape:tile-x0="346.40246"
     inkscape:tile-y0="80.333005" />
  <path
     d="m 345.31641,439.08786 c 0.96848,0 1.27071,0.0208 2.38307,0.0215 1.71506,0.001 2.20482,3.68106 4.16714,3.85796 3.4362,0.30976 7.03269,0.95357 7.04192,1.92442 0.0133,1.40227 0,2.0567 0,2.54306 0,1.21161 0.0122,5.56954 0,7.08691 -0.0159,1.90533 -4.82562,2.06053 -7.13682,2.11413 -2.96237,0.0687 -2.64987,3.45325 -4.15,3.42618 0,0 -1.38712,0.0633 -2.30531,0.0633"
     class="pin-shape"
     id="use149"
     style="fill:url(#radialGradient172);stroke:url(#linearGradient172);stroke-opacity:1;paint-order:normal"
     sodipodi:nodetypes="csssssssc"
     inkscape:tile-x0="346.40246"
     inkscape:tile-y0="80.333005" />
  <path
     d="m 345.31641,484.00547 c 0.96848,0 1.27071,0.0208 2.38307,0.0215 1.71506,10e-4 2.20482,3.68105 4.16714,3.85795 3.4362,0.30976 7.03269,0.95357 7.04192,1.92442 0.0133,1.40227 0,2.0567 0,2.54306 0,1.21161 0.0122,5.56954 0,7.08691 -0.0159,1.90533 -4.82562,2.06053 -7.13682,2.11413 -2.96237,0.0687 -2.64987,3.45325 -4.15,3.42618 0,0 -1.38712,0.0633 -2.30531,0.0633"
     class="pin-shape"
     id="use150"
     style="fill:url(#radialGradient173);stroke:url(#linearGradient173);stroke-opacity:1;paint-order:normal"
     sodipodi:nodetypes="csssssssc"
     inkscape:tile-x0="346.40246"
     inkscape:tile-y0="80.333005" />
  <path
     d="m 345.31641,528.92309 c 0.96848,0 1.27071,0.0208 2.38307,0.0215 1.71506,0.001 2.20482,3.68106 4.16714,3.85796 3.4362,0.30976 7.03269,0.95357 7.04192,1.92442 0.0133,1.40227 0,2.0567 0,2.54306 0,1.21161 0.0122,5.56954 0,7.0869 -0.0159,1.90534 -4.82562,2.06054 -7.13682,2.11414 -2.96237,0.0687 -2.64987,3.45325 -4.15,3.42618 0,0 -1.38712,0.0633 -2.30531,0.0633"
     class="pin-shape"
     id="use151"
     style="fill:url(#radialGradient174);stroke:url(#linearGradient174);stroke-opacity:1;paint-order:normal"
     sodipodi:nodetypes="csssssssc"
     inkscape:tile-x0="346.40246"
     inkscape:tile-y0="80.333005" />
  <path
     d="m 346.94548,573.84069 c 0.96848,0 1.27071,0.0208 2.38307,0.0215 1.71506,10e-4 2.20482,3.68106 4.16714,3.85796 3.4362,0.30976 7.03269,0.95357 7.04192,1.92442 0.0133,1.40227 0,2.0567 0,2.54306 0,1.21161 0.0122,5.56954 0,7.0869 -0.0159,1.90534 -4.82562,2.06054 -7.13682,2.11414 -2.96237,0.0687 -2.64987,3.45325 -4.15,3.42618 0,0 -1.38712,0.0633 -2.30531,0.0633"
     class="pin-shape"
     id="use152"
     style="fill:url(#radialGradient175);stroke:url(#linearGradient175);stroke-opacity:1;paint-order:normal"
     sodipodi:nodetypes="csssssssc"
     inkscape:tile-x0="346.40246"
     inkscape:tile-y0="80.333005" />
  <path
     d="m 153.04466,77.574859 c -0.96848,0 -1.27071,0.02083 -2.38307,0.02149 -1.71506,10e-4 -2.20482,3.681052 -4.16714,3.857951 -3.4362,0.309768 -7.03269,0.953571 -7.04192,1.924424 -0.0133,1.402274 0,2.056699 0,2.543062 0,1.21161 -0.0122,5.569538 0,7.086903 0.0159,1.905339 4.82562,2.060537 7.13682,2.114136 2.96237,0.0687 2.64987,3.453249 4.15,3.426179 0,0 1.38712,0.0633 2.30531,0.0633"
     class="pin-shape"
     id="use153"
     style="fill:url(#radialGradient176);stroke:url(#linearGradient176);stroke-opacity:1;paint-order:normal"
     sodipodi:nodetypes="csssssssc"
     inkscape:tile-x0="346.40246"
     inkscape:tile-y0="80.333005" />
  <path
     d="m 153.04466,122.64057 c -0.96848,0 -1.27071,0.0208 -2.38307,0.0215 -1.71506,0.001 -2.20482,3.68105 -4.16714,3.85795 -3.4362,0.30977 -7.03269,0.95357 -7.04192,1.92442 -0.0133,1.40228 0,2.0567 0,2.54307 0,1.21161 -0.0122,5.56953 0,7.0869 0.0159,1.90534 4.82562,2.06054 7.13682,2.11414 2.96237,0.0687 2.64987,3.45325 4.15,3.42618 0,0 1.38712,0.0633 2.30531,0.0633"
     class="pin-shape"
     id="use154"
     style="fill:url(#radialGradient177);stroke:url(#linearGradient177);stroke-opacity:1;paint-order:normal"
     sodipodi:nodetypes="csssssssc"
     inkscape:tile-x0="346.40246"
     inkscape:tile-y0="80.333005" />
  <path
     d="m 153.04466,167.70628 c -0.96848,0 -1.27071,0.0208 -2.38307,0.0215 -1.71506,0.001 -2.20482,3.68105 -4.16714,3.85795 -3.4362,0.30977 -7.03269,0.95357 -7.04192,1.92443 -0.0133,1.40227 0,2.05669 0,2.54306 0,1.21161 -0.0122,5.56954 0,7.0869 0.0159,1.90534 4.82562,2.06054 7.13682,2.11414 2.96237,0.0687 2.64987,3.45325 4.15,3.42618 0,0 1.38712,0.0633 2.30531,0.0633"
     class="pin-shape"
     id="use155"
     style="fill:url(#radialGradient178);stroke:url(#linearGradient178);stroke-opacity:1;paint-order:normal"
     sodipodi:nodetypes="csssssssc"
     inkscape:tile-x0="346.40246"
     inkscape:tile-y0="80.333005" />
  <path
     d="m 153.04466,212.77199 c -0.96848,0 -1.27071,0.0208 -2.38307,0.0215 -1.71506,0.001 -2.20482,3.68106 -4.16714,3.85796 -3.4362,0.30976 -7.03269,0.95357 -7.04192,1.92442 -0.0133,1.40227 0,2.0567 0,2.54306 0,1.21161 -0.0122,5.56954 0,7.0869 0.0159,1.90534 4.82562,2.06054 7.13682,2.11414 2.96237,0.0687 2.64987,3.45325 4.15,3.42618 0,0 1.38712,0.0633 2.30531,0.0633"
     class="pin-shape"
     id="use156"
     style="fill:url(#radialGradient179);stroke:url(#linearGradient179);stroke-opacity:1;paint-order:normal"
     sodipodi:nodetypes="csssssssc"
     inkscape:tile-x0="346.40246"
     inkscape:tile-y0="80.333005" />
  <path
     d="m 153.04466,257.83771 c -0.96848,0 -1.27071,0.0208 -2.38307,0.0215 -1.71506,0.001 -2.20482,3.68106 -4.16714,3.85796 -3.4362,0.30976 -7.03269,0.95357 -7.04192,1.92442 -0.0133,1.40227 0,2.0567 0,2.54306 0,1.21161 -0.0122,5.56954 0,7.08691 0.0159,1.90533 4.82562,2.06053 7.13682,2.11413 2.96237,0.0687 2.64987,3.45325 4.15,3.42618 0,0 1.38712,0.0633 2.30531,0.0633"
     class="pin-shape"
     id="use157"
     style="fill:url(#radialGradient180);stroke:url(#linearGradient180);stroke-opacity:1;paint-order:normal"
     sodipodi:nodetypes="csssssssc"
     inkscape:tile-x0="346.40246"
     inkscape:tile-y0="80.333005" />
  <path
     d="m 153.04466,302.90341 c -0.96848,0 -1.27071,0.0208 -2.38307,0.0215 -1.71506,9.9e-4 -2.20482,3.68105 -4.16714,3.85795 -3.4362,0.30976 -7.03269,0.95357 -7.04192,1.92442 -0.0133,1.40227 0,2.0567 0,2.54306 0,1.21161 -0.0122,5.56954 0,7.08691 0.0159,1.90533 4.82562,2.06053 7.13682,2.11413 2.96237,0.0687 2.64987,3.45325 4.15,3.42618 0,0 1.38712,0.0633 2.30531,0.0633"
     class="pin-shape"
     id="use158"
     style="fill:url(#radialGradient181);stroke:url(#linearGradient181);stroke-opacity:1;paint-order:normal"
     sodipodi:nodetypes="csssssssc"
     inkscape:tile-x0="346.40246"
     inkscape:tile-y0="80.333005" />
  <path
     d="m 153.04466,347.96913 c -0.96848,0 -1.27071,0.0208 -2.38307,0.0215 -1.71506,0.001 -2.20482,3.68106 -4.16714,3.85796 -3.4362,0.30976 -7.03269,0.95357 -7.04192,1.92442 -0.0133,1.40227 0,2.0567 0,2.54306 0,1.21161 -0.0122,5.56954 0,7.08691 0.0159,1.90533 4.82562,2.06053 7.13682,2.11413 2.96237,0.0687 2.64987,3.45325 4.15,3.42618 0,0 1.38712,0.0633 2.30531,0.0633"
     class="pin-shape"
     id="use159"
     style="fill:url(#radialGradient182);stroke:url(#linearGradient182);stroke-opacity:1;paint-order:normal"
     sodipodi:nodetypes="csssssssc"
     inkscape:tile-x0="346.40246"
     inkscape:tile-y0="80.333005" />
  <path
     d="m 153.04466,393.03485 c -0.96848,0 -1.27071,0.0208 -2.38307,0.0215 -1.71506,0.001 -2.20482,3.68106 -4.16714,3.85796 -3.4362,0.30976 -7.03269,0.95357 -7.04192,1.92442 -0.0133,1.40227 0,2.0567 0,2.54306 0,1.21161 -0.0122,5.56954 0,7.08691 0.0159,1.90533 4.82562,2.06053 7.13682,2.11413 2.96237,0.0687 2.64987,3.45325 4.15,3.42618 0,0 1.38712,0.0633 2.30531,0.0633"
     class="pin-shape"
     id="use160"
     style="fill:url(#radialGradient183);stroke:url(#linearGradient183);stroke-opacity:1;paint-order:normal"
     sodipodi:nodetypes="csssssssc"
     inkscape:tile-x0="346.40246"
     inkscape:tile-y0="80.333005" />
  <path
     d="m 153.04466,438.10056 c -0.96848,0 -1.27071,0.0208 -2.38307,0.0215 -1.71506,10e-4 -2.20482,3.68105 -4.16714,3.85795 -3.4362,0.30976 -7.03269,0.95357 -7.04192,1.92442 -0.0133,1.40227 0,2.0567 0,2.54306 0,1.21161 -0.0122,5.56954 0,7.08691 0.0159,1.90533 4.82562,2.06053 7.13682,2.11413 2.96237,0.0687 2.64987,3.45325 4.15,3.42618 0,0 1.38712,0.0633 2.30531,0.0633"
     class="pin-shape"
     id="use161"
     style="fill:url(#radialGradient184);stroke:url(#linearGradient184);stroke-opacity:1;paint-order:normal"
     sodipodi:nodetypes="csssssssc"
     inkscape:tile-x0="346.40246"
     inkscape:tile-y0="80.333005" />
  <path
     d="m 153.04466,483.16626 c -0.96848,0 -1.27071,0.0208 -2.38307,0.0215 -1.71506,0.001 -2.20482,3.68106 -4.16714,3.85796 -3.4362,0.30976 -7.03269,0.95357 -7.04192,1.92442 -0.0133,1.40227 0,2.0567 0,2.54306 0,1.21161 -0.0122,5.56954 0,7.0869 0.0159,1.90534 4.82562,2.06054 7.13682,2.11414 2.96237,0.0687 2.64987,3.45325 4.15,3.42618 0,0 1.38712,0.0633 2.30531,0.0633"
     class="pin-shape"
     id="use162"
     style="fill:url(#radialGradient185);stroke:url(#linearGradient185);stroke-opacity:1;paint-order:normal"
     sodipodi:nodetypes="csssssssc"
     inkscape:tile-x0="346.40246"
     inkscape:tile-y0="80.333005" />
  <path
     d="m 153.04466,528.23198 c -0.96848,0 -1.27071,0.0208 -2.38307,0.0215 -1.71506,10e-4 -2.20482,3.68106 -4.16714,3.85796 -3.4362,0.30976 -7.03269,0.95357 -7.04192,1.92442 -0.0133,1.40227 0,2.0567 0,2.54306 0,1.21161 -0.0122,5.56954 0,7.08691 0.0159,1.90533 4.82562,2.06053 7.13682,2.11413 2.96237,0.0687 2.64987,3.45325 4.15,3.42618 0,0 1.38712,0.0633 2.30531,0.0633"
     class="pin-shape"
     id="use163"
     style="fill:url(#radialGradient186);stroke:url(#linearGradient186);stroke-opacity:1;paint-order:normal"
     sodipodi:nodetypes="csssssssc"
     inkscape:tile-x0="346.40246"
     inkscape:tile-y0="80.333005" />
  <path
     d="m 153.04466,573.29768 c -0.96848,0 -1.27071,0.0208 -2.38307,0.0215 -1.71506,10e-4 -2.20482,3.68106 -4.16714,3.85796 -3.4362,0.30976 -7.03269,0.95357 -7.04192,1.92442 -0.0133,1.40227 0,2.0567 0,2.54306 0,1.21161 -0.0122,5.56954 0,7.0869 0.0159,1.90534 4.82562,2.06054 7.13682,2.11414 2.96237,0.0687 2.64987,3.45325 4.15,3.42618 0,0 1.38712,0.0633 2.30531,0.0633"
     class="pin-shape"
     id="use164"
     style="fill:url(#radialGradient187);stroke:url(#linearGradient187);stroke-opacity:1;paint-order:normal"
     sodipodi:nodetypes="csssssssc"
     inkscape:tile-x0="346.40246"
     inkscape:tile-y0="80.333005" />
  <text
     x="398.41147"
     y="139.8243"
     class="label-text"
     text-anchor="start"
     id="text41-1-5"
     style="font-weight:bold;font-size:18px;font-family:Arial, sans-serif;dominant-baseline:middle;white-space:pre;inline-size:0;fill:#406e9d;fill-opacity:1"
     transform="translate(-34.794992,86.883035)">CS</text>
  <path
     style="font-variation-settings:normal;opacity:1;fill:#346ca2;fill-opacity:1;stroke:#406e9d;stroke-width:2.00599;stroke-linecap:butt;stroke-linejoin:miter;stroke-miterlimit:4;stroke-dasharray:none;stroke-dashoffset:0;stroke-opacity:1;paint-order:normal"
     d="m 364.91227,126.6604 h 30.13785"
     id="path192" />
  <path
     style="font-variation-settings:normal;fill:#346ca2;fill-opacity:1;stroke:#406e9d;stroke-width:1.80629;stroke-linecap:butt;stroke-linejoin:miter;stroke-miterlimit:4;stroke-dasharray:none;stroke-dashoffset:0;stroke-opacity:1;paint-order:normal"
     d="m 365.27527,171.6304 h 24.4361"
     id="path192-5" />
  <path
     style="font-variation-settings:normal;fill:#346ca2;fill-opacity:1;stroke:#406e9d;stroke-width:1.80629;stroke-linecap:butt;stroke-linejoin:miter;stroke-miterlimit:4;stroke-dasharray:none;stroke-dashoffset:0;stroke-opacity:1;paint-order:normal"
     d="m 364.32498,215.95119 h 24.4361"
     id="path192-5-7" />
</svg>
