<?xml version="1.0" encoding="UTF-8" standalone="no"?>
<!DOCTYPE svg PUBLIC "-//W3C//DTD SVG 1.1//EN" "http://www.w3.org/Graphics/SVG/1.1/DTD/svg11.dtd">
<svg width="100%" height="100%" viewBox="0 0 800 400" version="1.1" xmlns="http://www.w3.org/2000/svg" xmlns:xlink="http://www.w3.org/1999/xlink" xml:space="preserve" xmlns:serif="http://www.serif.com/" style="fill-rule:evenodd;clip-rule:evenodd;">
    <rect x="0" y="0" width="800" height="400" style="fill:rgb(26,28,35);"/>
    <g transform="matrix(1,0,0,1,399.91,30)">
        <g>
            <g transform="matrix(18,0,0,18,-167.668242,0)">
                <rect x="0.068" y="-0.716" width="0.145" height="0.716" style="fill:white;fill-rule:nonzero;"/>
            </g>
            <g transform="matrix(18,0,0,18,-162.487266,0)">
                <path d="M0.073,-0.716L0.359,-0.716C0.416,-0.716 0.458,-0.713 0.486,-0.709C0.514,-0.704 0.539,-0.694 0.561,-0.679C0.583,-0.664 0.601,-0.644 0.616,-0.619C0.63,-0.594 0.638,-0.567 0.638,-0.536C0.638,-0.502 0.629,-0.471 0.611,-0.443C0.593,-0.415 0.568,-0.394 0.537,-0.38C0.581,-0.368 0.614,-0.346 0.638,-0.315C0.661,-0.285 0.673,-0.249 0.673,-0.208C0.673,-0.175 0.665,-0.143 0.65,-0.113C0.635,-0.082 0.614,-0.057 0.588,-0.039C0.562,-0.02 0.53,-0.009 0.491,-0.005C0.467,-0.002 0.409,-0.001 0.317,-0L0.073,-0L0.073,-0.716ZM0.218,-0.597L0.218,-0.431L0.312,-0.431C0.369,-0.431 0.404,-0.432 0.417,-0.434C0.442,-0.437 0.462,-0.445 0.476,-0.459C0.49,-0.473 0.497,-0.492 0.497,-0.515C0.497,-0.537 0.491,-0.555 0.479,-0.569C0.467,-0.583 0.448,-0.591 0.424,-0.594C0.41,-0.596 0.369,-0.597 0.301,-0.597L0.218,-0.597ZM0.218,-0.312L0.218,-0.121L0.352,-0.121C0.404,-0.121 0.437,-0.122 0.451,-0.125C0.472,-0.129 0.49,-0.138 0.503,-0.154C0.517,-0.169 0.523,-0.189 0.523,-0.214C0.523,-0.236 0.518,-0.254 0.508,-0.269C0.497,-0.284 0.482,-0.295 0.463,-0.302C0.443,-0.309 0.4,-0.312 0.334,-0.312L0.218,-0.312Z" style="fill:white;fill-rule:nonzero;"/>
            </g>
            <g transform="matrix(18,0,0,18,-149.308242,0)">
                <path d="M0.071,-0L0.071,-0.716L0.287,-0.716L0.417,-0.228L0.545,-0.716L0.762,-0.716L0.762,-0L0.628,-0L0.628,-0.563L0.486,-0L0.347,-0L0.205,-0.563L0.205,-0L0.071,-0Z" style="fill:white;fill-rule:nonzero;"/>
            </g>
            <g transform="matrix(18,0,0,18,-128.953125,0)">
                <path d="M0.531,-0.263L0.671,-0.219C0.649,-0.141 0.614,-0.083 0.564,-0.045C0.514,-0.007 0.45,0.012 0.374,0.012C0.278,0.012 0.2,-0.02 0.139,-0.085C0.078,-0.15 0.047,-0.239 0.047,-0.352C0.047,-0.471 0.078,-0.563 0.14,-0.629C0.201,-0.695 0.282,-0.728 0.382,-0.728C0.47,-0.728 0.541,-0.702 0.596,-0.65C0.628,-0.62 0.653,-0.576 0.669,-0.519L0.526,-0.484C0.517,-0.521 0.5,-0.551 0.473,-0.572C0.446,-0.594 0.413,-0.604 0.375,-0.604C0.322,-0.604 0.279,-0.585 0.246,-0.547C0.213,-0.509 0.196,-0.448 0.196,-0.362C0.196,-0.272 0.213,-0.207 0.245,-0.169C0.278,-0.131 0.32,-0.111 0.372,-0.111C0.41,-0.111 0.444,-0.124 0.471,-0.148C0.499,-0.172 0.519,-0.211 0.531,-0.263Z" style="fill:white;fill-rule:nonzero;"/>
            </g>
            <g transform="matrix(18,0,0,18,-115.774102,0)">
                <path d="M0.406,-0.263L0.406,-0.384L0.717,-0.384L0.717,-0.099C0.687,-0.069 0.643,-0.044 0.586,-0.021C0.528,0.001 0.47,0.012 0.411,0.012C0.336,0.012 0.271,-0.003 0.215,-0.035C0.16,-0.066 0.118,-0.111 0.09,-0.17C0.062,-0.228 0.048,-0.292 0.048,-0.36C0.048,-0.435 0.063,-0.501 0.095,-0.559C0.126,-0.617 0.172,-0.661 0.232,-0.692C0.278,-0.716 0.335,-0.728 0.403,-0.728C0.492,-0.728 0.562,-0.709 0.612,-0.672C0.662,-0.635 0.694,-0.583 0.708,-0.518L0.564,-0.491C0.554,-0.526 0.535,-0.554 0.508,-0.574C0.48,-0.594 0.445,-0.604 0.403,-0.604C0.34,-0.604 0.29,-0.584 0.253,-0.544C0.215,-0.504 0.197,-0.445 0.197,-0.366C0.197,-0.281 0.216,-0.218 0.253,-0.175C0.291,-0.133 0.341,-0.111 0.402,-0.111C0.432,-0.111 0.462,-0.117 0.493,-0.129C0.523,-0.141 0.549,-0.155 0.571,-0.172L0.571,-0.263L0.406,-0.263Z" style="fill:white;fill-rule:nonzero;"/>
            </g>
            <g transform="matrix(18,0,0,18,-101.593125,0)">
                <path d="M0.718,-0L0.561,-0L0.499,-0.163L0.212,-0.163L0.153,-0L0,-0L0.279,-0.716L0.432,-0.716L0.718,-0ZM0.452,-0.283L0.354,-0.549L0.257,-0.283L0.452,-0.283Z" style="fill:white;fill-rule:nonzero;"/>
            </g>
            <g transform="matrix(18,0,0,18,-83.901094,0)">
                <path d="M0.706,-0.087L0.623,0.019C0.582,-0.001 0.543,-0.029 0.506,-0.063C0.477,-0.037 0.446,-0.018 0.414,-0.006C0.381,0.007 0.342,0.013 0.297,0.013C0.208,0.013 0.141,-0.012 0.096,-0.062C0.061,-0.101 0.044,-0.146 0.044,-0.196C0.044,-0.242 0.058,-0.283 0.085,-0.32C0.112,-0.357 0.153,-0.389 0.208,-0.416C0.183,-0.444 0.165,-0.472 0.152,-0.498C0.14,-0.524 0.134,-0.549 0.134,-0.573C0.134,-0.616 0.151,-0.653 0.186,-0.683C0.22,-0.713 0.27,-0.728 0.334,-0.728C0.396,-0.728 0.444,-0.712 0.479,-0.681C0.514,-0.649 0.531,-0.611 0.531,-0.565C0.531,-0.536 0.523,-0.508 0.505,-0.482C0.488,-0.456 0.453,-0.427 0.401,-0.394L0.5,-0.263C0.512,-0.284 0.522,-0.311 0.531,-0.344L0.655,-0.316C0.642,-0.272 0.632,-0.24 0.623,-0.219C0.613,-0.199 0.604,-0.182 0.593,-0.168C0.609,-0.154 0.628,-0.138 0.653,-0.121C0.677,-0.104 0.695,-0.093 0.706,-0.087ZM0.333,-0.477L0.37,-0.505C0.397,-0.526 0.411,-0.547 0.411,-0.568C0.411,-0.585 0.404,-0.6 0.391,-0.613C0.378,-0.625 0.36,-0.631 0.337,-0.631C0.316,-0.631 0.299,-0.626 0.286,-0.615C0.274,-0.604 0.268,-0.591 0.268,-0.577C0.268,-0.56 0.278,-0.54 0.299,-0.516L0.333,-0.477ZM0.279,-0.328C0.247,-0.312 0.224,-0.292 0.208,-0.27C0.192,-0.248 0.185,-0.225 0.185,-0.201C0.185,-0.172 0.194,-0.147 0.214,-0.129C0.233,-0.11 0.259,-0.101 0.292,-0.101C0.313,-0.101 0.334,-0.105 0.354,-0.113C0.373,-0.122 0.395,-0.136 0.418,-0.155L0.279,-0.328Z" style="fill:white;fill-rule:nonzero;"/>
            </g>
            <g transform="matrix(18,0,0,18,-65.541094,0)">
                <path d="M0.071,-0L0.071,-0.716L0.287,-0.716L0.417,-0.228L0.545,-0.716L0.762,-0.716L0.762,-0L0.628,-0L0.628,-0.563L0.486,-0L0.347,-0L0.205,-0.563L0.205,-0L0.071,-0Z" style="fill:white;fill-rule:nonzero;"/>
            </g>
            <g transform="matrix(18,0,0,18,-50.366953,0)">
                <path d="M0.531,-0.263L0.671,-0.219C0.649,-0.141 0.614,-0.083 0.564,-0.045C0.514,-0.007 0.45,0.012 0.374,0.012C0.278,0.012 0.2,-0.02 0.139,-0.085C0.078,-0.15 0.047,-0.239 0.047,-0.352C0.047,-0.471 0.078,-0.563 0.14,-0.629C0.201,-0.695 0.282,-0.728 0.382,-0.728C0.47,-0.728 0.541,-0.702 0.596,-0.65C0.628,-0.62 0.653,-0.576 0.669,-0.519L0.526,-0.484C0.517,-0.521 0.5,-0.551 0.473,-0.572C0.446,-0.594 0.413,-0.604 0.375,-0.604C0.322,-0.604 0.279,-0.585 0.246,-0.547C0.213,-0.509 0.196,-0.448 0.196,-0.362C0.196,-0.272 0.213,-0.207 0.245,-0.169C0.278,-0.131 0.32,-0.111 0.372,-0.111C0.41,-0.111 0.444,-0.124 0.471,-0.148C0.499,-0.172 0.519,-0.211 0.531,-0.263Z" style="fill:white;fill-rule:nonzero;"/>
            </g>
            <g transform="matrix(18,0,0,18,-37.18793,0)">
                <path d="M0.507,-0.541L0.375,-0.526C0.371,-0.553 0.363,-0.573 0.349,-0.586C0.335,-0.599 0.318,-0.606 0.296,-0.606C0.267,-0.606 0.242,-0.593 0.222,-0.567C0.202,-0.541 0.19,-0.487 0.185,-0.404C0.219,-0.445 0.261,-0.465 0.312,-0.465C0.369,-0.465 0.418,-0.443 0.459,-0.399C0.5,-0.356 0.521,-0.299 0.521,-0.23C0.521,-0.157 0.499,-0.098 0.456,-0.054C0.413,-0.01 0.358,0.012 0.291,0.012C0.218,0.012 0.159,-0.016 0.112,-0.072C0.066,-0.128 0.042,-0.22 0.042,-0.348C0.042,-0.479 0.067,-0.574 0.115,-0.632C0.164,-0.69 0.227,-0.719 0.304,-0.719C0.359,-0.719 0.404,-0.704 0.439,-0.673C0.475,-0.643 0.498,-0.598 0.507,-0.541ZM0.196,-0.241C0.196,-0.197 0.207,-0.162 0.227,-0.138C0.248,-0.114 0.271,-0.102 0.297,-0.102C0.323,-0.102 0.344,-0.111 0.361,-0.131C0.378,-0.151 0.386,-0.184 0.386,-0.229C0.386,-0.276 0.377,-0.31 0.359,-0.331C0.341,-0.353 0.318,-0.364 0.291,-0.364C0.264,-0.364 0.242,-0.353 0.224,-0.333C0.205,-0.312 0.196,-0.282 0.196,-0.241Z" style="fill:white;fill-rule:nonzero;"/>
            </g>
            <g transform="matrix(18,0,0,18,-26.997188,0)">
                <path d="M0.16,-0.386C0.125,-0.401 0.099,-0.422 0.083,-0.448C0.067,-0.474 0.059,-0.503 0.059,-0.534C0.059,-0.588 0.077,-0.632 0.115,-0.667C0.152,-0.701 0.205,-0.719 0.273,-0.719C0.341,-0.719 0.394,-0.701 0.432,-0.667C0.469,-0.632 0.488,-0.588 0.488,-0.534C0.488,-0.501 0.48,-0.471 0.462,-0.446C0.445,-0.42 0.421,-0.4 0.39,-0.386C0.429,-0.37 0.46,-0.347 0.48,-0.316C0.501,-0.286 0.511,-0.25 0.511,-0.21C0.511,-0.144 0.49,-0.091 0.448,-0.049C0.406,-0.008 0.35,0.013 0.28,0.013C0.215,0.013 0.16,-0.004 0.117,-0.039C0.066,-0.079 0.041,-0.134 0.041,-0.205C0.041,-0.243 0.05,-0.279 0.069,-0.311C0.089,-0.344 0.119,-0.369 0.16,-0.386ZM0.188,-0.524C0.188,-0.497 0.196,-0.476 0.212,-0.46C0.227,-0.445 0.248,-0.438 0.273,-0.438C0.299,-0.438 0.32,-0.445 0.336,-0.461C0.352,-0.476 0.359,-0.498 0.359,-0.525C0.359,-0.551 0.352,-0.571 0.336,-0.587C0.321,-0.602 0.3,-0.61 0.275,-0.61C0.249,-0.61 0.228,-0.602 0.212,-0.586C0.196,-0.571 0.188,-0.55 0.188,-0.524ZM0.176,-0.218C0.176,-0.18 0.185,-0.151 0.205,-0.129C0.224,-0.108 0.248,-0.098 0.277,-0.098C0.306,-0.098 0.329,-0.108 0.348,-0.128C0.366,-0.149 0.375,-0.178 0.375,-0.216C0.375,-0.25 0.366,-0.277 0.347,-0.297C0.328,-0.317 0.304,-0.328 0.275,-0.328C0.242,-0.328 0.217,-0.316 0.2,-0.293C0.184,-0.27 0.176,-0.245 0.176,-0.218Z" style="fill:white;fill-rule:nonzero;"/>
            </g>
            <g transform="matrix(18,0,0,18,-16.806445,0)">
                <path d="M0.312,-0L0.312,-0.144L0.019,-0.144L0.019,-0.264L0.329,-0.719L0.444,-0.719L0.444,-0.265L0.533,-0.265L0.533,-0.144L0.444,-0.144L0.444,-0L0.312,-0ZM0.312,-0.265L0.312,-0.509L0.147,-0.265L0.312,-0.265Z" style="fill:white;fill-rule:nonzero;"/>
            </g>
            <g transform="matrix(18,0,0,18,-6.615703,0)">
                <path d="M0.044,-0.184L0.181,-0.198C0.185,-0.167 0.197,-0.143 0.216,-0.125C0.235,-0.107 0.257,-0.098 0.282,-0.098C0.311,-0.098 0.335,-0.109 0.355,-0.133C0.375,-0.156 0.385,-0.191 0.385,-0.238C0.385,-0.282 0.375,-0.315 0.355,-0.337C0.336,-0.359 0.31,-0.37 0.278,-0.37C0.239,-0.37 0.204,-0.352 0.172,-0.317L0.061,-0.333L0.131,-0.706L0.494,-0.706L0.494,-0.578L0.235,-0.578L0.214,-0.456C0.244,-0.471 0.276,-0.479 0.308,-0.479C0.368,-0.479 0.42,-0.457 0.462,-0.413C0.505,-0.368 0.526,-0.311 0.526,-0.24C0.526,-0.181 0.509,-0.129 0.475,-0.083C0.428,-0.019 0.363,0.012 0.281,0.012C0.215,0.012 0.161,-0.006 0.119,-0.041C0.077,-0.076 0.053,-0.124 0.044,-0.184Z" style="fill:white;fill-rule:nonzero;"/>
            </g>
            <g transform="matrix(18,0,0,18,8.756016,0)">
                <path d="M0.073,-0.716L0.359,-0.716C0.416,-0.716 0.458,-0.713 0.486,-0.709C0.514,-0.704 0.539,-0.694 0.561,-0.679C0.583,-0.664 0.601,-0.644 0.616,-0.619C0.63,-0.594 0.638,-0.567 0.638,-0.536C0.638,-0.502 0.629,-0.471 0.611,-0.443C0.593,-0.415 0.568,-0.394 0.537,-0.38C0.581,-0.368 0.614,-0.346 0.638,-0.315C0.661,-0.285 0.673,-0.249 0.673,-0.208C0.673,-0.175 0.665,-0.143 0.65,-0.113C0.635,-0.082 0.614,-0.057 0.588,-0.039C0.562,-0.02 0.53,-0.009 0.491,-0.005C0.467,-0.002 0.409,-0.001 0.317,-0L0.073,-0L0.073,-0.716ZM0.218,-0.597L0.218,-0.431L0.312,-0.431C0.369,-0.431 0.404,-0.432 0.417,-0.434C0.442,-0.437 0.462,-0.445 0.476,-0.459C0.49,-0.473 0.497,-0.492 0.497,-0.515C0.497,-0.537 0.491,-0.555 0.479,-0.569C0.467,-0.583 0.448,-0.591 0.424,-0.594C0.41,-0.596 0.369,-0.597 0.301,-0.597L0.218,-0.597ZM0.218,-0.312L0.218,-0.121L0.352,-0.121C0.404,-0.121 0.437,-0.122 0.451,-0.125C0.472,-0.129 0.49,-0.138 0.503,-0.154C0.517,-0.169 0.523,-0.189 0.523,-0.214C0.523,-0.236 0.518,-0.254 0.508,-0.269C0.497,-0.284 0.482,-0.295 0.463,-0.302C0.443,-0.309 0.4,-0.312 0.334,-0.312L0.218,-0.312Z" style="fill:white;fill-rule:nonzero;"/>
            </g>
            <g transform="matrix(18,0,0,18,21.935039,0)">
                <rect x="0.072" y="-0.716" width="0.137" height="0.716" style="fill:white;fill-rule:nonzero;"/>
            </g>
            <g transform="matrix(18,0,0,18,27.116016,0)">
                <path d="M0.072,-0.589L0.072,-0.716L0.209,-0.716L0.209,-0.589L0.072,-0.589ZM0.072,-0L0.072,-0.519L0.209,-0.519L0.209,-0L0.072,-0Z" style="fill:white;fill-rule:nonzero;"/>
            </g>
            <g transform="matrix(18,0,0,18,32.296992,0)">
                <path d="M0.543,-0L0.406,-0L0.406,-0.265C0.406,-0.321 0.403,-0.357 0.397,-0.373C0.392,-0.39 0.382,-0.403 0.369,-0.412C0.356,-0.421 0.34,-0.425 0.321,-0.425C0.298,-0.425 0.276,-0.419 0.257,-0.406C0.238,-0.393 0.226,-0.375 0.219,-0.354C0.212,-0.333 0.208,-0.293 0.208,-0.235L0.208,-0L0.071,-0L0.071,-0.519L0.198,-0.519L0.198,-0.442C0.243,-0.501 0.3,-0.53 0.369,-0.53C0.399,-0.53 0.427,-0.525 0.452,-0.514C0.477,-0.503 0.496,-0.489 0.509,-0.472C0.522,-0.455 0.531,-0.436 0.536,-0.415C0.541,-0.393 0.543,-0.362 0.543,-0.322L0.543,-0Z" style="fill:white;fill-rule:nonzero;"/>
            </g>
            <g transform="matrix(18,0,0,18,43.472109,0)">
                <path d="M0.067,-0L0.067,-0.716L0.204,-0.716L0.204,-0.336L0.365,-0.519L0.534,-0.519L0.356,-0.329L0.546,-0L0.398,-0L0.268,-0.233L0.204,-0.166L0.204,-0L0.067,-0Z" style="fill:white;fill-rule:nonzero;"/>
            </g>
            <g transform="matrix(18,0,0,18,58.843828,0)">
                <path d="M0.531,-0.263L0.671,-0.219C0.649,-0.141 0.614,-0.083 0.564,-0.045C0.514,-0.007 0.45,0.012 0.374,0.012C0.278,0.012 0.2,-0.02 0.139,-0.085C0.078,-0.15 0.047,-0.239 0.047,-0.352C0.047,-0.471 0.078,-0.563 0.14,-0.629C0.201,-0.695 0.282,-0.728 0.382,-0.728C0.47,-0.728 0.541,-0.702 0.596,-0.65C0.628,-0.62 0.653,-0.576 0.669,-0.519L0.526,-0.484C0.517,-0.521 0.5,-0.551 0.473,-0.572C0.446,-0.594 0.413,-0.604 0.375,-0.604C0.322,-0.604 0.279,-0.585 0.246,-0.547C0.213,-0.509 0.196,-0.448 0.196,-0.362C0.196,-0.272 0.213,-0.207 0.245,-0.169C0.278,-0.131 0.32,-0.111 0.372,-0.111C0.41,-0.111 0.444,-0.124 0.471,-0.148C0.499,-0.172 0.519,-0.211 0.531,-0.263Z" style="fill:white;fill-rule:nonzero;"/>
            </g>
            <g transform="matrix(18,0,0,18,72.022852,0)">
                <path d="M0.04,-0.267C0.04,-0.312 0.051,-0.356 0.074,-0.399C0.096,-0.442 0.128,-0.474 0.169,-0.497C0.21,-0.519 0.256,-0.53 0.307,-0.53C0.386,-0.53 0.45,-0.505 0.5,-0.454C0.55,-0.403 0.575,-0.339 0.575,-0.261C0.575,-0.182 0.55,-0.117 0.499,-0.066C0.449,-0.014 0.385,0.012 0.308,0.012C0.261,0.012 0.215,0.001 0.172,-0.021C0.129,-0.042 0.096,-0.073 0.074,-0.115C0.051,-0.156 0.04,-0.207 0.04,-0.267ZM0.181,-0.259C0.181,-0.208 0.193,-0.168 0.217,-0.141C0.242,-0.114 0.272,-0.1 0.308,-0.1C0.343,-0.1 0.373,-0.114 0.398,-0.141C0.422,-0.168 0.434,-0.208 0.434,-0.26C0.434,-0.311 0.422,-0.35 0.398,-0.377C0.373,-0.405 0.343,-0.418 0.308,-0.418C0.272,-0.418 0.242,-0.405 0.217,-0.377C0.193,-0.35 0.181,-0.311 0.181,-0.259Z" style="fill:white;fill-rule:nonzero;"/>
            </g>
            <g transform="matrix(18,0,0,18,83.197969,0)">
                <path d="M0.072,-0.589L0.072,-0.716L0.209,-0.716L0.209,-0.589L0.072,-0.589ZM0.072,-0L0.072,-0.519L0.209,-0.519L0.209,-0L0.072,-0Z" style="fill:white;fill-rule:nonzero;"/>
            </g>
            <g transform="matrix(18,0,0,18,88.378945,0)">
                <path d="M0.543,-0L0.406,-0L0.406,-0.265C0.406,-0.321 0.403,-0.357 0.397,-0.373C0.392,-0.39 0.382,-0.403 0.369,-0.412C0.356,-0.421 0.34,-0.425 0.321,-0.425C0.298,-0.425 0.276,-0.419 0.257,-0.406C0.238,-0.393 0.226,-0.375 0.219,-0.354C0.212,-0.333 0.208,-0.293 0.208,-0.235L0.208,-0L0.071,-0L0.071,-0.519L0.198,-0.519L0.198,-0.442C0.243,-0.501 0.3,-0.53 0.369,-0.53C0.399,-0.53 0.427,-0.525 0.452,-0.514C0.477,-0.503 0.496,-0.489 0.509,-0.472C0.522,-0.455 0.531,-0.436 0.536,-0.415C0.541,-0.393 0.543,-0.362 0.543,-0.322L0.543,-0Z" style="fill:white;fill-rule:nonzero;"/>
            </g>
            <g transform="matrix(18,0,0,18,99.554062,0)">
                <path d="M0.524,-0.365L0.389,-0.341C0.384,-0.368 0.374,-0.388 0.358,-0.402C0.342,-0.416 0.321,-0.422 0.295,-0.422C0.261,-0.422 0.233,-0.411 0.213,-0.387C0.193,-0.363 0.183,-0.324 0.183,-0.269C0.183,-0.207 0.193,-0.164 0.214,-0.138C0.234,-0.113 0.262,-0.1 0.297,-0.1C0.323,-0.1 0.344,-0.108 0.361,-0.122C0.377,-0.137 0.389,-0.163 0.396,-0.199L0.531,-0.176C0.517,-0.114 0.49,-0.067 0.45,-0.036C0.41,-0.004 0.357,0.012 0.291,0.012C0.215,0.012 0.154,-0.012 0.109,-0.06C0.064,-0.108 0.042,-0.174 0.042,-0.259C0.042,-0.344 0.064,-0.411 0.109,-0.459C0.155,-0.506 0.216,-0.53 0.293,-0.53C0.356,-0.53 0.406,-0.517 0.444,-0.49C0.481,-0.462 0.508,-0.421 0.524,-0.365Z" style="fill:white;fill-rule:nonzero;"/>
            </g>
            <g transform="matrix(18,0,0,18,109.744805,0)">
                <path d="M0.072,-0.589L0.072,-0.716L0.209,-0.716L0.209,-0.589L0.072,-0.589ZM0.072,-0L0.072,-0.519L0.209,-0.519L0.209,-0L0.072,-0Z" style="fill:white;fill-rule:nonzero;"/>
            </g>
            <g transform="matrix(18,0,0,18,114.925781,0)">
                <path d="M0.547,-0L0.42,-0L0.42,-0.076C0.399,-0.047 0.374,-0.024 0.345,-0.01C0.316,0.004 0.287,0.012 0.258,0.012C0.198,0.012 0.147,-0.012 0.105,-0.06C0.062,-0.108 0.041,-0.175 0.041,-0.261C0.041,-0.349 0.062,-0.416 0.103,-0.462C0.144,-0.507 0.197,-0.53 0.26,-0.53C0.318,-0.53 0.368,-0.506 0.41,-0.458L0.41,-0.716L0.547,-0.716L0.547,-0ZM0.181,-0.271C0.181,-0.215 0.189,-0.175 0.204,-0.15C0.226,-0.115 0.257,-0.097 0.297,-0.097C0.328,-0.097 0.355,-0.11 0.377,-0.137C0.4,-0.164 0.411,-0.204 0.411,-0.257C0.411,-0.317 0.4,-0.36 0.378,-0.386C0.357,-0.412 0.329,-0.425 0.296,-0.425C0.263,-0.425 0.236,-0.412 0.214,-0.386C0.192,-0.361 0.181,-0.322 0.181,-0.271Z" style="fill:white;fill-rule:nonzero;"/>
            </g>
            <g transform="matrix(18,0,0,18,126.100898,0)">
                <path d="M0.372,-0.165L0.509,-0.142C0.491,-0.092 0.463,-0.054 0.426,-0.028C0.388,-0.001 0.34,0.012 0.283,0.012C0.193,0.012 0.126,-0.018 0.083,-0.077C0.049,-0.124 0.032,-0.183 0.032,-0.255C0.032,-0.341 0.054,-0.409 0.099,-0.457C0.144,-0.506 0.201,-0.53 0.27,-0.53C0.347,-0.53 0.408,-0.505 0.452,-0.454C0.497,-0.403 0.518,-0.325 0.516,-0.22L0.172,-0.22C0.173,-0.179 0.184,-0.147 0.206,-0.125C0.227,-0.102 0.253,-0.091 0.285,-0.091C0.306,-0.091 0.324,-0.097 0.339,-0.108C0.354,-0.12 0.365,-0.139 0.372,-0.165ZM0.38,-0.304C0.379,-0.343 0.369,-0.374 0.349,-0.394C0.33,-0.415 0.306,-0.425 0.278,-0.425C0.248,-0.425 0.223,-0.414 0.204,-0.393C0.184,-0.371 0.174,-0.341 0.175,-0.304L0.38,-0.304Z" style="fill:white;fill-rule:nonzero;"/>
            </g>
            <g transform="matrix(18,0,0,18,136.291641,0)">
                <path d="M0.543,-0L0.406,-0L0.406,-0.265C0.406,-0.321 0.403,-0.357 0.397,-0.373C0.392,-0.39 0.382,-0.403 0.369,-0.412C0.356,-0.421 0.34,-0.425 0.321,-0.425C0.298,-0.425 0.276,-0.419 0.257,-0.406C0.238,-0.393 0.226,-0.375 0.219,-0.354C0.212,-0.333 0.208,-0.293 0.208,-0.235L0.208,-0L0.071,-0L0.071,-0.519L0.198,-0.519L0.198,-0.442C0.243,-0.501 0.3,-0.53 0.369,-0.53C0.399,-0.53 0.427,-0.525 0.452,-0.514C0.477,-0.503 0.496,-0.489 0.509,-0.472C0.522,-0.455 0.531,-0.436 0.536,-0.415C0.541,-0.393 0.543,-0.362 0.543,-0.322L0.543,-0Z" style="fill:white;fill-rule:nonzero;"/>
            </g>
            <g transform="matrix(18,0,0,18,147.466758,0)">
                <path d="M0.524,-0.365L0.389,-0.341C0.384,-0.368 0.374,-0.388 0.358,-0.402C0.342,-0.416 0.321,-0.422 0.295,-0.422C0.261,-0.422 0.233,-0.411 0.213,-0.387C0.193,-0.363 0.183,-0.324 0.183,-0.269C0.183,-0.207 0.193,-0.164 0.214,-0.138C0.234,-0.113 0.262,-0.1 0.297,-0.1C0.323,-0.1 0.344,-0.108 0.361,-0.122C0.377,-0.137 0.389,-0.163 0.396,-0.199L0.531,-0.176C0.517,-0.114 0.49,-0.067 0.45,-0.036C0.41,-0.004 0.357,0.012 0.291,0.012C0.215,0.012 0.154,-0.012 0.109,-0.06C0.064,-0.108 0.042,-0.174 0.042,-0.259C0.042,-0.344 0.064,-0.411 0.109,-0.459C0.155,-0.506 0.216,-0.53 0.293,-0.53C0.356,-0.53 0.406,-0.517 0.444,-0.49C0.481,-0.462 0.508,-0.421 0.524,-0.365Z" style="fill:white;fill-rule:nonzero;"/>
            </g>
            <g transform="matrix(18,0,0,18,157.6575,0)">
                <path d="M0.372,-0.165L0.509,-0.142C0.491,-0.092 0.463,-0.054 0.426,-0.028C0.388,-0.001 0.34,0.012 0.283,0.012C0.193,0.012 0.126,-0.018 0.083,-0.077C0.049,-0.124 0.032,-0.183 0.032,-0.255C0.032,-0.341 0.054,-0.409 0.099,-0.457C0.144,-0.506 0.201,-0.53 0.27,-0.53C0.347,-0.53 0.408,-0.505 0.452,-0.454C0.497,-0.403 0.518,-0.325 0.516,-0.22L0.172,-0.22C0.173,-0.179 0.184,-0.147 0.206,-0.125C0.227,-0.102 0.253,-0.091 0.285,-0.091C0.306,-0.091 0.324,-0.097 0.339,-0.108C0.354,-0.12 0.365,-0.139 0.372,-0.165ZM0.38,-0.304C0.379,-0.343 0.369,-0.374 0.349,-0.394C0.33,-0.415 0.306,-0.425 0.278,-0.425C0.248,-0.425 0.223,-0.414 0.204,-0.393C0.184,-0.371 0.174,-0.341 0.175,-0.304L0.38,-0.304Z" style="fill:white;fill-rule:nonzero;"/>
            </g>
        </g>
    </g>
    <g>
        <path d="M50,40L50,370M100,40L100,370M150,40L150,370M200,40L200,370M250,40L250,370M300,40L300,370M350,40L350,370M400,40L400,370M450,40L450,370M500,40L500,370M550,40L550,370M600,40L600,370M650,40L650,370M700,40L700,370M750,40L750,370" style="fill-rule:nonzero;stroke:rgb(51,56,66);stroke-width:1px;stroke-dasharray:4,4;"/>
    </g>
    <g>
        <g transform="matrix(1,0,0,1,35,64)">
            <g transform="matrix(12,0,0,12,-6.597656,0)">
                <path d="M0.487,-0L0.086,-0L0.086,-0.079L0.25,-0.079L0.25,-0.545L0.097,-0.462L0.066,-0.534L0.269,-0.641L0.344,-0.641L0.344,-0.079L0.487,-0.079L0.487,-0Z" style="fill:rgb(122,130,148);fill-rule:nonzero;"/>
            </g>
        </g>
        <g transform="matrix(1,0,0,1,35,104)">
            <g transform="matrix(12,0,0,12,-6.597656,0)">
                <path d="M0.507,-0.319C0.507,-0.27 0.502,-0.226 0.492,-0.185C0.482,-0.145 0.468,-0.111 0.448,-0.082C0.428,-0.053 0.403,-0.031 0.374,-0.015C0.344,0.001 0.31,0.009 0.27,0.009C0.236,0.009 0.205,0.002 0.177,-0.01C0.149,-0.023 0.125,-0.043 0.105,-0.07C0.085,-0.097 0.07,-0.131 0.059,-0.172C0.048,-0.213 0.043,-0.262 0.043,-0.319C0.043,-0.368 0.048,-0.412 0.058,-0.453C0.068,-0.493 0.083,-0.528 0.102,-0.556C0.122,-0.585 0.147,-0.608 0.176,-0.623C0.206,-0.639 0.24,-0.647 0.28,-0.647C0.314,-0.647 0.345,-0.641 0.373,-0.628C0.401,-0.615 0.425,-0.595 0.445,-0.568C0.465,-0.541 0.48,-0.507 0.491,-0.466C0.501,-0.424 0.507,-0.375 0.507,-0.319ZM0.421,-0.316C0.421,-0.327 0.42,-0.338 0.42,-0.349C0.419,-0.36 0.418,-0.37 0.417,-0.381L0.147,-0.18C0.152,-0.163 0.158,-0.148 0.166,-0.133C0.173,-0.119 0.182,-0.107 0.193,-0.096C0.203,-0.086 0.215,-0.078 0.229,-0.073C0.242,-0.067 0.258,-0.064 0.275,-0.064C0.297,-0.064 0.317,-0.069 0.335,-0.08C0.353,-0.091 0.369,-0.107 0.381,-0.128C0.394,-0.149 0.404,-0.175 0.411,-0.207C0.417,-0.238 0.421,-0.275 0.421,-0.316ZM0.129,-0.322C0.129,-0.312 0.129,-0.302 0.129,-0.292C0.129,-0.281 0.13,-0.272 0.131,-0.262L0.401,-0.462C0.396,-0.479 0.39,-0.494 0.382,-0.507C0.375,-0.521 0.366,-0.533 0.355,-0.543C0.345,-0.553 0.333,-0.56 0.32,-0.566C0.306,-0.571 0.292,-0.574 0.275,-0.574C0.253,-0.574 0.233,-0.569 0.215,-0.558C0.197,-0.547 0.181,-0.531 0.168,-0.51C0.156,-0.489 0.146,-0.462 0.139,-0.431C0.132,-0.399 0.129,-0.363 0.129,-0.322Z" style="fill:rgb(122,130,148);fill-rule:nonzero;"/>
            </g>
        </g>
        <g transform="matrix(1,0,0,1,35,184)">
            <g transform="matrix(12,0,0,12,-6.597656,0)">
                <path d="M0.487,-0L0.086,-0L0.086,-0.079L0.25,-0.079L0.25,-0.545L0.097,-0.462L0.066,-0.534L0.269,-0.641L0.344,-0.641L0.344,-0.079L0.487,-0.079L0.487,-0Z" style="fill:rgb(122,130,148);fill-rule:nonzero;"/>
            </g>
        </g>
        <g transform="matrix(1,0,0,1,35,224)">
            <g transform="matrix(12,0,0,12,-6.597656,0)">
                <path d="M0.507,-0.319C0.507,-0.27 0.502,-0.226 0.492,-0.185C0.482,-0.145 0.468,-0.111 0.448,-0.082C0.428,-0.053 0.403,-0.031 0.374,-0.015C0.344,0.001 0.31,0.009 0.27,0.009C0.236,0.009 0.205,0.002 0.177,-0.01C0.149,-0.023 0.125,-0.043 0.105,-0.07C0.085,-0.097 0.07,-0.131 0.059,-0.172C0.048,-0.213 0.043,-0.262 0.043,-0.319C0.043,-0.368 0.048,-0.412 0.058,-0.453C0.068,-0.493 0.083,-0.528 0.102,-0.556C0.122,-0.585 0.147,-0.608 0.176,-0.623C0.206,-0.639 0.24,-0.647 0.28,-0.647C0.314,-0.647 0.345,-0.641 0.373,-0.628C0.401,-0.615 0.425,-0.595 0.445,-0.568C0.465,-0.541 0.48,-0.507 0.491,-0.466C0.501,-0.424 0.507,-0.375 0.507,-0.319ZM0.421,-0.316C0.421,-0.327 0.42,-0.338 0.42,-0.349C0.419,-0.36 0.418,-0.37 0.417,-0.381L0.147,-0.18C0.152,-0.163 0.158,-0.148 0.166,-0.133C0.173,-0.119 0.182,-0.107 0.193,-0.096C0.203,-0.086 0.215,-0.078 0.229,-0.073C0.242,-0.067 0.258,-0.064 0.275,-0.064C0.297,-0.064 0.317,-0.069 0.335,-0.08C0.353,-0.091 0.369,-0.107 0.381,-0.128C0.394,-0.149 0.404,-0.175 0.411,-0.207C0.417,-0.238 0.421,-0.275 0.421,-0.316ZM0.129,-0.322C0.129,-0.312 0.129,-0.302 0.129,-0.292C0.129,-0.281 0.13,-0.272 0.131,-0.262L0.401,-0.462C0.396,-0.479 0.39,-0.494 0.382,-0.507C0.375,-0.521 0.366,-0.533 0.355,-0.543C0.345,-0.553 0.333,-0.56 0.32,-0.566C0.306,-0.571 0.292,-0.574 0.275,-0.574C0.253,-0.574 0.233,-0.569 0.215,-0.558C0.197,-0.547 0.181,-0.531 0.168,-0.51C0.156,-0.489 0.146,-0.462 0.139,-0.431C0.132,-0.399 0.129,-0.363 0.129,-0.322Z" style="fill:rgb(122,130,148);fill-rule:nonzero;"/>
            </g>
        </g>
        <g transform="matrix(1,0,0,1,35,304)">
            <g transform="matrix(12,0,0,12,-6.597656,0)">
                <path d="M0.487,-0L0.086,-0L0.086,-0.079L0.25,-0.079L0.25,-0.545L0.097,-0.462L0.066,-0.534L0.269,-0.641L0.344,-0.641L0.344,-0.079L0.487,-0.079L0.487,-0Z" style="fill:rgb(122,130,148);fill-rule:nonzero;"/>
            </g>
        </g>
        <g transform="matrix(1,0,0,1,35,344)">
            <g transform="matrix(12,0,0,12,-6.597656,0)">
                <path d="M0.507,-0.319C0.507,-0.27 0.502,-0.226 0.492,-0.185C0.482,-0.145 0.468,-0.111 0.448,-0.082C0.428,-0.053 0.403,-0.031 0.374,-0.015C0.344,0.001 0.31,0.009 0.27,0.009C0.236,0.009 0.205,0.002 0.177,-0.01C0.149,-0.023 0.125,-0.043 0.105,-0.07C0.085,-0.097 0.07,-0.131 0.059,-0.172C0.048,-0.213 0.043,-0.262 0.043,-0.319C0.043,-0.368 0.048,-0.412 0.058,-0.453C0.068,-0.493 0.083,-0.528 0.102,-0.556C0.122,-0.585 0.147,-0.608 0.176,-0.623C0.206,-0.639 0.24,-0.647 0.28,-0.647C0.314,-0.647 0.345,-0.641 0.373,-0.628C0.401,-0.615 0.425,-0.595 0.445,-0.568C0.465,-0.541 0.48,-0.507 0.491,-0.466C0.501,-0.424 0.507,-0.375 0.507,-0.319ZM0.421,-0.316C0.421,-0.327 0.42,-0.338 0.42,-0.349C0.419,-0.36 0.418,-0.37 0.417,-0.381L0.147,-0.18C0.152,-0.163 0.158,-0.148 0.166,-0.133C0.173,-0.119 0.182,-0.107 0.193,-0.096C0.203,-0.086 0.215,-0.078 0.229,-0.073C0.242,-0.067 0.258,-0.064 0.275,-0.064C0.297,-0.064 0.317,-0.069 0.335,-0.08C0.353,-0.091 0.369,-0.107 0.381,-0.128C0.394,-0.149 0.404,-0.175 0.411,-0.207C0.417,-0.238 0.421,-0.275 0.421,-0.316ZM0.129,-0.322C0.129,-0.312 0.129,-0.302 0.129,-0.292C0.129,-0.281 0.13,-0.272 0.131,-0.262L0.401,-0.462C0.396,-0.479 0.39,-0.494 0.382,-0.507C0.375,-0.521 0.366,-0.533 0.355,-0.543C0.345,-0.553 0.333,-0.56 0.32,-0.566C0.306,-0.571 0.292,-0.574 0.275,-0.574C0.253,-0.574 0.233,-0.569 0.215,-0.558C0.197,-0.547 0.181,-0.531 0.168,-0.51C0.156,-0.489 0.146,-0.462 0.139,-0.431C0.132,-0.399 0.129,-0.363 0.129,-0.322Z" style="fill:rgb(122,130,148);fill-rule:nonzero;"/>
            </g>
        </g>
    </g>
    <g>
        <g transform="matrix(1,0,0,1,50,45)">
            <g>
                <g transform="matrix(14,0,0,14,0,0)">
                    <path d="M0.486,-0.024C0.435,-0.003 0.381,0.008 0.325,0.008C0.235,0.008 0.166,-0.019 0.117,-0.073C0.069,-0.127 0.045,-0.207 0.045,-0.312C0.045,-0.363 0.052,-0.409 0.065,-0.451C0.078,-0.492 0.097,-0.527 0.122,-0.556C0.147,-0.585 0.177,-0.607 0.212,-0.623C0.247,-0.638 0.286,-0.646 0.33,-0.646C0.36,-0.646 0.387,-0.643 0.413,-0.638C0.438,-0.633 0.462,-0.626 0.486,-0.615L0.486,-0.53C0.463,-0.542 0.439,-0.552 0.414,-0.559C0.389,-0.566 0.362,-0.569 0.333,-0.569C0.303,-0.569 0.276,-0.563 0.252,-0.552C0.227,-0.541 0.207,-0.524 0.19,-0.503C0.173,-0.482 0.16,-0.456 0.151,-0.425C0.142,-0.394 0.137,-0.359 0.137,-0.32C0.137,-0.237 0.154,-0.175 0.188,-0.133C0.221,-0.091 0.27,-0.07 0.335,-0.07C0.362,-0.07 0.389,-0.073 0.414,-0.079C0.439,-0.086 0.463,-0.095 0.486,-0.106L0.486,-0.024Z" style="fill:rgb(74,222,128);fill-rule:nonzero;"/>
                </g>
                <g transform="matrix(14,0,0,14,7.697266,0)">
                    <path d="M0.491,-0.529C0.467,-0.542 0.443,-0.551 0.418,-0.558C0.393,-0.565 0.366,-0.569 0.336,-0.569C0.302,-0.569 0.272,-0.563 0.246,-0.551C0.219,-0.539 0.197,-0.522 0.179,-0.5C0.161,-0.478 0.147,-0.451 0.137,-0.42C0.128,-0.389 0.123,-0.355 0.123,-0.318C0.123,-0.279 0.127,-0.244 0.135,-0.213C0.143,-0.182 0.155,-0.156 0.171,-0.134C0.188,-0.113 0.209,-0.096 0.235,-0.085C0.261,-0.074 0.292,-0.068 0.328,-0.068C0.334,-0.068 0.341,-0.068 0.348,-0.069C0.355,-0.069 0.362,-0.07 0.37,-0.072C0.377,-0.073 0.384,-0.074 0.39,-0.076C0.397,-0.077 0.403,-0.079 0.408,-0.081L0.408,-0.284L0.278,-0.284L0.278,-0.356L0.494,-0.356L0.494,-0.03C0.481,-0.024 0.467,-0.018 0.452,-0.013C0.437,-0.008 0.422,-0.004 0.406,-0.001C0.391,0.002 0.376,0.005 0.36,0.006C0.345,0.008 0.33,0.009 0.316,0.009C0.272,0.009 0.233,0.002 0.198,-0.012C0.163,-0.025 0.133,-0.046 0.109,-0.073C0.084,-0.099 0.065,-0.133 0.052,-0.173C0.039,-0.213 0.032,-0.259 0.032,-0.312C0.032,-0.364 0.04,-0.411 0.054,-0.453C0.069,-0.494 0.089,-0.53 0.116,-0.558C0.142,-0.587 0.174,-0.609 0.212,-0.624C0.249,-0.639 0.29,-0.647 0.335,-0.647C0.364,-0.647 0.391,-0.644 0.417,-0.639C0.443,-0.634 0.467,-0.626 0.491,-0.615L0.491,-0.529Z" style="fill:rgb(74,222,128);fill-rule:nonzero;"/>
                </g>
                <g transform="matrix(14,0,0,14,15.394531,0)">
                    <path d="M0.545,-0L0.45,-0L0.406,-0.139L0.14,-0.139L0.095,-0L0.005,-0L0.217,-0.638L0.336,-0.638L0.545,-0ZM0.381,-0.217L0.273,-0.558L0.165,-0.217L0.381,-0.217Z" style="fill:rgb(74,222,128);fill-rule:nonzero;"/>
                </g>
                <g transform="matrix(14,0,0,14,30.789062,0)">
                    <path d="M0.486,-0.024C0.435,-0.003 0.381,0.008 0.325,0.008C0.235,0.008 0.166,-0.019 0.117,-0.073C0.069,-0.127 0.045,-0.207 0.045,-0.312C0.045,-0.363 0.052,-0.409 0.065,-0.451C0.078,-0.492 0.097,-0.527 0.122,-0.556C0.147,-0.585 0.177,-0.607 0.212,-0.623C0.247,-0.638 0.286,-0.646 0.33,-0.646C0.36,-0.646 0.387,-0.643 0.413,-0.638C0.438,-0.633 0.462,-0.626 0.486,-0.615L0.486,-0.53C0.463,-0.542 0.439,-0.552 0.414,-0.559C0.389,-0.566 0.362,-0.569 0.333,-0.569C0.303,-0.569 0.276,-0.563 0.252,-0.552C0.227,-0.541 0.207,-0.524 0.19,-0.503C0.173,-0.482 0.16,-0.456 0.151,-0.425C0.142,-0.394 0.137,-0.359 0.137,-0.32C0.137,-0.237 0.154,-0.175 0.188,-0.133C0.221,-0.091 0.27,-0.07 0.335,-0.07C0.362,-0.07 0.389,-0.073 0.414,-0.079C0.439,-0.086 0.463,-0.095 0.486,-0.106L0.486,-0.024Z" style="fill:rgb(74,222,128);fill-rule:nonzero;"/>
                </g>
                <g transform="matrix(14,0,0,14,38.486328,0)">
                    <path d="M0.497,-0.222C0.497,-0.187 0.492,-0.155 0.482,-0.127C0.472,-0.098 0.458,-0.074 0.438,-0.054C0.419,-0.034 0.396,-0.018 0.368,-0.008C0.34,0.003 0.308,0.009 0.272,0.009C0.232,0.009 0.199,0.004 0.171,-0.007C0.143,-0.017 0.121,-0.032 0.103,-0.051C0.086,-0.07 0.073,-0.093 0.065,-0.12C0.057,-0.146 0.053,-0.176 0.053,-0.209L0.053,-0.638L0.14,-0.638L0.14,-0.216C0.14,-0.191 0.142,-0.169 0.147,-0.15C0.152,-0.131 0.16,-0.115 0.17,-0.103C0.181,-0.09 0.195,-0.08 0.212,-0.074C0.229,-0.067 0.25,-0.064 0.275,-0.064C0.321,-0.064 0.355,-0.077 0.377,-0.104C0.399,-0.131 0.41,-0.168 0.41,-0.217L0.41,-0.638L0.497,-0.638L0.497,-0.222Z" style="fill:rgb(74,222,128);fill-rule:nonzero;"/>
                </g>
                <g transform="matrix(14,0,0,14,46.183594,0)">
                    <path d="M0.513,-0L0.415,-0L0.32,-0.204C0.313,-0.22 0.305,-0.233 0.298,-0.243C0.29,-0.253 0.282,-0.261 0.274,-0.267C0.265,-0.273 0.256,-0.278 0.245,-0.28C0.235,-0.283 0.224,-0.284 0.211,-0.284L0.17,-0.284L0.17,-0L0.083,-0L0.083,-0.638L0.254,-0.638C0.291,-0.638 0.323,-0.634 0.35,-0.626C0.376,-0.618 0.398,-0.606 0.415,-0.592C0.432,-0.577 0.445,-0.559 0.453,-0.539C0.461,-0.518 0.465,-0.495 0.465,-0.47C0.465,-0.45 0.462,-0.432 0.456,-0.414C0.45,-0.396 0.441,-0.38 0.43,-0.365C0.418,-0.351 0.404,-0.338 0.387,-0.328C0.37,-0.317 0.35,-0.309 0.328,-0.304C0.346,-0.298 0.361,-0.287 0.374,-0.272C0.386,-0.256 0.399,-0.236 0.412,-0.21L0.513,-0ZM0.374,-0.463C0.374,-0.497 0.363,-0.523 0.342,-0.54C0.321,-0.556 0.291,-0.565 0.252,-0.565L0.17,-0.565L0.17,-0.354L0.24,-0.354C0.261,-0.354 0.279,-0.356 0.296,-0.361C0.312,-0.366 0.326,-0.373 0.338,-0.382C0.349,-0.391 0.358,-0.403 0.365,-0.416C0.371,-0.43 0.374,-0.445 0.374,-0.463Z" style="fill:rgb(74,222,128);fill-rule:nonzero;"/>
                </g>
                <g transform="matrix(14,0,0,14,53.880859,0)">
                    <path d="M0.487,-0.173C0.487,-0.143 0.481,-0.116 0.468,-0.093C0.456,-0.07 0.439,-0.052 0.417,-0.036C0.394,-0.021 0.368,-0.01 0.337,-0.002C0.306,0.005 0.271,0.009 0.234,0.009C0.217,0.009 0.2,0.008 0.183,0.007C0.167,0.006 0.15,0.004 0.135,0.002C0.12,0 0.105,-0.002 0.091,-0.005C0.078,-0.007 0.065,-0.01 0.054,-0.013L0.054,-0.097C0.079,-0.088 0.106,-0.081 0.136,-0.076C0.167,-0.07 0.201,-0.068 0.24,-0.068C0.268,-0.068 0.292,-0.07 0.312,-0.074C0.331,-0.079 0.348,-0.085 0.36,-0.094C0.373,-0.103 0.382,-0.113 0.387,-0.125C0.393,-0.138 0.396,-0.152 0.396,-0.168C0.396,-0.185 0.391,-0.2 0.382,-0.212C0.372,-0.224 0.359,-0.235 0.344,-0.245C0.328,-0.254 0.31,-0.263 0.29,-0.271C0.27,-0.279 0.25,-0.287 0.229,-0.296C0.208,-0.304 0.188,-0.314 0.168,-0.323C0.148,-0.333 0.13,-0.345 0.114,-0.359C0.099,-0.372 0.086,-0.388 0.076,-0.406C0.067,-0.424 0.062,-0.446 0.062,-0.471C0.062,-0.493 0.067,-0.514 0.076,-0.536C0.085,-0.557 0.099,-0.576 0.118,-0.592C0.137,-0.608 0.162,-0.622 0.192,-0.632C0.222,-0.642 0.258,-0.647 0.3,-0.647C0.311,-0.647 0.322,-0.646 0.335,-0.646C0.347,-0.645 0.36,-0.643 0.373,-0.641C0.386,-0.64 0.398,-0.638 0.411,-0.635C0.423,-0.633 0.435,-0.631 0.446,-0.628L0.446,-0.55C0.421,-0.557 0.396,-0.562 0.371,-0.566C0.346,-0.57 0.321,-0.572 0.298,-0.572C0.248,-0.572 0.211,-0.563 0.188,-0.547C0.165,-0.53 0.153,-0.508 0.153,-0.48C0.153,-0.463 0.158,-0.448 0.167,-0.436C0.177,-0.423 0.189,-0.412 0.205,-0.402C0.221,-0.393 0.239,-0.384 0.259,-0.376C0.279,-0.368 0.299,-0.36 0.32,-0.351C0.341,-0.343 0.361,-0.333 0.381,-0.323C0.401,-0.313 0.419,-0.301 0.435,-0.287C0.45,-0.274 0.463,-0.257 0.472,-0.239C0.482,-0.22 0.487,-0.198 0.487,-0.173Z" style="fill:rgb(74,222,128);fill-rule:nonzero;"/>
                </g>
                <g transform="matrix(14,0,0,14,61.578125,0)">
                    <path d="M0.523,-0.323C0.523,-0.266 0.516,-0.216 0.503,-0.175C0.489,-0.133 0.471,-0.099 0.448,-0.072C0.425,-0.044 0.398,-0.024 0.367,-0.011C0.337,0.002 0.304,0.009 0.27,0.009C0.229,0.009 0.193,0.001 0.163,-0.013C0.132,-0.028 0.107,-0.05 0.087,-0.078C0.067,-0.106 0.052,-0.14 0.042,-0.18C0.033,-0.22 0.028,-0.265 0.028,-0.316C0.028,-0.373 0.035,-0.422 0.048,-0.463C0.061,-0.505 0.079,-0.539 0.102,-0.567C0.125,-0.594 0.152,-0.614 0.183,-0.627C0.213,-0.64 0.246,-0.647 0.28,-0.647C0.321,-0.647 0.357,-0.639 0.387,-0.625C0.417,-0.61 0.443,-0.588 0.463,-0.56C0.483,-0.532 0.498,-0.499 0.508,-0.458C0.518,-0.418 0.523,-0.373 0.523,-0.323ZM0.433,-0.317C0.433,-0.354 0.43,-0.389 0.424,-0.42C0.418,-0.451 0.409,-0.478 0.396,-0.5C0.384,-0.522 0.367,-0.54 0.347,-0.552C0.327,-0.565 0.303,-0.571 0.275,-0.571C0.248,-0.571 0.224,-0.564 0.204,-0.551C0.185,-0.538 0.168,-0.52 0.156,-0.497C0.143,-0.475 0.134,-0.448 0.127,-0.418C0.121,-0.387 0.118,-0.355 0.118,-0.321C0.118,-0.283 0.121,-0.249 0.127,-0.218C0.133,-0.186 0.142,-0.16 0.155,-0.137C0.167,-0.115 0.183,-0.098 0.203,-0.085C0.223,-0.073 0.247,-0.067 0.275,-0.067C0.302,-0.067 0.326,-0.073 0.346,-0.087C0.366,-0.1 0.382,-0.118 0.395,-0.14C0.408,-0.163 0.417,-0.189 0.423,-0.22C0.43,-0.25 0.433,-0.282 0.433,-0.317Z" style="fill:rgb(74,222,128);fill-rule:nonzero;"/>
                </g>
                <g transform="matrix(14,0,0,14,69.275391,0)">
                    <path d="M0.513,-0L0.415,-0L0.32,-0.204C0.313,-0.22 0.305,-0.233 0.298,-0.243C0.29,-0.253 0.282,-0.261 0.274,-0.267C0.265,-0.273 0.256,-0.278 0.245,-0.28C0.235,-0.283 0.224,-0.284 0.211,-0.284L0.17,-0.284L0.17,-0L0.083,-0L0.083,-0.638L0.254,-0.638C0.291,-0.638 0.323,-0.634 0.35,-0.626C0.376,-0.618 0.398,-0.606 0.415,-0.592C0.432,-0.577 0.445,-0.559 0.453,-0.539C0.461,-0.518 0.465,-0.495 0.465,-0.47C0.465,-0.45 0.462,-0.432 0.456,-0.414C0.45,-0.396 0.441,-0.38 0.43,-0.365C0.418,-0.351 0.404,-0.338 0.387,-0.328C0.37,-0.317 0.35,-0.309 0.328,-0.304C0.346,-0.298 0.361,-0.287 0.374,-0.272C0.386,-0.256 0.399,-0.236 0.412,-0.21L0.513,-0ZM0.374,-0.463C0.374,-0.497 0.363,-0.523 0.342,-0.54C0.321,-0.556 0.291,-0.565 0.252,-0.565L0.17,-0.565L0.17,-0.354L0.24,-0.354C0.261,-0.354 0.279,-0.356 0.296,-0.361C0.312,-0.366 0.326,-0.373 0.338,-0.382C0.349,-0.391 0.358,-0.403 0.365,-0.416C0.371,-0.43 0.374,-0.445 0.374,-0.463Z" style="fill:rgb(74,222,128);fill-rule:nonzero;"/>
                </g>
                <g transform="matrix(14,0,0,14,84.669922,0)">
                    <path d="M0.496,-0.191C0.496,-0.16 0.49,-0.133 0.478,-0.11C0.466,-0.086 0.449,-0.066 0.427,-0.05C0.406,-0.034 0.379,-0.021 0.348,-0.013C0.317,-0.004 0.282,-0 0.244,-0L0.077,-0L0.077,-0.638L0.26,-0.638C0.402,-0.638 0.473,-0.586 0.473,-0.483C0.473,-0.448 0.465,-0.419 0.448,-0.394C0.432,-0.369 0.405,-0.351 0.368,-0.339C0.385,-0.336 0.402,-0.33 0.417,-0.322C0.433,-0.314 0.446,-0.304 0.458,-0.292C0.47,-0.28 0.479,-0.265 0.486,-0.248C0.493,-0.231 0.496,-0.212 0.496,-0.191ZM0.383,-0.471C0.383,-0.484 0.381,-0.497 0.377,-0.508C0.373,-0.52 0.366,-0.53 0.356,-0.538C0.347,-0.546 0.333,-0.553 0.317,-0.558C0.3,-0.562 0.279,-0.565 0.254,-0.565L0.164,-0.565L0.164,-0.365L0.251,-0.365C0.271,-0.365 0.289,-0.367 0.305,-0.372C0.321,-0.376 0.335,-0.382 0.346,-0.391C0.358,-0.4 0.367,-0.411 0.373,-0.424C0.38,-0.437 0.383,-0.453 0.383,-0.471ZM0.404,-0.188C0.404,-0.204 0.4,-0.219 0.394,-0.232C0.387,-0.245 0.377,-0.256 0.364,-0.265C0.351,-0.274 0.335,-0.281 0.316,-0.286C0.297,-0.291 0.276,-0.293 0.253,-0.293L0.164,-0.293L0.164,-0.073L0.256,-0.073C0.306,-0.073 0.343,-0.083 0.367,-0.101C0.392,-0.12 0.404,-0.149 0.404,-0.188Z" style="fill:rgb(74,222,128);fill-rule:nonzero;"/>
                </g>
                <g transform="matrix(14,0,0,14,92.367188,0)">
                    <path d="M0.481,-0L0.114,-0L0.114,-0.638L0.202,-0.638L0.202,-0.074L0.481,-0.074L0.481,-0Z" style="fill:rgb(74,222,128);fill-rule:nonzero;"/>
                </g>
                <g transform="matrix(14,0,0,14,100.064453,0)">
                    <path d="M0.231,-0.565L0.084,-0.565L0.084,-0.638L0.466,-0.638L0.466,-0.565L0.319,-0.565L0.319,-0.074L0.466,-0.074L0.466,-0L0.084,-0L0.084,-0.074L0.231,-0.074L0.231,-0.565Z" style="fill:rgb(74,222,128);fill-rule:nonzero;"/>
                </g>
                <g transform="matrix(14,0,0,14,107.761719,0)">
                    <path d="M0.492,-0L0.379,-0L0.193,-0.398L0.139,-0.526L0.139,-0L0.058,-0L0.058,-0.638L0.17,-0.638L0.347,-0.261L0.411,-0.115L0.411,-0.638L0.492,-0.638L0.492,-0Z" style="fill:rgb(74,222,128);fill-rule:nonzero;"/>
                </g>
                <g transform="matrix(14,0,0,14,115.458984,0)">
                    <path d="M0.511,-0L0.402,-0L0.163,-0.313L0.163,-0L0.076,-0L0.076,-0.638L0.163,-0.638L0.163,-0.342L0.397,-0.638L0.5,-0.638L0.248,-0.335L0.511,-0Z" style="fill:rgb(74,222,128);fill-rule:nonzero;"/>
                </g>
            </g>
        </g>
        <path d="M50,100L50,60L100,60L100,100L150,100L150,60L200,60L200,100L250,100L250,60L300,60L300,100L350,100L350,60L400,60L400,100L450,100L450,60L500,60L500,100L550,100L550,60L600,60L600,100L650,100L650,60L700,60L700,100L750,100L50,100Z" style="fill:rgb(74,222,128);fill-opacity:0.15;fill-rule:nonzero;"/>
        <path d="M50,60L100,60L100,100L150,100L150,60L200,60L200,100L250,100L250,60L300,60L300,100L350,100L350,60L400,60L400,100L450,100L450,60L500,60L500,100L550,100L550,60L600,60L600,100L650,100L650,60L700,60L700,100L750,100" style="fill:none;fill-rule:nonzero;stroke:rgb(74,222,128);stroke-width:3px;stroke-linejoin:round;"/>
    </g>
    <g>
        <g transform="matrix(1,0,0,1,50,165)">
            <g>
                <g transform="matrix(14,0,0,14,0,0)">
                    <path d="M0.526,-0L0.441,-0L0.428,-0.398L0.423,-0.551L0.393,-0.462L0.299,-0.208L0.239,-0.208L0.149,-0.452L0.119,-0.551L0.117,-0.391L0.106,-0L0.024,-0L0.055,-0.638L0.158,-0.638L0.244,-0.398L0.272,-0.317L0.299,-0.398L0.389,-0.638L0.495,-0.638L0.526,-0Z" style="fill:rgb(56,189,248);fill-rule:nonzero;"/>
                </g>
                <g transform="matrix(14,0,0,14,7.697266,0)">
                    <path d="M0.486,-0.024C0.435,-0.003 0.381,0.008 0.325,0.008C0.235,0.008 0.166,-0.019 0.117,-0.073C0.069,-0.127 0.045,-0.207 0.045,-0.312C0.045,-0.363 0.052,-0.409 0.065,-0.451C0.078,-0.492 0.097,-0.527 0.122,-0.556C0.147,-0.585 0.177,-0.607 0.212,-0.623C0.247,-0.638 0.286,-0.646 0.33,-0.646C0.36,-0.646 0.387,-0.643 0.413,-0.638C0.438,-0.633 0.462,-0.626 0.486,-0.615L0.486,-0.53C0.463,-0.542 0.439,-0.552 0.414,-0.559C0.389,-0.566 0.362,-0.569 0.333,-0.569C0.303,-0.569 0.276,-0.563 0.252,-0.552C0.227,-0.541 0.207,-0.524 0.19,-0.503C0.173,-0.482 0.16,-0.456 0.151,-0.425C0.142,-0.394 0.137,-0.359 0.137,-0.32C0.137,-0.237 0.154,-0.175 0.188,-0.133C0.221,-0.091 0.27,-0.07 0.335,-0.07C0.362,-0.07 0.389,-0.073 0.414,-0.079C0.439,-0.086 0.463,-0.095 0.486,-0.106L0.486,-0.024Z" style="fill:rgb(56,189,248);fill-rule:nonzero;"/>
                </g>
                <g transform="matrix(14,0,0,14,15.394531,0)">
                    <path d="M0.5,-0.202C0.5,-0.173 0.495,-0.145 0.484,-0.12C0.474,-0.094 0.458,-0.072 0.439,-0.052C0.419,-0.033 0.396,-0.018 0.368,-0.008C0.341,0.003 0.31,0.009 0.277,0.009C0.242,0.009 0.211,0.003 0.184,-0.008C0.157,-0.019 0.134,-0.037 0.116,-0.06C0.097,-0.083 0.084,-0.112 0.074,-0.148C0.065,-0.183 0.06,-0.225 0.06,-0.274C0.06,-0.306 0.062,-0.338 0.066,-0.369C0.071,-0.399 0.078,-0.428 0.087,-0.455C0.097,-0.482 0.11,-0.507 0.126,-0.529C0.143,-0.552 0.163,-0.571 0.187,-0.587C0.212,-0.603 0.24,-0.616 0.273,-0.625C0.306,-0.634 0.344,-0.638 0.387,-0.638L0.45,-0.638L0.45,-0.564L0.382,-0.564C0.344,-0.564 0.311,-0.559 0.283,-0.55C0.255,-0.541 0.231,-0.528 0.212,-0.512C0.194,-0.495 0.179,-0.475 0.169,-0.452C0.159,-0.428 0.153,-0.402 0.15,-0.373L0.148,-0.353C0.168,-0.365 0.192,-0.375 0.219,-0.382C0.246,-0.389 0.275,-0.393 0.306,-0.393C0.338,-0.393 0.367,-0.388 0.391,-0.379C0.415,-0.369 0.435,-0.356 0.451,-0.34C0.468,-0.323 0.48,-0.303 0.488,-0.279C0.496,-0.256 0.5,-0.23 0.5,-0.202ZM0.411,-0.197C0.411,-0.216 0.409,-0.234 0.404,-0.25C0.399,-0.266 0.392,-0.279 0.382,-0.29C0.372,-0.301 0.359,-0.309 0.344,-0.315C0.328,-0.321 0.31,-0.324 0.288,-0.324C0.276,-0.324 0.263,-0.323 0.25,-0.321C0.238,-0.319 0.225,-0.315 0.213,-0.311C0.201,-0.307 0.189,-0.303 0.178,-0.297C0.167,-0.292 0.157,-0.287 0.148,-0.281C0.148,-0.239 0.151,-0.204 0.157,-0.176C0.163,-0.147 0.171,-0.125 0.183,-0.108C0.194,-0.091 0.209,-0.079 0.226,-0.072C0.243,-0.065 0.262,-0.061 0.284,-0.061C0.303,-0.061 0.32,-0.064 0.335,-0.07C0.351,-0.076 0.364,-0.085 0.375,-0.097C0.386,-0.108 0.395,-0.123 0.402,-0.139C0.408,-0.156 0.411,-0.175 0.411,-0.197Z" style="fill:rgb(56,189,248);fill-rule:nonzero;"/>
                </g>
                <g transform="matrix(14,0,0,14,23.091797,0)">
                    <path d="M0.492,-0.16C0.492,-0.133 0.487,-0.109 0.476,-0.088C0.465,-0.067 0.449,-0.049 0.429,-0.035C0.409,-0.021 0.386,-0.01 0.359,-0.002C0.332,0.005 0.303,0.009 0.271,0.009C0.236,0.009 0.205,0.005 0.179,-0.003C0.152,-0.011 0.13,-0.022 0.112,-0.036C0.094,-0.05 0.081,-0.066 0.072,-0.085C0.063,-0.105 0.058,-0.126 0.058,-0.149C0.058,-0.188 0.069,-0.222 0.091,-0.25C0.113,-0.278 0.146,-0.304 0.192,-0.327C0.15,-0.348 0.12,-0.372 0.101,-0.398C0.081,-0.424 0.072,-0.453 0.072,-0.487C0.072,-0.507 0.076,-0.527 0.084,-0.546C0.093,-0.566 0.106,-0.583 0.123,-0.598C0.14,-0.613 0.161,-0.625 0.187,-0.634C0.213,-0.642 0.243,-0.647 0.278,-0.647C0.311,-0.647 0.34,-0.643 0.365,-0.636C0.389,-0.629 0.41,-0.619 0.427,-0.606C0.444,-0.593 0.457,-0.578 0.465,-0.559C0.474,-0.541 0.478,-0.52 0.478,-0.497C0.478,-0.46 0.468,-0.428 0.447,-0.402C0.426,-0.376 0.397,-0.354 0.359,-0.334C0.378,-0.325 0.395,-0.314 0.412,-0.303C0.428,-0.291 0.442,-0.279 0.454,-0.265C0.466,-0.251 0.476,-0.235 0.482,-0.218C0.489,-0.201 0.492,-0.181 0.492,-0.16ZM0.391,-0.49C0.391,-0.519 0.381,-0.541 0.361,-0.555C0.34,-0.569 0.312,-0.576 0.275,-0.576C0.238,-0.576 0.21,-0.569 0.19,-0.555C0.169,-0.541 0.159,-0.52 0.159,-0.492C0.159,-0.479 0.162,-0.468 0.167,-0.457C0.171,-0.446 0.179,-0.436 0.189,-0.427C0.199,-0.417 0.212,-0.408 0.228,-0.399C0.243,-0.39 0.261,-0.381 0.282,-0.371C0.319,-0.388 0.346,-0.406 0.364,-0.425C0.382,-0.444 0.391,-0.465 0.391,-0.49ZM0.4,-0.154C0.4,-0.166 0.398,-0.178 0.394,-0.189C0.39,-0.2 0.383,-0.212 0.373,-0.223C0.363,-0.234 0.349,-0.245 0.333,-0.256C0.316,-0.267 0.294,-0.278 0.268,-0.29C0.246,-0.279 0.227,-0.269 0.212,-0.258C0.197,-0.247 0.185,-0.237 0.176,-0.226C0.166,-0.215 0.16,-0.204 0.156,-0.192C0.152,-0.18 0.15,-0.168 0.15,-0.155C0.15,-0.14 0.153,-0.127 0.159,-0.116C0.166,-0.105 0.174,-0.095 0.186,-0.087C0.197,-0.08 0.21,-0.074 0.225,-0.07C0.24,-0.066 0.257,-0.064 0.275,-0.064C0.292,-0.064 0.308,-0.066 0.324,-0.069C0.339,-0.073 0.352,-0.078 0.364,-0.086C0.375,-0.093 0.384,-0.102 0.39,-0.114C0.397,-0.125 0.4,-0.138 0.4,-0.154Z" style="fill:rgb(56,189,248);fill-rule:nonzero;"/>
                </g>
                <g transform="matrix(14,0,0,14,30.789062,0)">
                    <path d="M0.524,-0.141L0.415,-0.141L0.415,-0L0.328,-0L0.328,-0.141L0.021,-0.141L0.021,-0.216L0.293,-0.638L0.415,-0.638L0.415,-0.216L0.524,-0.216L0.524,-0.141ZM0.328,-0.556L0.106,-0.216L0.328,-0.216L0.328,-0.556Z" style="fill:rgb(56,189,248);fill-rule:nonzero;"/>
                </g>
                <g transform="matrix(14,0,0,14,38.486328,0)">
                    <path d="M0.476,-0.204C0.476,-0.173 0.469,-0.144 0.456,-0.118C0.442,-0.092 0.423,-0.069 0.399,-0.051C0.375,-0.032 0.347,-0.017 0.314,-0.007C0.282,0.004 0.247,0.009 0.209,0.009C0.2,0.009 0.189,0.009 0.178,0.008C0.168,0.008 0.157,0.007 0.146,0.006C0.135,0.005 0.125,0.004 0.115,0.003C0.104,0.002 0.095,0.001 0.087,-0L0.087,-0.077C0.104,-0.073 0.125,-0.07 0.147,-0.068C0.17,-0.066 0.193,-0.065 0.216,-0.065C0.242,-0.065 0.265,-0.068 0.286,-0.074C0.307,-0.08 0.325,-0.089 0.339,-0.101C0.354,-0.112 0.365,-0.126 0.373,-0.143C0.381,-0.159 0.385,-0.178 0.385,-0.198C0.385,-0.238 0.371,-0.267 0.342,-0.285C0.314,-0.303 0.273,-0.312 0.219,-0.312L0.098,-0.312L0.098,-0.638L0.442,-0.638L0.442,-0.564L0.178,-0.564L0.178,-0.385L0.234,-0.385C0.264,-0.385 0.294,-0.382 0.323,-0.376C0.352,-0.371 0.378,-0.361 0.401,-0.347C0.423,-0.334 0.441,-0.315 0.455,-0.292C0.469,-0.268 0.476,-0.239 0.476,-0.204Z" style="fill:rgb(56,189,248);fill-rule:nonzero;"/>
                </g>
                <g transform="matrix(14,0,0,14,53.880859,0)">
                    <path d="M0.331,-0.69L0.317,-0.461L0.233,-0.461L0.219,-0.69L0.331,-0.69Z" style="fill:rgb(56,189,248);fill-rule:nonzero;"/>
                </g>
                <g transform="matrix(14,0,0,14,61.578125,0)">
                    <path d="M0.487,-0.173C0.487,-0.143 0.481,-0.116 0.468,-0.093C0.456,-0.07 0.439,-0.052 0.417,-0.036C0.394,-0.021 0.368,-0.01 0.337,-0.002C0.306,0.005 0.271,0.009 0.234,0.009C0.217,0.009 0.2,0.008 0.183,0.007C0.167,0.006 0.15,0.004 0.135,0.002C0.12,0 0.105,-0.002 0.091,-0.005C0.078,-0.007 0.065,-0.01 0.054,-0.013L0.054,-0.097C0.079,-0.088 0.106,-0.081 0.136,-0.076C0.167,-0.07 0.201,-0.068 0.24,-0.068C0.268,-0.068 0.292,-0.07 0.312,-0.074C0.331,-0.079 0.348,-0.085 0.36,-0.094C0.373,-0.103 0.382,-0.113 0.387,-0.125C0.393,-0.138 0.396,-0.152 0.396,-0.168C0.396,-0.185 0.391,-0.2 0.382,-0.212C0.372,-0.224 0.359,-0.235 0.344,-0.245C0.328,-0.254 0.31,-0.263 0.29,-0.271C0.27,-0.279 0.25,-0.287 0.229,-0.296C0.208,-0.304 0.188,-0.314 0.168,-0.323C0.148,-0.333 0.13,-0.345 0.114,-0.359C0.099,-0.372 0.086,-0.388 0.076,-0.406C0.067,-0.424 0.062,-0.446 0.062,-0.471C0.062,-0.493 0.067,-0.514 0.076,-0.536C0.085,-0.557 0.099,-0.576 0.118,-0.592C0.137,-0.608 0.162,-0.622 0.192,-0.632C0.222,-0.642 0.258,-0.647 0.3,-0.647C0.311,-0.647 0.322,-0.646 0.335,-0.646C0.347,-0.645 0.36,-0.643 0.373,-0.641C0.386,-0.64 0.398,-0.638 0.411,-0.635C0.423,-0.633 0.435,-0.631 0.446,-0.628L0.446,-0.55C0.421,-0.557 0.396,-0.562 0.371,-0.566C0.346,-0.57 0.321,-0.572 0.298,-0.572C0.248,-0.572 0.211,-0.563 0.188,-0.547C0.165,-0.53 0.153,-0.508 0.153,-0.48C0.153,-0.463 0.158,-0.448 0.167,-0.436C0.177,-0.423 0.189,-0.412 0.205,-0.402C0.221,-0.393 0.239,-0.384 0.259,-0.376C0.279,-0.368 0.299,-0.36 0.32,-0.351C0.341,-0.343 0.361,-0.333 0.381,-0.323C0.401,-0.313 0.419,-0.301 0.435,-0.287C0.45,-0.274 0.463,-0.257 0.472,-0.239C0.482,-0.22 0.487,-0.198 0.487,-0.173Z" style="fill:rgb(56,189,248);fill-rule:nonzero;"/>
                </g>
                <g transform="matrix(14,0,0,14,69.275391,0)">
                    <path d="M0.481,-0L0.114,-0L0.114,-0.638L0.202,-0.638L0.202,-0.074L0.481,-0.074L0.481,-0Z" style="fill:rgb(56,189,248);fill-rule:nonzero;"/>
                </g>
                <g transform="matrix(14,0,0,14,76.972656,0)">
                    <path d="M0.523,-0.323C0.523,-0.266 0.516,-0.216 0.503,-0.175C0.489,-0.133 0.471,-0.099 0.448,-0.072C0.425,-0.044 0.398,-0.024 0.367,-0.011C0.337,0.002 0.304,0.009 0.27,0.009C0.229,0.009 0.193,0.001 0.163,-0.013C0.132,-0.028 0.107,-0.05 0.087,-0.078C0.067,-0.106 0.052,-0.14 0.042,-0.18C0.033,-0.22 0.028,-0.265 0.028,-0.316C0.028,-0.373 0.035,-0.422 0.048,-0.463C0.061,-0.505 0.079,-0.539 0.102,-0.567C0.125,-0.594 0.152,-0.614 0.183,-0.627C0.213,-0.64 0.246,-0.647 0.28,-0.647C0.321,-0.647 0.357,-0.639 0.387,-0.625C0.417,-0.61 0.443,-0.588 0.463,-0.56C0.483,-0.532 0.498,-0.499 0.508,-0.458C0.518,-0.418 0.523,-0.373 0.523,-0.323ZM0.433,-0.317C0.433,-0.354 0.43,-0.389 0.424,-0.42C0.418,-0.451 0.409,-0.478 0.396,-0.5C0.384,-0.522 0.367,-0.54 0.347,-0.552C0.327,-0.565 0.303,-0.571 0.275,-0.571C0.248,-0.571 0.224,-0.564 0.204,-0.551C0.185,-0.538 0.168,-0.52 0.156,-0.497C0.143,-0.475 0.134,-0.448 0.127,-0.418C0.121,-0.387 0.118,-0.355 0.118,-0.321C0.118,-0.283 0.121,-0.249 0.127,-0.218C0.133,-0.186 0.142,-0.16 0.155,-0.137C0.167,-0.115 0.183,-0.098 0.203,-0.085C0.223,-0.073 0.247,-0.067 0.275,-0.067C0.302,-0.067 0.326,-0.073 0.346,-0.087C0.366,-0.1 0.382,-0.118 0.395,-0.14C0.408,-0.163 0.417,-0.189 0.423,-0.22C0.43,-0.25 0.433,-0.282 0.433,-0.317Z" style="fill:rgb(56,189,248);fill-rule:nonzero;"/>
                </g>
                <g transform="matrix(14,0,0,14,84.669922,0)">
                    <path d="M0.528,-0.638L0.485,-0L0.372,-0L0.293,-0.227L0.271,-0.3L0.248,-0.221L0.175,-0L0.066,-0L0.022,-0.638L0.104,-0.638L0.129,-0.204L0.136,-0.085L0.167,-0.186L0.244,-0.423L0.304,-0.423L0.393,-0.169L0.423,-0.085L0.425,-0.173L0.45,-0.638L0.528,-0.638Z" style="fill:rgb(56,189,248);fill-rule:nonzero;"/>
                </g>
                <g transform="matrix(14,0,0,14,92.367188,0)">
                    <path d="M0.331,-0.69L0.317,-0.461L0.233,-0.461L0.219,-0.69L0.331,-0.69Z" style="fill:rgb(56,189,248);fill-rule:nonzero;"/>
                </g>
                <g transform="matrix(14,0,0,14,107.761719,0)">
                    <path d="M0.486,-0.024C0.435,-0.003 0.381,0.008 0.325,0.008C0.235,0.008 0.166,-0.019 0.117,-0.073C0.069,-0.127 0.045,-0.207 0.045,-0.312C0.045,-0.363 0.052,-0.409 0.065,-0.451C0.078,-0.492 0.097,-0.527 0.122,-0.556C0.147,-0.585 0.177,-0.607 0.212,-0.623C0.247,-0.638 0.286,-0.646 0.33,-0.646C0.36,-0.646 0.387,-0.643 0.413,-0.638C0.438,-0.633 0.462,-0.626 0.486,-0.615L0.486,-0.53C0.463,-0.542 0.439,-0.552 0.414,-0.559C0.389,-0.566 0.362,-0.569 0.333,-0.569C0.303,-0.569 0.276,-0.563 0.252,-0.552C0.227,-0.541 0.207,-0.524 0.19,-0.503C0.173,-0.482 0.16,-0.456 0.151,-0.425C0.142,-0.394 0.137,-0.359 0.137,-0.32C0.137,-0.237 0.154,-0.175 0.188,-0.133C0.221,-0.091 0.27,-0.07 0.335,-0.07C0.362,-0.07 0.389,-0.073 0.414,-0.079C0.439,-0.086 0.463,-0.095 0.486,-0.106L0.486,-0.024Z" style="fill:rgb(56,189,248);fill-rule:nonzero;"/>
                </g>
                <g transform="matrix(14,0,0,14,115.458984,0)">
                    <path d="M0.497,-0.222C0.497,-0.187 0.492,-0.155 0.482,-0.127C0.472,-0.098 0.458,-0.074 0.438,-0.054C0.419,-0.034 0.396,-0.018 0.368,-0.008C0.34,0.003 0.308,0.009 0.272,0.009C0.232,0.009 0.199,0.004 0.171,-0.007C0.143,-0.017 0.121,-0.032 0.103,-0.051C0.086,-0.07 0.073,-0.093 0.065,-0.12C0.057,-0.146 0.053,-0.176 0.053,-0.209L0.053,-0.638L0.14,-0.638L0.14,-0.216C0.14,-0.191 0.142,-0.169 0.147,-0.15C0.152,-0.131 0.16,-0.115 0.17,-0.103C0.181,-0.09 0.195,-0.08 0.212,-0.074C0.229,-0.067 0.25,-0.064 0.275,-0.064C0.321,-0.064 0.355,-0.077 0.377,-0.104C0.399,-0.131 0.41,-0.168 0.41,-0.217L0.41,-0.638L0.497,-0.638L0.497,-0.222Z" style="fill:rgb(56,189,248);fill-rule:nonzero;"/>
                </g>
                <g transform="matrix(14,0,0,14,123.15625,0)">
                    <path d="M0.513,-0L0.415,-0L0.32,-0.204C0.313,-0.22 0.305,-0.233 0.298,-0.243C0.29,-0.253 0.282,-0.261 0.274,-0.267C0.265,-0.273 0.256,-0.278 0.245,-0.28C0.235,-0.283 0.224,-0.284 0.211,-0.284L0.17,-0.284L0.17,-0L0.083,-0L0.083,-0.638L0.254,-0.638C0.291,-0.638 0.323,-0.634 0.35,-0.626C0.376,-0.618 0.398,-0.606 0.415,-0.592C0.432,-0.577 0.445,-0.559 0.453,-0.539C0.461,-0.518 0.465,-0.495 0.465,-0.47C0.465,-0.45 0.462,-0.432 0.456,-0.414C0.45,-0.396 0.441,-0.38 0.43,-0.365C0.418,-0.351 0.404,-0.338 0.387,-0.328C0.37,-0.317 0.35,-0.309 0.328,-0.304C0.346,-0.298 0.361,-0.287 0.374,-0.272C0.386,-0.256 0.399,-0.236 0.412,-0.21L0.513,-0ZM0.374,-0.463C0.374,-0.497 0.363,-0.523 0.342,-0.54C0.321,-0.556 0.291,-0.565 0.252,-0.565L0.17,-0.565L0.17,-0.354L0.24,-0.354C0.261,-0.354 0.279,-0.356 0.296,-0.361C0.312,-0.366 0.326,-0.373 0.338,-0.382C0.349,-0.391 0.358,-0.403 0.365,-0.416C0.371,-0.43 0.374,-0.445 0.374,-0.463Z" style="fill:rgb(56,189,248);fill-rule:nonzero;"/>
                </g>
                <g transform="matrix(14,0,0,14,130.853516,0)">
                    <path d="M0.487,-0.173C0.487,-0.143 0.481,-0.116 0.468,-0.093C0.456,-0.07 0.439,-0.052 0.417,-0.036C0.394,-0.021 0.368,-0.01 0.337,-0.002C0.306,0.005 0.271,0.009 0.234,0.009C0.217,0.009 0.2,0.008 0.183,0.007C0.167,0.006 0.15,0.004 0.135,0.002C0.12,0 0.105,-0.002 0.091,-0.005C0.078,-0.007 0.065,-0.01 0.054,-0.013L0.054,-0.097C0.079,-0.088 0.106,-0.081 0.136,-0.076C0.167,-0.07 0.201,-0.068 0.24,-0.068C0.268,-0.068 0.292,-0.07 0.312,-0.074C0.331,-0.079 0.348,-0.085 0.36,-0.094C0.373,-0.103 0.382,-0.113 0.387,-0.125C0.393,-0.138 0.396,-0.152 0.396,-0.168C0.396,-0.185 0.391,-0.2 0.382,-0.212C0.372,-0.224 0.359,-0.235 0.344,-0.245C0.328,-0.254 0.31,-0.263 0.29,-0.271C0.27,-0.279 0.25,-0.287 0.229,-0.296C0.208,-0.304 0.188,-0.314 0.168,-0.323C0.148,-0.333 0.13,-0.345 0.114,-0.359C0.099,-0.372 0.086,-0.388 0.076,-0.406C0.067,-0.424 0.062,-0.446 0.062,-0.471C0.062,-0.493 0.067,-0.514 0.076,-0.536C0.085,-0.557 0.099,-0.576 0.118,-0.592C0.137,-0.608 0.162,-0.622 0.192,-0.632C0.222,-0.642 0.258,-0.647 0.3,-0.647C0.311,-0.647 0.322,-0.646 0.335,-0.646C0.347,-0.645 0.36,-0.643 0.373,-0.641C0.386,-0.64 0.398,-0.638 0.411,-0.635C0.423,-0.633 0.435,-0.631 0.446,-0.628L0.446,-0.55C0.421,-0.557 0.396,-0.562 0.371,-0.566C0.346,-0.57 0.321,-0.572 0.298,-0.572C0.248,-0.572 0.211,-0.563 0.188,-0.547C0.165,-0.53 0.153,-0.508 0.153,-0.48C0.153,-0.463 0.158,-0.448 0.167,-0.436C0.177,-0.423 0.189,-0.412 0.205,-0.402C0.221,-0.393 0.239,-0.384 0.259,-0.376C0.279,-0.368 0.299,-0.36 0.32,-0.351C0.341,-0.343 0.361,-0.333 0.381,-0.323C0.401,-0.313 0.419,-0.301 0.435,-0.287C0.45,-0.274 0.463,-0.257 0.472,-0.239C0.482,-0.22 0.487,-0.198 0.487,-0.173Z" style="fill:rgb(56,189,248);fill-rule:nonzero;"/>
                </g>
                <g transform="matrix(14,0,0,14,138.550781,0)">
                    <path d="M0.523,-0.323C0.523,-0.266 0.516,-0.216 0.503,-0.175C0.489,-0.133 0.471,-0.099 0.448,-0.072C0.425,-0.044 0.398,-0.024 0.367,-0.011C0.337,0.002 0.304,0.009 0.27,0.009C0.229,0.009 0.193,0.001 0.163,-0.013C0.132,-0.028 0.107,-0.05 0.087,-0.078C0.067,-0.106 0.052,-0.14 0.042,-0.18C0.033,-0.22 0.028,-0.265 0.028,-0.316C0.028,-0.373 0.035,-0.422 0.048,-0.463C0.061,-0.505 0.079,-0.539 0.102,-0.567C0.125,-0.594 0.152,-0.614 0.183,-0.627C0.213,-0.64 0.246,-0.647 0.28,-0.647C0.321,-0.647 0.357,-0.639 0.387,-0.625C0.417,-0.61 0.443,-0.588 0.463,-0.56C0.483,-0.532 0.498,-0.499 0.508,-0.458C0.518,-0.418 0.523,-0.373 0.523,-0.323ZM0.433,-0.317C0.433,-0.354 0.43,-0.389 0.424,-0.42C0.418,-0.451 0.409,-0.478 0.396,-0.5C0.384,-0.522 0.367,-0.54 0.347,-0.552C0.327,-0.565 0.303,-0.571 0.275,-0.571C0.248,-0.571 0.224,-0.564 0.204,-0.551C0.185,-0.538 0.168,-0.52 0.156,-0.497C0.143,-0.475 0.134,-0.448 0.127,-0.418C0.121,-0.387 0.118,-0.355 0.118,-0.321C0.118,-0.283 0.121,-0.249 0.127,-0.218C0.133,-0.186 0.142,-0.16 0.155,-0.137C0.167,-0.115 0.183,-0.098 0.203,-0.085C0.223,-0.073 0.247,-0.067 0.275,-0.067C0.302,-0.067 0.326,-0.073 0.346,-0.087C0.366,-0.1 0.382,-0.118 0.395,-0.14C0.408,-0.163 0.417,-0.189 0.423,-0.22C0.43,-0.25 0.433,-0.282 0.433,-0.317Z" style="fill:rgb(56,189,248);fill-rule:nonzero;"/>
                </g>
                <g transform="matrix(14,0,0,14,146.248047,0)">
                    <path d="M0.513,-0L0.415,-0L0.32,-0.204C0.313,-0.22 0.305,-0.233 0.298,-0.243C0.29,-0.253 0.282,-0.261 0.274,-0.267C0.265,-0.273 0.256,-0.278 0.245,-0.28C0.235,-0.283 0.224,-0.284 0.211,-0.284L0.17,-0.284L0.17,-0L0.083,-0L0.083,-0.638L0.254,-0.638C0.291,-0.638 0.323,-0.634 0.35,-0.626C0.376,-0.618 0.398,-0.606 0.415,-0.592C0.432,-0.577 0.445,-0.559 0.453,-0.539C0.461,-0.518 0.465,-0.495 0.465,-0.47C0.465,-0.45 0.462,-0.432 0.456,-0.414C0.45,-0.396 0.441,-0.38 0.43,-0.365C0.418,-0.351 0.404,-0.338 0.387,-0.328C0.37,-0.317 0.35,-0.309 0.328,-0.304C0.346,-0.298 0.361,-0.287 0.374,-0.272C0.386,-0.256 0.399,-0.236 0.412,-0.21L0.513,-0ZM0.374,-0.463C0.374,-0.497 0.363,-0.523 0.342,-0.54C0.321,-0.556 0.291,-0.565 0.252,-0.565L0.17,-0.565L0.17,-0.354L0.24,-0.354C0.261,-0.354 0.279,-0.356 0.296,-0.361C0.312,-0.366 0.326,-0.373 0.338,-0.382C0.349,-0.391 0.358,-0.403 0.365,-0.416C0.371,-0.43 0.374,-0.445 0.374,-0.463Z" style="fill:rgb(56,189,248);fill-rule:nonzero;"/>
                </g>
                <g transform="matrix(14,0,0,14,161.642578,0)">
                    <path d="M0.496,-0.191C0.496,-0.16 0.49,-0.133 0.478,-0.11C0.466,-0.086 0.449,-0.066 0.427,-0.05C0.406,-0.034 0.379,-0.021 0.348,-0.013C0.317,-0.004 0.282,-0 0.244,-0L0.077,-0L0.077,-0.638L0.26,-0.638C0.402,-0.638 0.473,-0.586 0.473,-0.483C0.473,-0.448 0.465,-0.419 0.448,-0.394C0.432,-0.369 0.405,-0.351 0.368,-0.339C0.385,-0.336 0.402,-0.33 0.417,-0.322C0.433,-0.314 0.446,-0.304 0.458,-0.292C0.47,-0.28 0.479,-0.265 0.486,-0.248C0.493,-0.231 0.496,-0.212 0.496,-0.191ZM0.383,-0.471C0.383,-0.484 0.381,-0.497 0.377,-0.508C0.373,-0.52 0.366,-0.53 0.356,-0.538C0.347,-0.546 0.333,-0.553 0.317,-0.558C0.3,-0.562 0.279,-0.565 0.254,-0.565L0.164,-0.565L0.164,-0.365L0.251,-0.365C0.271,-0.365 0.289,-0.367 0.305,-0.372C0.321,-0.376 0.335,-0.382 0.346,-0.391C0.358,-0.4 0.367,-0.411 0.373,-0.424C0.38,-0.437 0.383,-0.453 0.383,-0.471ZM0.404,-0.188C0.404,-0.204 0.4,-0.219 0.394,-0.232C0.387,-0.245 0.377,-0.256 0.364,-0.265C0.351,-0.274 0.335,-0.281 0.316,-0.286C0.297,-0.291 0.276,-0.293 0.253,-0.293L0.164,-0.293L0.164,-0.073L0.256,-0.073C0.306,-0.073 0.343,-0.083 0.367,-0.101C0.392,-0.12 0.404,-0.149 0.404,-0.188Z" style="fill:rgb(56,189,248);fill-rule:nonzero;"/>
                </g>
                <g transform="matrix(14,0,0,14,169.339844,0)">
                    <path d="M0.481,-0L0.114,-0L0.114,-0.638L0.202,-0.638L0.202,-0.074L0.481,-0.074L0.481,-0Z" style="fill:rgb(56,189,248);fill-rule:nonzero;"/>
                </g>
                <g transform="matrix(14,0,0,14,177.037109,0)">
                    <path d="M0.231,-0.565L0.084,-0.565L0.084,-0.638L0.466,-0.638L0.466,-0.565L0.319,-0.565L0.319,-0.074L0.466,-0.074L0.466,-0L0.084,-0L0.084,-0.074L0.231,-0.074L0.231,-0.565Z" style="fill:rgb(56,189,248);fill-rule:nonzero;"/>
                </g>
                <g transform="matrix(14,0,0,14,184.734375,0)">
                    <path d="M0.492,-0L0.379,-0L0.193,-0.398L0.139,-0.526L0.139,-0L0.058,-0L0.058,-0.638L0.17,-0.638L0.347,-0.261L0.411,-0.115L0.411,-0.638L0.492,-0.638L0.492,-0Z" style="fill:rgb(56,189,248);fill-rule:nonzero;"/>
                </g>
                <g transform="matrix(14,0,0,14,192.431641,0)">
                    <path d="M0.511,-0L0.402,-0L0.163,-0.313L0.163,-0L0.076,-0L0.076,-0.638L0.163,-0.638L0.163,-0.342L0.397,-0.638L0.5,-0.638L0.248,-0.335L0.511,-0Z" style="fill:rgb(56,189,248);fill-rule:nonzero;"/>
                </g>
            </g>
        </g>
        <path d="M50,220L50,180L150,180L150,220L250,220L250,180L350,180L350,220L450,220L450,180L550,180L550,220L650,220L650,180L750,180L750,220L50,220Z" style="fill:rgb(56,189,248);fill-opacity:0.15;fill-rule:nonzero;"/>
        <path d="M50,180L150,180L150,220L250,220L250,180L350,180L350,220L450,220L450,180L550,180L550,220L650,220L650,180L750,180" style="fill:none;fill-rule:nonzero;stroke:rgb(56,189,248);stroke-width:3px;stroke-linejoin:round;"/>
    </g>
    <g>
        <g transform="matrix(1,0,0,1,50,285)">
            <g>
                <g transform="matrix(14,0,0,14,0,0)">
                    <path d="M0.513,-0L0.415,-0L0.32,-0.204C0.313,-0.22 0.305,-0.233 0.298,-0.243C0.29,-0.253 0.282,-0.261 0.274,-0.267C0.265,-0.273 0.256,-0.278 0.245,-0.28C0.235,-0.283 0.224,-0.284 0.211,-0.284L0.17,-0.284L0.17,-0L0.083,-0L0.083,-0.638L0.254,-0.638C0.291,-0.638 0.323,-0.634 0.35,-0.626C0.376,-0.618 0.398,-0.606 0.415,-0.592C0.432,-0.577 0.445,-0.559 0.453,-0.539C0.461,-0.518 0.465,-0.495 0.465,-0.47C0.465,-0.45 0.462,-0.432 0.456,-0.414C0.45,-0.396 0.441,-0.38 0.43,-0.365C0.418,-0.351 0.404,-0.338 0.387,-0.328C0.37,-0.317 0.35,-0.309 0.328,-0.304C0.346,-0.298 0.361,-0.287 0.374,-0.272C0.386,-0.256 0.399,-0.236 0.412,-0.21L0.513,-0ZM0.374,-0.463C0.374,-0.497 0.363,-0.523 0.342,-0.54C0.321,-0.556 0.291,-0.565 0.252,-0.565L0.17,-0.565L0.17,-0.354L0.24,-0.354C0.261,-0.354 0.279,-0.356 0.296,-0.361C0.312,-0.366 0.326,-0.373 0.338,-0.382C0.349,-0.391 0.358,-0.403 0.365,-0.416C0.371,-0.43 0.374,-0.445 0.374,-0.463Z" style="fill:rgb(244,114,182);fill-rule:nonzero;"/>
                </g>
                <g transform="matrix(14,0,0,14,7.697266,0)">
                    <path d="M0.461,-0L0.098,-0L0.098,-0.638L0.461,-0.638L0.461,-0.565L0.185,-0.565L0.185,-0.367L0.45,-0.367L0.45,-0.294L0.185,-0.294L0.185,-0.074L0.461,-0.074L0.461,-0Z" style="fill:rgb(244,114,182);fill-rule:nonzero;"/>
                </g>
                <g transform="matrix(14,0,0,14,15.394531,0)">
                    <path d="M0.487,-0.173C0.487,-0.143 0.481,-0.116 0.468,-0.093C0.456,-0.07 0.439,-0.052 0.417,-0.036C0.394,-0.021 0.368,-0.01 0.337,-0.002C0.306,0.005 0.271,0.009 0.234,0.009C0.217,0.009 0.2,0.008 0.183,0.007C0.167,0.006 0.15,0.004 0.135,0.002C0.12,0 0.105,-0.002 0.091,-0.005C0.078,-0.007 0.065,-0.01 0.054,-0.013L0.054,-0.097C0.079,-0.088 0.106,-0.081 0.136,-0.076C0.167,-0.07 0.201,-0.068 0.24,-0.068C0.268,-0.068 0.292,-0.07 0.312,-0.074C0.331,-0.079 0.348,-0.085 0.36,-0.094C0.373,-0.103 0.382,-0.113 0.387,-0.125C0.393,-0.138 0.396,-0.152 0.396,-0.168C0.396,-0.185 0.391,-0.2 0.382,-0.212C0.372,-0.224 0.359,-0.235 0.344,-0.245C0.328,-0.254 0.31,-0.263 0.29,-0.271C0.27,-0.279 0.25,-0.287 0.229,-0.296C0.208,-0.304 0.188,-0.314 0.168,-0.323C0.148,-0.333 0.13,-0.345 0.114,-0.359C0.099,-0.372 0.086,-0.388 0.076,-0.406C0.067,-0.424 0.062,-0.446 0.062,-0.471C0.062,-0.493 0.067,-0.514 0.076,-0.536C0.085,-0.557 0.099,-0.576 0.118,-0.592C0.137,-0.608 0.162,-0.622 0.192,-0.632C0.222,-0.642 0.258,-0.647 0.3,-0.647C0.311,-0.647 0.322,-0.646 0.335,-0.646C0.347,-0.645 0.36,-0.643 0.373,-0.641C0.386,-0.64 0.398,-0.638 0.411,-0.635C0.423,-0.633 0.435,-0.631 0.446,-0.628L0.446,-0.55C0.421,-0.557 0.396,-0.562 0.371,-0.566C0.346,-0.57 0.321,-0.572 0.298,-0.572C0.248,-0.572 0.211,-0.563 0.188,-0.547C0.165,-0.53 0.153,-0.508 0.153,-0.48C0.153,-0.463 0.158,-0.448 0.167,-0.436C0.177,-0.423 0.189,-0.412 0.205,-0.402C0.221,-0.393 0.239,-0.384 0.259,-0.376C0.279,-0.368 0.299,-0.36 0.32,-0.351C0.341,-0.343 0.361,-0.333 0.381,-0.323C0.401,-0.313 0.419,-0.301 0.435,-0.287C0.45,-0.274 0.463,-0.257 0.472,-0.239C0.482,-0.22 0.487,-0.198 0.487,-0.173Z" style="fill:rgb(244,114,182);fill-rule:nonzero;"/>
                </g>
                <g transform="matrix(14,0,0,14,23.091797,0)">
                    <path d="M0.497,-0.222C0.497,-0.187 0.492,-0.155 0.482,-0.127C0.472,-0.098 0.458,-0.074 0.438,-0.054C0.419,-0.034 0.396,-0.018 0.368,-0.008C0.34,0.003 0.308,0.009 0.272,0.009C0.232,0.009 0.199,0.004 0.171,-0.007C0.143,-0.017 0.121,-0.032 0.103,-0.051C0.086,-0.07 0.073,-0.093 0.065,-0.12C0.057,-0.146 0.053,-0.176 0.053,-0.209L0.053,-0.638L0.14,-0.638L0.14,-0.216C0.14,-0.191 0.142,-0.169 0.147,-0.15C0.152,-0.131 0.16,-0.115 0.17,-0.103C0.181,-0.09 0.195,-0.08 0.212,-0.074C0.229,-0.067 0.25,-0.064 0.275,-0.064C0.321,-0.064 0.355,-0.077 0.377,-0.104C0.399,-0.131 0.41,-0.168 0.41,-0.217L0.41,-0.638L0.497,-0.638L0.497,-0.222Z" style="fill:rgb(244,114,182);fill-rule:nonzero;"/>
                </g>
                <g transform="matrix(14,0,0,14,30.789062,0)">
                    <path d="M0.481,-0L0.114,-0L0.114,-0.638L0.202,-0.638L0.202,-0.074L0.481,-0.074L0.481,-0Z" style="fill:rgb(244,114,182);fill-rule:nonzero;"/>
                </g>
                <g transform="matrix(14,0,0,14,38.486328,0)">
                    <path d="M0.508,-0.564L0.319,-0.564L0.319,-0L0.231,-0L0.231,-0.564L0.042,-0.564L0.042,-0.638L0.508,-0.638L0.508,-0.564Z" style="fill:rgb(244,114,182);fill-rule:nonzero;"/>
                </g>
                <g transform="matrix(14,0,0,14,46.183594,0)">
                    <path d="M0.231,-0.565L0.084,-0.565L0.084,-0.638L0.466,-0.638L0.466,-0.565L0.319,-0.565L0.319,-0.074L0.466,-0.074L0.466,-0L0.084,-0L0.084,-0.074L0.231,-0.074L0.231,-0.565Z" style="fill:rgb(244,114,182);fill-rule:nonzero;"/>
                </g>
                <g transform="matrix(14,0,0,14,53.880859,0)">
                    <path d="M0.492,-0L0.379,-0L0.193,-0.398L0.139,-0.526L0.139,-0L0.058,-0L0.058,-0.638L0.17,-0.638L0.347,-0.261L0.411,-0.115L0.411,-0.638L0.492,-0.638L0.492,-0Z" style="fill:rgb(244,114,182);fill-rule:nonzero;"/>
                </g>
                <g transform="matrix(14,0,0,14,61.578125,0)">
                    <path d="M0.491,-0.529C0.467,-0.542 0.443,-0.551 0.418,-0.558C0.393,-0.565 0.366,-0.569 0.336,-0.569C0.302,-0.569 0.272,-0.563 0.246,-0.551C0.219,-0.539 0.197,-0.522 0.179,-0.5C0.161,-0.478 0.147,-0.451 0.137,-0.42C0.128,-0.389 0.123,-0.355 0.123,-0.318C0.123,-0.279 0.127,-0.244 0.135,-0.213C0.143,-0.182 0.155,-0.156 0.171,-0.134C0.188,-0.113 0.209,-0.096 0.235,-0.085C0.261,-0.074 0.292,-0.068 0.328,-0.068C0.334,-0.068 0.341,-0.068 0.348,-0.069C0.355,-0.069 0.362,-0.07 0.37,-0.072C0.377,-0.073 0.384,-0.074 0.39,-0.076C0.397,-0.077 0.403,-0.079 0.408,-0.081L0.408,-0.284L0.278,-0.284L0.278,-0.356L0.494,-0.356L0.494,-0.03C0.481,-0.024 0.467,-0.018 0.452,-0.013C0.437,-0.008 0.422,-0.004 0.406,-0.001C0.391,0.002 0.376,0.005 0.36,0.006C0.345,0.008 0.33,0.009 0.316,0.009C0.272,0.009 0.233,0.002 0.198,-0.012C0.163,-0.025 0.133,-0.046 0.109,-0.073C0.084,-0.099 0.065,-0.133 0.052,-0.173C0.039,-0.213 0.032,-0.259 0.032,-0.312C0.032,-0.364 0.04,-0.411 0.054,-0.453C0.069,-0.494 0.089,-0.53 0.116,-0.558C0.142,-0.587 0.174,-0.609 0.212,-0.624C0.249,-0.639 0.29,-0.647 0.335,-0.647C0.364,-0.647 0.391,-0.644 0.417,-0.639C0.443,-0.634 0.467,-0.626 0.491,-0.615L0.491,-0.529Z" style="fill:rgb(244,114,182);fill-rule:nonzero;"/>
                </g>
                <g transform="matrix(14,0,0,14,76.972656,0)">
                    <path d="M0.461,-0L0.098,-0L0.098,-0.638L0.461,-0.638L0.461,-0.565L0.185,-0.565L0.185,-0.367L0.45,-0.367L0.45,-0.294L0.185,-0.294L0.185,-0.074L0.461,-0.074L0.461,-0Z" style="fill:rgb(244,114,182);fill-rule:nonzero;"/>
                </g>
                <g transform="matrix(14,0,0,14,84.669922,0)">
                    <path d="M0.46,-0.564L0.189,-0.564L0.189,-0.357L0.446,-0.357L0.446,-0.284L0.189,-0.284L0.189,-0L0.1,-0L0.1,-0.638L0.46,-0.638L0.46,-0.564Z" style="fill:rgb(244,114,182);fill-rule:nonzero;"/>
                </g>
                <g transform="matrix(14,0,0,14,92.367188,0)">
                    <path d="M0.46,-0.564L0.189,-0.564L0.189,-0.357L0.446,-0.357L0.446,-0.284L0.189,-0.284L0.189,-0L0.1,-0L0.1,-0.638L0.46,-0.638L0.46,-0.564Z" style="fill:rgb(244,114,182);fill-rule:nonzero;"/>
                </g>
                <g transform="matrix(14,0,0,14,100.064453,0)">
                    <path d="M0.461,-0L0.098,-0L0.098,-0.638L0.461,-0.638L0.461,-0.565L0.185,-0.565L0.185,-0.367L0.45,-0.367L0.45,-0.294L0.185,-0.294L0.185,-0.074L0.461,-0.074L0.461,-0Z" style="fill:rgb(244,114,182);fill-rule:nonzero;"/>
                </g>
                <g transform="matrix(14,0,0,14,107.761719,0)">
                    <path d="M0.486,-0.024C0.435,-0.003 0.381,0.008 0.325,0.008C0.235,0.008 0.166,-0.019 0.117,-0.073C0.069,-0.127 0.045,-0.207 0.045,-0.312C0.045,-0.363 0.052,-0.409 0.065,-0.451C0.078,-0.492 0.097,-0.527 0.122,-0.556C0.147,-0.585 0.177,-0.607 0.212,-0.623C0.247,-0.638 0.286,-0.646 0.33,-0.646C0.36,-0.646 0.387,-0.643 0.413,-0.638C0.438,-0.633 0.462,-0.626 0.486,-0.615L0.486,-0.53C0.463,-0.542 0.439,-0.552 0.414,-0.559C0.389,-0.566 0.362,-0.569 0.333,-0.569C0.303,-0.569 0.276,-0.563 0.252,-0.552C0.227,-0.541 0.207,-0.524 0.19,-0.503C0.173,-0.482 0.16,-0.456 0.151,-0.425C0.142,-0.394 0.137,-0.359 0.137,-0.32C0.137,-0.237 0.154,-0.175 0.188,-0.133C0.221,-0.091 0.27,-0.07 0.335,-0.07C0.362,-0.07 0.389,-0.073 0.414,-0.079C0.439,-0.086 0.463,-0.095 0.486,-0.106L0.486,-0.024Z" style="fill:rgb(244,114,182);fill-rule:nonzero;"/>
                </g>
                <g transform="matrix(14,0,0,14,115.458984,0)">
                    <path d="M0.508,-0.564L0.319,-0.564L0.319,-0L0.231,-0L0.231,-0.564L0.042,-0.564L0.042,-0.638L0.508,-0.638L0.508,-0.564Z" style="fill:rgb(244,114,182);fill-rule:nonzero;"/>
                </g>
                <g transform="matrix(14,0,0,14,123.15625,0)">
                    <path d="M0.231,-0.565L0.084,-0.565L0.084,-0.638L0.466,-0.638L0.466,-0.565L0.319,-0.565L0.319,-0.074L0.466,-0.074L0.466,-0L0.084,-0L0.084,-0.074L0.231,-0.074L0.231,-0.565Z" style="fill:rgb(244,114,182);fill-rule:nonzero;"/>
                </g>
                <g transform="matrix(14,0,0,14,130.853516,0)">
                    <path d="M0.548,-0.638L0.331,-0L0.214,-0L0.002,-0.638L0.1,-0.638L0.238,-0.208L0.277,-0.082L0.317,-0.208L0.455,-0.638L0.548,-0.638Z" style="fill:rgb(244,114,182);fill-rule:nonzero;"/>
                </g>
                <g transform="matrix(14,0,0,14,138.550781,0)">
                    <path d="M0.461,-0L0.098,-0L0.098,-0.638L0.461,-0.638L0.461,-0.565L0.185,-0.565L0.185,-0.367L0.45,-0.367L0.45,-0.294L0.185,-0.294L0.185,-0.074L0.461,-0.074L0.461,-0Z" style="fill:rgb(244,114,182);fill-rule:nonzero;"/>
                </g>
                <g transform="matrix(14,0,0,14,153.945312,0)">
                    <path d="M0.496,-0.191C0.496,-0.16 0.49,-0.133 0.478,-0.11C0.466,-0.086 0.449,-0.066 0.427,-0.05C0.406,-0.034 0.379,-0.021 0.348,-0.013C0.317,-0.004 0.282,-0 0.244,-0L0.077,-0L0.077,-0.638L0.26,-0.638C0.402,-0.638 0.473,-0.586 0.473,-0.483C0.473,-0.448 0.465,-0.419 0.448,-0.394C0.432,-0.369 0.405,-0.351 0.368,-0.339C0.385,-0.336 0.402,-0.33 0.417,-0.322C0.433,-0.314 0.446,-0.304 0.458,-0.292C0.47,-0.28 0.479,-0.265 0.486,-0.248C0.493,-0.231 0.496,-0.212 0.496,-0.191ZM0.383,-0.471C0.383,-0.484 0.381,-0.497 0.377,-0.508C0.373,-0.52 0.366,-0.53 0.356,-0.538C0.347,-0.546 0.333,-0.553 0.317,-0.558C0.3,-0.562 0.279,-0.565 0.254,-0.565L0.164,-0.565L0.164,-0.365L0.251,-0.365C0.271,-0.365 0.289,-0.367 0.305,-0.372C0.321,-0.376 0.335,-0.382 0.346,-0.391C0.358,-0.4 0.367,-0.411 0.373,-0.424C0.38,-0.437 0.383,-0.453 0.383,-0.471ZM0.404,-0.188C0.404,-0.204 0.4,-0.219 0.394,-0.232C0.387,-0.245 0.377,-0.256 0.364,-0.265C0.351,-0.274 0.335,-0.281 0.316,-0.286C0.297,-0.291 0.276,-0.293 0.253,-0.293L0.164,-0.293L0.164,-0.073L0.256,-0.073C0.306,-0.073 0.343,-0.083 0.367,-0.101C0.392,-0.12 0.404,-0.149 0.404,-0.188Z" style="fill:rgb(244,114,182);fill-rule:nonzero;"/>
                </g>
                <g transform="matrix(14,0,0,14,161.642578,0)">
                    <path d="M0.481,-0L0.114,-0L0.114,-0.638L0.202,-0.638L0.202,-0.074L0.481,-0.074L0.481,-0Z" style="fill:rgb(244,114,182);fill-rule:nonzero;"/>
                </g>
                <g transform="matrix(14,0,0,14,169.339844,0)">
                    <path d="M0.231,-0.565L0.084,-0.565L0.084,-0.638L0.466,-0.638L0.466,-0.565L0.319,-0.565L0.319,-0.074L0.466,-0.074L0.466,-0L0.084,-0L0.084,-0.074L0.231,-0.074L0.231,-0.565Z" style="fill:rgb(244,114,182);fill-rule:nonzero;"/>
                </g>
                <g transform="matrix(14,0,0,14,177.037109,0)">
                    <path d="M0.492,-0L0.379,-0L0.193,-0.398L0.139,-0.526L0.139,-0L0.058,-0L0.058,-0.638L0.17,-0.638L0.347,-0.261L0.411,-0.115L0.411,-0.638L0.492,-0.638L0.492,-0Z" style="fill:rgb(244,114,182);fill-rule:nonzero;"/>
                </g>
                <g transform="matrix(14,0,0,14,184.734375,0)">
                    <path d="M0.511,-0L0.402,-0L0.163,-0.313L0.163,-0L0.076,-0L0.076,-0.638L0.163,-0.638L0.163,-0.342L0.397,-0.638L0.5,-0.638L0.248,-0.335L0.511,-0Z" style="fill:rgb(244,114,182);fill-rule:nonzero;"/>
                </g>
                <g transform="matrix(14,0,0,14,200.128906,0)">
                    <path d="M0.372,0.205C0.222,0.066 0.146,-0.088 0.146,-0.256C0.146,-0.295 0.15,-0.335 0.158,-0.374C0.166,-0.413 0.179,-0.452 0.197,-0.492C0.215,-0.531 0.238,-0.57 0.267,-0.61C0.296,-0.649 0.332,-0.688 0.374,-0.727L0.423,-0.677C0.297,-0.552 0.233,-0.414 0.233,-0.262C0.233,-0.187 0.249,-0.114 0.281,-0.044C0.313,0.025 0.36,0.091 0.423,0.153L0.372,0.205Z" style="fill:rgb(244,114,182);fill-rule:nonzero;"/>
                </g>
                <g transform="matrix(14,0,0,14,207.826172,0)">
                    <path d="M0.486,-0.024C0.435,-0.003 0.381,0.008 0.325,0.008C0.235,0.008 0.166,-0.019 0.117,-0.073C0.069,-0.127 0.045,-0.207 0.045,-0.312C0.045,-0.363 0.052,-0.409 0.065,-0.451C0.078,-0.492 0.097,-0.527 0.122,-0.556C0.147,-0.585 0.177,-0.607 0.212,-0.623C0.247,-0.638 0.286,-0.646 0.33,-0.646C0.36,-0.646 0.387,-0.643 0.413,-0.638C0.438,-0.633 0.462,-0.626 0.486,-0.615L0.486,-0.53C0.463,-0.542 0.439,-0.552 0.414,-0.559C0.389,-0.566 0.362,-0.569 0.333,-0.569C0.303,-0.569 0.276,-0.563 0.252,-0.552C0.227,-0.541 0.207,-0.524 0.19,-0.503C0.173,-0.482 0.16,-0.456 0.151,-0.425C0.142,-0.394 0.137,-0.359 0.137,-0.32C0.137,-0.237 0.154,-0.175 0.188,-0.133C0.221,-0.091 0.27,-0.07 0.335,-0.07C0.362,-0.07 0.389,-0.073 0.414,-0.079C0.439,-0.086 0.463,-0.095 0.486,-0.106L0.486,-0.024Z" style="fill:rgb(244,114,182);fill-rule:nonzero;"/>
                </g>
                <g transform="matrix(14,0,0,14,215.523438,0)">
                    <path d="M0.491,-0.529C0.467,-0.542 0.443,-0.551 0.418,-0.558C0.393,-0.565 0.366,-0.569 0.336,-0.569C0.302,-0.569 0.272,-0.563 0.246,-0.551C0.219,-0.539 0.197,-0.522 0.179,-0.5C0.161,-0.478 0.147,-0.451 0.137,-0.42C0.128,-0.389 0.123,-0.355 0.123,-0.318C0.123,-0.279 0.127,-0.244 0.135,-0.213C0.143,-0.182 0.155,-0.156 0.171,-0.134C0.188,-0.113 0.209,-0.096 0.235,-0.085C0.261,-0.074 0.292,-0.068 0.328,-0.068C0.334,-0.068 0.341,-0.068 0.348,-0.069C0.355,-0.069 0.362,-0.07 0.37,-0.072C0.377,-0.073 0.384,-0.074 0.39,-0.076C0.397,-0.077 0.403,-0.079 0.408,-0.081L0.408,-0.284L0.278,-0.284L0.278,-0.356L0.494,-0.356L0.494,-0.03C0.481,-0.024 0.467,-0.018 0.452,-0.013C0.437,-0.008 0.422,-0.004 0.406,-0.001C0.391,0.002 0.376,0.005 0.36,0.006C0.345,0.008 0.33,0.009 0.316,0.009C0.272,0.009 0.233,0.002 0.198,-0.012C0.163,-0.025 0.133,-0.046 0.109,-0.073C0.084,-0.099 0.065,-0.133 0.052,-0.173C0.039,-0.213 0.032,-0.259 0.032,-0.312C0.032,-0.364 0.04,-0.411 0.054,-0.453C0.069,-0.494 0.089,-0.53 0.116,-0.558C0.142,-0.587 0.174,-0.609 0.212,-0.624C0.249,-0.639 0.29,-0.647 0.335,-0.647C0.364,-0.647 0.391,-0.644 0.417,-0.639C0.443,-0.634 0.467,-0.626 0.491,-0.615L0.491,-0.529Z" style="fill:rgb(244,114,182);fill-rule:nonzero;"/>
                </g>
                <g transform="matrix(14,0,0,14,223.220703,0)">
                    <path d="M0.545,-0L0.45,-0L0.406,-0.139L0.14,-0.139L0.095,-0L0.005,-0L0.217,-0.638L0.336,-0.638L0.545,-0ZM0.381,-0.217L0.273,-0.558L0.165,-0.217L0.381,-0.217Z" style="fill:rgb(244,114,182);fill-rule:nonzero;"/>
                </g>
                <g transform="matrix(14,0,0,14,238.615234,0)">
                    <path d="M0.5,-0.333C0.5,-0.29 0.496,-0.252 0.487,-0.217C0.479,-0.182 0.467,-0.151 0.451,-0.123L0.55,-0L0.437,-0L0.394,-0.053C0.371,-0.034 0.345,-0.019 0.317,-0.009C0.288,0.002 0.257,0.007 0.224,0.007C0.193,0.007 0.165,0.002 0.14,-0.006C0.116,-0.015 0.095,-0.027 0.079,-0.043C0.062,-0.059 0.049,-0.078 0.041,-0.1C0.032,-0.121 0.028,-0.146 0.028,-0.172C0.028,-0.197 0.031,-0.219 0.038,-0.238C0.044,-0.257 0.053,-0.275 0.064,-0.29C0.075,-0.305 0.088,-0.318 0.102,-0.33C0.117,-0.341 0.132,-0.352 0.148,-0.362L0.137,-0.377C0.119,-0.399 0.105,-0.422 0.096,-0.445C0.087,-0.468 0.083,-0.491 0.083,-0.513C0.083,-0.537 0.087,-0.558 0.094,-0.578C0.102,-0.598 0.113,-0.615 0.127,-0.63C0.142,-0.644 0.16,-0.655 0.181,-0.664C0.202,-0.672 0.227,-0.676 0.254,-0.676C0.28,-0.676 0.303,-0.672 0.323,-0.665C0.343,-0.657 0.36,-0.647 0.373,-0.634C0.386,-0.621 0.396,-0.606 0.403,-0.589C0.41,-0.572 0.413,-0.553 0.413,-0.534C0.413,-0.51 0.409,-0.488 0.401,-0.47C0.392,-0.452 0.381,-0.435 0.368,-0.421C0.354,-0.407 0.339,-0.394 0.322,-0.383C0.304,-0.372 0.286,-0.361 0.268,-0.351L0.394,-0.194C0.408,-0.232 0.415,-0.279 0.414,-0.333L0.5,-0.333ZM0.116,-0.182C0.116,-0.165 0.119,-0.149 0.125,-0.135C0.13,-0.12 0.138,-0.108 0.148,-0.098C0.158,-0.088 0.171,-0.08 0.186,-0.074C0.201,-0.069 0.217,-0.066 0.236,-0.066C0.278,-0.066 0.315,-0.082 0.347,-0.113L0.192,-0.307C0.181,-0.3 0.171,-0.292 0.161,-0.283C0.152,-0.275 0.144,-0.265 0.137,-0.255C0.131,-0.245 0.126,-0.234 0.122,-0.222C0.118,-0.21 0.116,-0.197 0.116,-0.182ZM0.327,-0.526C0.327,-0.55 0.32,-0.569 0.307,-0.583C0.293,-0.597 0.274,-0.604 0.251,-0.604C0.238,-0.604 0.226,-0.602 0.217,-0.598C0.207,-0.593 0.198,-0.588 0.191,-0.58C0.185,-0.573 0.179,-0.564 0.176,-0.554C0.173,-0.544 0.171,-0.533 0.171,-0.521C0.171,-0.503 0.174,-0.487 0.181,-0.472C0.187,-0.457 0.198,-0.44 0.212,-0.422L0.225,-0.405C0.239,-0.413 0.252,-0.42 0.265,-0.428C0.277,-0.436 0.288,-0.445 0.297,-0.455C0.306,-0.464 0.314,-0.475 0.319,-0.487C0.324,-0.498 0.327,-0.511 0.327,-0.526Z" style="fill:rgb(244,114,182);fill-rule:nonzero;"/>
                </g>
                <g transform="matrix(14,0,0,14,254.009766,0)">
                    <path d="M0.526,-0L0.441,-0L0.428,-0.398L0.423,-0.551L0.393,-0.462L0.299,-0.208L0.239,-0.208L0.149,-0.452L0.119,-0.551L0.117,-0.391L0.106,-0L0.024,-0L0.055,-0.638L0.158,-0.638L0.244,-0.398L0.272,-0.317L0.299,-0.398L0.389,-0.638L0.495,-0.638L0.526,-0Z" style="fill:rgb(244,114,182);fill-rule:nonzero;"/>
                </g>
                <g transform="matrix(14,0,0,14,261.707031,0)">
                    <path d="M0.486,-0.024C0.435,-0.003 0.381,0.008 0.325,0.008C0.235,0.008 0.166,-0.019 0.117,-0.073C0.069,-0.127 0.045,-0.207 0.045,-0.312C0.045,-0.363 0.052,-0.409 0.065,-0.451C0.078,-0.492 0.097,-0.527 0.122,-0.556C0.147,-0.585 0.177,-0.607 0.212,-0.623C0.247,-0.638 0.286,-0.646 0.33,-0.646C0.36,-0.646 0.387,-0.643 0.413,-0.638C0.438,-0.633 0.462,-0.626 0.486,-0.615L0.486,-0.53C0.463,-0.542 0.439,-0.552 0.414,-0.559C0.389,-0.566 0.362,-0.569 0.333,-0.569C0.303,-0.569 0.276,-0.563 0.252,-0.552C0.227,-0.541 0.207,-0.524 0.19,-0.503C0.173,-0.482 0.16,-0.456 0.151,-0.425C0.142,-0.394 0.137,-0.359 0.137,-0.32C0.137,-0.237 0.154,-0.175 0.188,-0.133C0.221,-0.091 0.27,-0.07 0.335,-0.07C0.362,-0.07 0.389,-0.073 0.414,-0.079C0.439,-0.086 0.463,-0.095 0.486,-0.106L0.486,-0.024Z" style="fill:rgb(244,114,182);fill-rule:nonzero;"/>
                </g>
                <g transform="matrix(14,0,0,14,269.404297,0)">
                    <path d="M0.5,-0.202C0.5,-0.173 0.495,-0.145 0.484,-0.12C0.474,-0.094 0.458,-0.072 0.439,-0.052C0.419,-0.033 0.396,-0.018 0.368,-0.008C0.341,0.003 0.31,0.009 0.277,0.009C0.242,0.009 0.211,0.003 0.184,-0.008C0.157,-0.019 0.134,-0.037 0.116,-0.06C0.097,-0.083 0.084,-0.112 0.074,-0.148C0.065,-0.183 0.06,-0.225 0.06,-0.274C0.06,-0.306 0.062,-0.338 0.066,-0.369C0.071,-0.399 0.078,-0.428 0.087,-0.455C0.097,-0.482 0.11,-0.507 0.126,-0.529C0.143,-0.552 0.163,-0.571 0.187,-0.587C0.212,-0.603 0.24,-0.616 0.273,-0.625C0.306,-0.634 0.344,-0.638 0.387,-0.638L0.45,-0.638L0.45,-0.564L0.382,-0.564C0.344,-0.564 0.311,-0.559 0.283,-0.55C0.255,-0.541 0.231,-0.528 0.212,-0.512C0.194,-0.495 0.179,-0.475 0.169,-0.452C0.159,-0.428 0.153,-0.402 0.15,-0.373L0.148,-0.353C0.168,-0.365 0.192,-0.375 0.219,-0.382C0.246,-0.389 0.275,-0.393 0.306,-0.393C0.338,-0.393 0.367,-0.388 0.391,-0.379C0.415,-0.369 0.435,-0.356 0.451,-0.34C0.468,-0.323 0.48,-0.303 0.488,-0.279C0.496,-0.256 0.5,-0.23 0.5,-0.202ZM0.411,-0.197C0.411,-0.216 0.409,-0.234 0.404,-0.25C0.399,-0.266 0.392,-0.279 0.382,-0.29C0.372,-0.301 0.359,-0.309 0.344,-0.315C0.328,-0.321 0.31,-0.324 0.288,-0.324C0.276,-0.324 0.263,-0.323 0.25,-0.321C0.238,-0.319 0.225,-0.315 0.213,-0.311C0.201,-0.307 0.189,-0.303 0.178,-0.297C0.167,-0.292 0.157,-0.287 0.148,-0.281C0.148,-0.239 0.151,-0.204 0.157,-0.176C0.163,-0.147 0.171,-0.125 0.183,-0.108C0.194,-0.091 0.209,-0.079 0.226,-0.072C0.243,-0.065 0.262,-0.061 0.284,-0.061C0.303,-0.061 0.32,-0.064 0.335,-0.07C0.351,-0.076 0.364,-0.085 0.375,-0.097C0.386,-0.108 0.395,-0.123 0.402,-0.139C0.408,-0.156 0.411,-0.175 0.411,-0.197Z" style="fill:rgb(244,114,182);fill-rule:nonzero;"/>
                </g>
                <g transform="matrix(14,0,0,14,277.101562,0)">
                    <path d="M0.492,-0.16C0.492,-0.133 0.487,-0.109 0.476,-0.088C0.465,-0.067 0.449,-0.049 0.429,-0.035C0.409,-0.021 0.386,-0.01 0.359,-0.002C0.332,0.005 0.303,0.009 0.271,0.009C0.236,0.009 0.205,0.005 0.179,-0.003C0.152,-0.011 0.13,-0.022 0.112,-0.036C0.094,-0.05 0.081,-0.066 0.072,-0.085C0.063,-0.105 0.058,-0.126 0.058,-0.149C0.058,-0.188 0.069,-0.222 0.091,-0.25C0.113,-0.278 0.146,-0.304 0.192,-0.327C0.15,-0.348 0.12,-0.372 0.101,-0.398C0.081,-0.424 0.072,-0.453 0.072,-0.487C0.072,-0.507 0.076,-0.527 0.084,-0.546C0.093,-0.566 0.106,-0.583 0.123,-0.598C0.14,-0.613 0.161,-0.625 0.187,-0.634C0.213,-0.642 0.243,-0.647 0.278,-0.647C0.311,-0.647 0.34,-0.643 0.365,-0.636C0.389,-0.629 0.41,-0.619 0.427,-0.606C0.444,-0.593 0.457,-0.578 0.465,-0.559C0.474,-0.541 0.478,-0.52 0.478,-0.497C0.478,-0.46 0.468,-0.428 0.447,-0.402C0.426,-0.376 0.397,-0.354 0.359,-0.334C0.378,-0.325 0.395,-0.314 0.412,-0.303C0.428,-0.291 0.442,-0.279 0.454,-0.265C0.466,-0.251 0.476,-0.235 0.482,-0.218C0.489,-0.201 0.492,-0.181 0.492,-0.16ZM0.391,-0.49C0.391,-0.519 0.381,-0.541 0.361,-0.555C0.34,-0.569 0.312,-0.576 0.275,-0.576C0.238,-0.576 0.21,-0.569 0.19,-0.555C0.169,-0.541 0.159,-0.52 0.159,-0.492C0.159,-0.479 0.162,-0.468 0.167,-0.457C0.171,-0.446 0.179,-0.436 0.189,-0.427C0.199,-0.417 0.212,-0.408 0.228,-0.399C0.243,-0.39 0.261,-0.381 0.282,-0.371C0.319,-0.388 0.346,-0.406 0.364,-0.425C0.382,-0.444 0.391,-0.465 0.391,-0.49ZM0.4,-0.154C0.4,-0.166 0.398,-0.178 0.394,-0.189C0.39,-0.2 0.383,-0.212 0.373,-0.223C0.363,-0.234 0.349,-0.245 0.333,-0.256C0.316,-0.267 0.294,-0.278 0.268,-0.29C0.246,-0.279 0.227,-0.269 0.212,-0.258C0.197,-0.247 0.185,-0.237 0.176,-0.226C0.166,-0.215 0.16,-0.204 0.156,-0.192C0.152,-0.18 0.15,-0.168 0.15,-0.155C0.15,-0.14 0.153,-0.127 0.159,-0.116C0.166,-0.105 0.174,-0.095 0.186,-0.087C0.197,-0.08 0.21,-0.074 0.225,-0.07C0.24,-0.066 0.257,-0.064 0.275,-0.064C0.292,-0.064 0.308,-0.066 0.324,-0.069C0.339,-0.073 0.352,-0.078 0.364,-0.086C0.375,-0.093 0.384,-0.102 0.39,-0.114C0.397,-0.125 0.4,-0.138 0.4,-0.154Z" style="fill:rgb(244,114,182);fill-rule:nonzero;"/>
                </g>
                <g transform="matrix(14,0,0,14,284.798828,0)">
                    <path d="M0.524,-0.141L0.415,-0.141L0.415,-0L0.328,-0L0.328,-0.141L0.021,-0.141L0.021,-0.216L0.293,-0.638L0.415,-0.638L0.415,-0.216L0.524,-0.216L0.524,-0.141ZM0.328,-0.556L0.106,-0.216L0.328,-0.216L0.328,-0.556Z" style="fill:rgb(244,114,182);fill-rule:nonzero;"/>
                </g>
                <g transform="matrix(14,0,0,14,292.496094,0)">
                    <path d="M0.476,-0.204C0.476,-0.173 0.469,-0.144 0.456,-0.118C0.442,-0.092 0.423,-0.069 0.399,-0.051C0.375,-0.032 0.347,-0.017 0.314,-0.007C0.282,0.004 0.247,0.009 0.209,0.009C0.2,0.009 0.189,0.009 0.178,0.008C0.168,0.008 0.157,0.007 0.146,0.006C0.135,0.005 0.125,0.004 0.115,0.003C0.104,0.002 0.095,0.001 0.087,-0L0.087,-0.077C0.104,-0.073 0.125,-0.07 0.147,-0.068C0.17,-0.066 0.193,-0.065 0.216,-0.065C0.242,-0.065 0.265,-0.068 0.286,-0.074C0.307,-0.08 0.325,-0.089 0.339,-0.101C0.354,-0.112 0.365,-0.126 0.373,-0.143C0.381,-0.159 0.385,-0.178 0.385,-0.198C0.385,-0.238 0.371,-0.267 0.342,-0.285C0.314,-0.303 0.273,-0.312 0.219,-0.312L0.098,-0.312L0.098,-0.638L0.442,-0.638L0.442,-0.564L0.178,-0.564L0.178,-0.385L0.234,-0.385C0.264,-0.385 0.294,-0.382 0.323,-0.376C0.352,-0.371 0.378,-0.361 0.401,-0.347C0.423,-0.334 0.441,-0.315 0.455,-0.292C0.469,-0.268 0.476,-0.239 0.476,-0.204Z" style="fill:rgb(244,114,182);fill-rule:nonzero;"/>
                </g>
                <g transform="matrix(14,0,0,14,300.193359,0)">
                    <path d="M0.178,-0.727C0.328,-0.588 0.403,-0.433 0.403,-0.263C0.403,-0.228 0.4,-0.192 0.393,-0.154C0.385,-0.116 0.373,-0.077 0.356,-0.038C0.339,0.002 0.316,0.042 0.286,0.083C0.257,0.123 0.221,0.164 0.176,0.205L0.127,0.155C0.19,0.092 0.238,0.026 0.269,-0.042C0.3,-0.11 0.316,-0.182 0.316,-0.257C0.316,-0.412 0.253,-0.551 0.127,-0.675L0.178,-0.727Z" style="fill:rgb(244,114,182);fill-rule:nonzero;"/>
                </g>
            </g>
        </g>
        <path d="M50,340L50,300L100,300L100,340L250,340L250,300L300,300L300,340L450,340L450,300L500,300L500,340L650,340L650,300L700,300L700,340L750,340L50,340Z" style="fill:rgb(244,114,182);fill-opacity:0.15;fill-rule:nonzero;"/>
        <path d="M50,300L100,300L100,340L250,340L250,300L300,300L300,340L450,340L450,300L500,300L500,340L650,340L650,300L700,300L700,340L750,340" style="fill:none;fill-rule:nonzero;stroke:rgb(244,114,182);stroke-width:3px;stroke-linejoin:round;"/>
    </g>
    <g>
        <g id="Slow-Period" serif:id="Slow Period">
            <path d="M50,235L50,245M250,235L250,245M50,240L250,240" style="fill:rgb(160,174,192);fill-rule:nonzero;stroke:rgb(160,174,192);stroke-width:1px;"/>
            <g transform="matrix(1,0,0,1,150,255)">
                <g>
                    <g transform="matrix(10,0,0,10,-24.455566,0)">
                        <path d="M0.042,-0.189L0.13,-0.201C0.14,-0.151 0.157,-0.115 0.181,-0.093C0.206,-0.071 0.235,-0.06 0.27,-0.06C0.311,-0.06 0.346,-0.074 0.375,-0.103C0.403,-0.132 0.417,-0.167 0.417,-0.209C0.417,-0.25 0.404,-0.283 0.378,-0.309C0.352,-0.336 0.318,-0.349 0.277,-0.349C0.261,-0.349 0.24,-0.345 0.215,-0.339L0.225,-0.416C0.231,-0.415 0.236,-0.415 0.239,-0.415C0.277,-0.415 0.31,-0.425 0.34,-0.444C0.37,-0.464 0.385,-0.494 0.385,-0.535C0.385,-0.567 0.374,-0.594 0.353,-0.615C0.331,-0.636 0.303,-0.646 0.268,-0.646C0.234,-0.646 0.205,-0.636 0.183,-0.614C0.16,-0.593 0.145,-0.561 0.139,-0.518L0.051,-0.533C0.062,-0.592 0.086,-0.638 0.124,-0.67C0.162,-0.703 0.209,-0.719 0.266,-0.719C0.305,-0.719 0.341,-0.71 0.374,-0.694C0.407,-0.677 0.432,-0.654 0.449,-0.625C0.467,-0.596 0.476,-0.565 0.476,-0.533C0.476,-0.502 0.467,-0.474 0.451,-0.448C0.434,-0.423 0.41,-0.403 0.377,-0.388C0.419,-0.378 0.452,-0.358 0.476,-0.327C0.499,-0.296 0.511,-0.258 0.511,-0.211C0.511,-0.149 0.488,-0.096 0.442,-0.052C0.397,-0.009 0.339,0.013 0.27,0.013C0.207,0.013 0.155,-0.006 0.113,-0.043C0.072,-0.081 0.048,-0.129 0.042,-0.189Z" style="fill:rgb(160,174,192);fill-rule:nonzero;"/>
                    </g>
                    <g transform="matrix(10,0,0,10,-18.894043,0)">
                        <path d="M0.503,-0.084L0.503,-0L0.03,-0C0.03,-0.021 0.033,-0.042 0.041,-0.061C0.053,-0.093 0.072,-0.125 0.098,-0.156C0.125,-0.188 0.163,-0.224 0.213,-0.265C0.291,-0.328 0.344,-0.379 0.371,-0.416C0.398,-0.454 0.412,-0.489 0.412,-0.522C0.412,-0.557 0.4,-0.586 0.375,-0.61C0.35,-0.634 0.317,-0.646 0.277,-0.646C0.235,-0.646 0.201,-0.633 0.176,-0.608C0.15,-0.583 0.138,-0.547 0.137,-0.502L0.047,-0.512C0.053,-0.579 0.076,-0.63 0.117,-0.666C0.157,-0.701 0.211,-0.719 0.279,-0.719C0.348,-0.719 0.402,-0.7 0.442,-0.662C0.482,-0.624 0.502,-0.576 0.502,-0.52C0.502,-0.491 0.497,-0.463 0.485,-0.436C0.473,-0.408 0.454,-0.379 0.427,-0.348C0.399,-0.318 0.354,-0.276 0.291,-0.222C0.238,-0.178 0.204,-0.148 0.189,-0.132C0.174,-0.116 0.162,-0.1 0.152,-0.084L0.503,-0.084Z" style="fill:rgb(160,174,192);fill-rule:nonzero;"/>
                    </g>
                    <g transform="matrix(10,0,0,10,-10.554199,0)">
                        <path d="M0.082,-0L0.082,-0.716L0.565,-0.716L0.565,-0.631L0.177,-0.631L0.177,-0.41L0.513,-0.41L0.513,-0.325L0.177,-0.325L0.177,-0L0.082,-0Z" style="fill:rgb(160,174,192);fill-rule:nonzero;"/>
                    </g>
                    <g transform="matrix(10,0,0,10,-4.445801,0)">
                        <rect x="0.093" y="-0.716" width="0.095" height="0.716" style="fill:rgb(160,174,192);fill-rule:nonzero;"/>
                    </g>
                    <g transform="matrix(10,0,0,10,-1.66748,0)">
                        <path d="M0.079,-0L0.079,-0.716L0.597,-0.716L0.597,-0.631L0.174,-0.631L0.174,-0.412L0.57,-0.412L0.57,-0.328L0.174,-0.328L0.174,-0.084L0.613,-0.084L0.613,-0L0.079,-0Z" style="fill:rgb(160,174,192);fill-rule:nonzero;"/>
                    </g>
                    <g transform="matrix(10,0,0,10,5.002441,0)">
                        <path d="M0.073,-0L0.073,-0.716L0.168,-0.716L0.168,-0.084L0.521,-0.084L0.521,-0L0.073,-0Z" style="fill:rgb(160,174,192);fill-rule:nonzero;"/>
                    </g>
                    <g transform="matrix(10,0,0,10,10.563965,0)">
                        <path d="M0.077,-0L0.077,-0.716L0.324,-0.716C0.379,-0.716 0.422,-0.712 0.451,-0.706C0.492,-0.696 0.527,-0.679 0.556,-0.654C0.594,-0.622 0.622,-0.582 0.641,-0.532C0.66,-0.482 0.669,-0.426 0.669,-0.362C0.669,-0.307 0.663,-0.259 0.65,-0.217C0.637,-0.175 0.621,-0.141 0.601,-0.113C0.581,-0.086 0.559,-0.064 0.536,-0.048C0.512,-0.032 0.484,-0.02 0.45,-0.012C0.417,-0.004 0.379,-0 0.335,-0L0.077,-0ZM0.172,-0.084L0.325,-0.084C0.372,-0.084 0.409,-0.089 0.436,-0.098C0.463,-0.106 0.484,-0.119 0.5,-0.135C0.522,-0.157 0.54,-0.187 0.552,-0.225C0.565,-0.263 0.571,-0.309 0.571,-0.363C0.571,-0.438 0.559,-0.496 0.534,-0.536C0.51,-0.576 0.48,-0.603 0.445,-0.617C0.419,-0.626 0.379,-0.631 0.322,-0.631L0.172,-0.631L0.172,-0.084Z" style="fill:rgb(160,174,192);fill-rule:nonzero;"/>
                    </g>
                    <g transform="matrix(10,0,0,10,17.785645,0)">
                        <path d="M0.045,-0.23L0.134,-0.238C0.139,-0.202 0.148,-0.173 0.164,-0.15C0.179,-0.127 0.203,-0.108 0.236,-0.094C0.268,-0.08 0.305,-0.073 0.346,-0.073C0.382,-0.073 0.414,-0.078 0.441,-0.089C0.469,-0.1 0.49,-0.114 0.503,-0.133C0.517,-0.152 0.523,-0.172 0.523,-0.194C0.523,-0.217 0.517,-0.236 0.504,-0.253C0.491,-0.27 0.469,-0.284 0.439,-0.295C0.42,-0.303 0.378,-0.315 0.312,-0.33C0.246,-0.346 0.2,-0.361 0.174,-0.375C0.14,-0.393 0.114,-0.415 0.097,-0.442C0.081,-0.468 0.072,-0.498 0.072,-0.531C0.072,-0.567 0.083,-0.601 0.103,-0.632C0.124,-0.663 0.153,-0.687 0.193,-0.704C0.232,-0.72 0.276,-0.728 0.324,-0.728C0.377,-0.728 0.424,-0.719 0.465,-0.702C0.505,-0.685 0.536,-0.66 0.558,-0.627C0.58,-0.594 0.592,-0.556 0.593,-0.514L0.502,-0.507C0.498,-0.553 0.481,-0.587 0.453,-0.61C0.425,-0.633 0.383,-0.645 0.328,-0.645C0.271,-0.645 0.229,-0.634 0.203,-0.613C0.177,-0.592 0.164,-0.567 0.164,-0.537C0.164,-0.511 0.173,-0.49 0.191,-0.474C0.21,-0.457 0.257,-0.44 0.334,-0.423C0.411,-0.405 0.464,-0.39 0.493,-0.377C0.534,-0.358 0.565,-0.333 0.585,-0.304C0.605,-0.274 0.615,-0.241 0.615,-0.202C0.615,-0.164 0.604,-0.128 0.582,-0.094C0.56,-0.061 0.529,-0.035 0.488,-0.016C0.447,0.003 0.401,0.012 0.35,0.012C0.285,0.012 0.231,0.003 0.187,-0.016C0.143,-0.035 0.109,-0.063 0.084,-0.101C0.059,-0.139 0.046,-0.182 0.045,-0.23Z" style="fill:rgb(160,174,192);fill-rule:nonzero;"/>
                    </g>
                </g>
            </g>
        </g>
        <g id="Fast-Period" serif:id="Fast Period">
            <path d="M50,115L50,125M150,115L150,125M50,120L150,120" style="fill:rgb(160,174,192);fill-rule:nonzero;stroke:rgb(160,174,192);stroke-width:1px;"/>
            <g transform="matrix(1,0,0,1,100,135)">
                <g>
                    <g transform="matrix(10,0,0,10,-24.455566,0)">
                        <path d="M0.373,-0L0.285,-0L0.285,-0.56C0.264,-0.54 0.236,-0.52 0.201,-0.5C0.167,-0.479 0.136,-0.464 0.109,-0.454L0.109,-0.539C0.158,-0.562 0.201,-0.59 0.238,-0.623C0.275,-0.656 0.301,-0.688 0.316,-0.719L0.373,-0.719L0.373,-0Z" style="fill:rgb(160,174,192);fill-rule:nonzero;"/>
                    </g>
                    <g transform="matrix(10,0,0,10,-18.894043,0)">
                        <path d="M0.498,-0.541L0.41,-0.534C0.402,-0.568 0.391,-0.593 0.377,-0.609C0.353,-0.634 0.324,-0.646 0.289,-0.646C0.261,-0.646 0.236,-0.639 0.215,-0.623C0.188,-0.603 0.166,-0.573 0.15,-0.535C0.134,-0.496 0.126,-0.441 0.125,-0.369C0.146,-0.401 0.172,-0.425 0.203,-0.441C0.233,-0.457 0.265,-0.464 0.299,-0.464C0.357,-0.464 0.407,-0.443 0.448,-0.4C0.49,-0.357 0.51,-0.301 0.51,-0.232C0.51,-0.188 0.501,-0.146 0.481,-0.107C0.462,-0.069 0.435,-0.039 0.401,-0.019C0.368,0.002 0.329,0.012 0.286,0.012C0.213,0.012 0.153,-0.015 0.107,-0.069C0.061,-0.122 0.038,-0.211 0.038,-0.335C0.038,-0.473 0.063,-0.574 0.114,-0.637C0.159,-0.691 0.219,-0.719 0.294,-0.719C0.351,-0.719 0.397,-0.703 0.433,-0.671C0.469,-0.64 0.49,-0.596 0.498,-0.541ZM0.139,-0.232C0.139,-0.202 0.145,-0.173 0.158,-0.145C0.171,-0.117 0.189,-0.096 0.212,-0.082C0.235,-0.067 0.259,-0.06 0.285,-0.06C0.322,-0.06 0.354,-0.075 0.38,-0.105C0.407,-0.135 0.42,-0.176 0.42,-0.227C0.42,-0.277 0.407,-0.316 0.381,-0.344C0.354,-0.372 0.321,-0.387 0.281,-0.387C0.242,-0.387 0.208,-0.372 0.18,-0.344C0.153,-0.316 0.139,-0.278 0.139,-0.232Z" style="fill:rgb(160,174,192);fill-rule:nonzero;"/>
                    </g>
                    <g transform="matrix(10,0,0,10,-10.554199,0)">
                        <path d="M0.082,-0L0.082,-0.716L0.565,-0.716L0.565,-0.631L0.177,-0.631L0.177,-0.41L0.513,-0.41L0.513,-0.325L0.177,-0.325L0.177,-0L0.082,-0Z" style="fill:rgb(160,174,192);fill-rule:nonzero;"/>
                    </g>
                    <g transform="matrix(10,0,0,10,-4.445801,0)">
                        <rect x="0.093" y="-0.716" width="0.095" height="0.716" style="fill:rgb(160,174,192);fill-rule:nonzero;"/>
                    </g>
                    <g transform="matrix(10,0,0,10,-1.66748,0)">
                        <path d="M0.079,-0L0.079,-0.716L0.597,-0.716L0.597,-0.631L0.174,-0.631L0.174,-0.412L0.57,-0.412L0.57,-0.328L0.174,-0.328L0.174,-0.084L0.613,-0.084L0.613,-0L0.079,-0Z" style="fill:rgb(160,174,192);fill-rule:nonzero;"/>
                    </g>
                    <g transform="matrix(10,0,0,10,5.002441,0)">
                        <path d="M0.073,-0L0.073,-0.716L0.168,-0.716L0.168,-0.084L0.521,-0.084L0.521,-0L0.073,-0Z" style="fill:rgb(160,174,192);fill-rule:nonzero;"/>
                    </g>
                    <g transform="matrix(10,0,0,10,10.563965,0)">
                        <path d="M0.077,-0L0.077,-0.716L0.324,-0.716C0.379,-0.716 0.422,-0.712 0.451,-0.706C0.492,-0.696 0.527,-0.679 0.556,-0.654C0.594,-0.622 0.622,-0.582 0.641,-0.532C0.66,-0.482 0.669,-0.426 0.669,-0.362C0.669,-0.307 0.663,-0.259 0.65,-0.217C0.637,-0.175 0.621,-0.141 0.601,-0.113C0.581,-0.086 0.559,-0.064 0.536,-0.048C0.512,-0.032 0.484,-0.02 0.45,-0.012C0.417,-0.004 0.379,-0 0.335,-0L0.077,-0ZM0.172,-0.084L0.325,-0.084C0.372,-0.084 0.409,-0.089 0.436,-0.098C0.463,-0.106 0.484,-0.119 0.5,-0.135C0.522,-0.157 0.54,-0.187 0.552,-0.225C0.565,-0.263 0.571,-0.309 0.571,-0.363C0.571,-0.438 0.559,-0.496 0.534,-0.536C0.51,-0.576 0.48,-0.603 0.445,-0.617C0.419,-0.626 0.379,-0.631 0.322,-0.631L0.172,-0.631L0.172,-0.084Z" style="fill:rgb(160,174,192);fill-rule:nonzero;"/>
                    </g>
                    <g transform="matrix(10,0,0,10,17.785645,0)">
                        <path d="M0.045,-0.23L0.134,-0.238C0.139,-0.202 0.148,-0.173 0.164,-0.15C0.179,-0.127 0.203,-0.108 0.236,-0.094C0.268,-0.08 0.305,-0.073 0.346,-0.073C0.382,-0.073 0.414,-0.078 0.441,-0.089C0.469,-0.1 0.49,-0.114 0.503,-0.133C0.517,-0.152 0.523,-0.172 0.523,-0.194C0.523,-0.217 0.517,-0.236 0.504,-0.253C0.491,-0.27 0.469,-0.284 0.439,-0.295C0.42,-0.303 0.378,-0.315 0.312,-0.33C0.246,-0.346 0.2,-0.361 0.174,-0.375C0.14,-0.393 0.114,-0.415 0.097,-0.442C0.081,-0.468 0.072,-0.498 0.072,-0.531C0.072,-0.567 0.083,-0.601 0.103,-0.632C0.124,-0.663 0.153,-0.687 0.193,-0.704C0.232,-0.72 0.276,-0.728 0.324,-0.728C0.377,-0.728 0.424,-0.719 0.465,-0.702C0.505,-0.685 0.536,-0.66 0.558,-0.627C0.58,-0.594 0.592,-0.556 0.593,-0.514L0.502,-0.507C0.498,-0.553 0.481,-0.587 0.453,-0.61C0.425,-0.633 0.383,-0.645 0.328,-0.645C0.271,-0.645 0.229,-0.634 0.203,-0.613C0.177,-0.592 0.164,-0.567 0.164,-0.537C0.164,-0.511 0.173,-0.49 0.191,-0.474C0.21,-0.457 0.257,-0.44 0.334,-0.423C0.411,-0.405 0.464,-0.39 0.493,-0.377C0.534,-0.358 0.565,-0.333 0.585,-0.304C0.605,-0.274 0.615,-0.241 0.615,-0.202C0.615,-0.164 0.604,-0.128 0.582,-0.094C0.56,-0.061 0.529,-0.035 0.488,-0.016C0.447,0.003 0.401,0.012 0.35,0.012C0.285,0.012 0.231,0.003 0.187,-0.016C0.143,-0.035 0.109,-0.063 0.084,-0.101C0.059,-0.139 0.046,-0.182 0.045,-0.23Z" style="fill:rgb(160,174,192);fill-rule:nonzero;"/>
                    </g>
                </g>
            </g>
        </g>
    </g>
</svg>
