<?xml version="1.0" encoding="UTF-8" standalone="no"?><!DOCTYPE svg PUBLIC "-//W3C//DTD SVG 1.1//EN" "http://www.w3.org/Graphics/SVG/1.1/DTD/svg11.dtd"><svg width="100%" height="100%" viewBox="0 0 2592 2314" version="1.1" xmlns="http://www.w3.org/2000/svg" xmlns:xlink="http://www.w3.org/1999/xlink" xml:space="preserve" xmlns:serif="http://www.serif.com/" style="fill-rule:evenodd;clip-rule:evenodd;"><rect x="0" y="0" width="2591.923" height="2313.811" style="fill:#161616;"/><g transform="matrix(100,0,0,100,1949.813721,130.717539)"></g><text x="69.882px" y="130.718px" style="font-family:'Arial-BoldMT', 'Arial', sans-serif;font-weight:700;font-size:100px;fill:#fff;">MDA<tspan x="293.906px 321.689px " y="130.718px 130.718px "> B</tspan>ox Drawing Character Rendering</text><g transform="matrix(3.125,0,0,3.125,69.882081,224.467539)"><text x="0px" y="0px" style="font-family:'ArialMT', 'Arial', sans-serif;font-size:18px;fill:#aaa;">Box-drawing characters (</text><text x="200.074px" y="0px" style="font-family:'Consolas-Bold', 'Consolas', monospace;font-weight:700;font-size:18px;fill:#00c8ff;">C0</text><text x="219.867px" y="0px" style="font-family:'Consolas-Bold', 'Consolas', monospace;font-weight:700;font-size:18px;fill:#aaa;">h</text><text x="239.66px" y="0px" style="font-family:'Consolas', monospace;font-size:18px;fill:#aaa;">-</text><text x="259.453px" y="0px" style="font-family:'Consolas-Bold', 'Consolas', monospace;font-weight:700;font-size:18px;fill:#00c8ff;">D</text><text x="269.35px" y="0px" style="font-family:'Consolas', monospace;font-size:18px;fill:#00c8ff;">F</text><text x="279.246px" y="0px" style="font-family:'Consolas-Bold', 'Consolas', monospace;font-weight:700;font-size:18px;fill:#aaa;">h</text><g transform="matrix(18,0,0,18,619.330078,0)"></g><text x="289.143px" y="0px" style="font-family:'ArialMT', 'Arial', sans-serif;font-size:18px;fill:#aaa;">) have their 8th column of pixels repeated</text></g><g id="Raw-Data-Byte-Box" serif:id="Raw Data Byte Box"><path d="M1191.345,321.18l0,420.951c0,10.348 -8.402,18.75 -18.75,18.75l-1087.5,0c-10.348,0 -18.75,-8.402 -18.75,-18.75l0,-420.951c0,-10.348 8.402,-18.75 18.75,-18.75l1087.5,0c10.348,0 18.75,8.402 18.75,18.75Z" style="fill:#2a2a2a;stroke:#444;stroke-width:5.77px;"/><path d="M66.345,407.219l1125,0" style="fill:none;fill-rule:nonzero;stroke:#444;stroke-width:5.77px;"/></g><g transform="matrix(3.125,0,0,3.125,628.845093,380.555446)"><text x="-154.984px" y="0px" style="font-family:'Arial-BoldMT', 'Arial', sans-serif;font-weight:700;font-size:16px;fill:#ddd;">Raw Data Byte From ROM (Row 7 of</text><text x="123.266px" y="0px" style="font-family:'Consolas-Bold', 'Consolas', monospace;font-weight:700;font-size:16px;fill:#00c8ff;">CE</text><text x="140.859px" y="0px" style="font-family:'Consolas-Bold', 'Consolas', monospace;font-weight:700;font-size:16px;fill:#ddd;">h</text><text x="149.656px" y="0px" style="font-family:'Arial-BoldMT', 'Arial', sans-serif;font-weight:700;font-size:16px;fill:#ddd;">)</text></g><g id="Glyph-Span-Column-Labels" serif:id="Glyph Span Column Labels"><g><g transform="matrix(37.5,0,0,37.5,1030.117676,508.680446)"></g><text x="1009.262px" y="508.68px" style="font-family:'ArialMT', 'Arial', sans-serif;font-size:37.5px;fill:#888;">0</text><text x="352.792px" y="508.68px" style="font-family:'ArialMT', 'Arial', sans-serif;font-size:37.5px;fill:#888;">6</text><text x="462.167px" y="508.68px" style="font-family:'ArialMT', 'Arial', sans-serif;font-size:37.5px;fill:#888;">5</text><text x="571.542px" y="508.68px" style="font-family:'ArialMT', 'Arial', sans-serif;font-size:37.5px;fill:#888;">4</text><text x="680.917px" y="508.68px" style="font-family:'ArialMT', 'Arial', sans-serif;font-size:37.5px;fill:#888;">3</text><text x="790.292px" y="508.68px" style="font-family:'ArialMT', 'Arial', sans-serif;font-size:37.5px;fill:#888;">2</text><text x="899.667px" y="508.68px" style="font-family:'ArialMT', 'Arial', sans-serif;font-size:37.5px;fill:#888;">1</text><g transform="matrix(37.5,0,0,37.5,264.181397,508.680446)"></g><text x="243.326px" y="508.68px" style="font-family:'ArialMT', 'Arial', sans-serif;font-size:37.5px;fill:#fcca02;">7</text></g></g><g id="Bit-Rectangles" serif:id="Bit Rectangles"><rect x="972.595" y="527.43" width="93.75" height="93.75" style="fill:#111;stroke:#555;stroke-width:4.05px;"/><rect x="316.345" y="527.43" width="93.75" height="93.75" style="fill:#111;stroke:#555;stroke-width:4.05px;"/><rect x="425.72" y="527.43" width="93.75" height="93.75" style="fill:#111;stroke:#555;stroke-width:4.05px;"/><rect x="535.095" y="527.43" width="93.75" height="93.75" style="fill:#111;stroke:#555;stroke-width:4.05px;"/><rect x="644.47" y="527.43" width="93.75" height="93.75" style="fill:#111;stroke:#555;stroke-width:4.05px;"/><rect x="753.845" y="527.43" width="93.75" height="93.75" style="fill:#111;stroke:#555;stroke-width:4.05px;"/><rect x="863.22" y="527.43" width="93.75" height="93.75" style="fill:#111;stroke:#555;stroke-width:4.05px;"/><rect x="206.97" y="527.43" width="93.75" height="93.75" style="fill:#111;stroke:#fc0;stroke-width:4.05px;"/></g><g id="Binary-Bits" serif:id="Binary Bits"><g transform="matrix(56.25,0,0,56.25,269.30835,593.055446)"></g><text x="238.382px" y="593.055px" style="font-family:'Consolas-Bold', 'Consolas', monospace;font-weight:700;font-size:56.25px;fill:#fff;">1</text><g transform="matrix(56.25,0,0,56.25,378.68335,593.055446)"></g><text x="347.757px" y="593.055px" style="font-family:'Consolas-Bold', 'Consolas', monospace;font-weight:700;font-size:56.25px;fill:#fff;">1</text><g transform="matrix(56.25,0,0,56.25,488.05835,593.055446)"></g><text x="457.132px" y="593.055px" style="font-family:'Consolas-Bold', 'Consolas', monospace;font-weight:700;font-size:56.25px;fill:#fff;">1</text><g transform="matrix(56.25,0,0,56.25,597.43335,593.055446)"></g><text x="566.507px" y="593.055px" style="font-family:'Consolas-Bold', 'Consolas', monospace;font-weight:700;font-size:56.25px;fill:#fff;">0</text><text x="675.882px" y="593.055px" style="font-family:'Consolas-Bold', 'Consolas', monospace;font-weight:700;font-size:56.25px;fill:#fff;">1</text><text x="785.257px" y="593.055px" style="font-family:'Consolas-Bold', 'Consolas', monospace;font-weight:700;font-size:56.25px;fill:#fff;">1</text><text x="894.632px" y="593.055px" style="font-family:'Consolas-Bold', 'Consolas', monospace;font-weight:700;font-size:56.25px;fill:#fff;">1</text><text x="1004.007px" y="593.055px" style="font-family:'Consolas-Bold', 'Consolas', monospace;font-weight:700;font-size:56.25px;fill:#fff;">1</text></g><g id="Raw-Glyph-Box" serif:id="Raw Glyph Box"><path d="M1191.345,844.058l0,1383.052c0,10.348 -8.402,18.75 -18.75,18.75l-1087.5,0c-10.348,0 -18.75,-8.402 -18.75,-18.75l0,-1383.052c0,-10.348 8.402,-18.75 18.75,-18.75l1087.5,0c10.348,0 18.75,8.402 18.75,18.75Z" style="fill:#2a2a2a;stroke:#444;stroke-width:6.35px;"/><path d="M66.345,942.57l1125,0" style="fill:none;fill-rule:nonzero;stroke:#444;stroke-width:6.25px;"/></g><g transform="matrix(3.125,0,0,3.125,628.845093,901.944924)"><text x="-102.973px" y="0px" style="font-family:'Arial-BoldMT', 'Arial', sans-serif;font-weight:700;font-size:16px;fill:#ddd;">Raw Glyph from ROM (</text><text x="71.254px" y="0px" style="font-family:'Consolas-Bold', 'Consolas', monospace;font-weight:700;font-size:16px;fill:#00c8ff;">CE</text><text x="88.848px" y="0px" style="font-family:'Consolas-Bold', 'Consolas', monospace;font-weight:700;font-size:16px;fill:#ddd;">h</text><g transform="matrix(16,0,0,16,102.972656,0)"></g><text x="97.645px" y="0px" style="font-family:'Arial-BoldMT', 'Arial', sans-serif;font-weight:700;font-size:16px;fill:#ddd;">)</text></g><rect x="347.595" y="1036.32" width="625" height="1093.75" style="fill:#111;"/><rect x="426.303" y="1036.32" width="153.58" height="389.104" style="fill:#aaa;"/><rect x="426.303" y="1661.394" width="153.58" height="468.676" style="fill:#aaa;"/><rect x="663.302" y="1661.32" width="153.58" height="468.676" style="fill:#aaa;"/><rect x="660.632" y="1036.32" width="153.58" height="389.104" style="fill:#aaa;"/><rect x="347.595" y="1425.424" width="232.288" height="78.125" style="fill:#aaa;"/><rect x="347.595" y="1583.195" width="232.288" height="78.125" style="fill:#aaa;"/><rect x="660.632" y="1425.424" width="312.5" height="78.125" style="fill:#aaa;"/><rect x="663.302" y="1583.195" width="309.293" height="78.125" style="fill:#aaa;"/><path d="M347.595,1036.32l0,1093.75m78.125,-1093.75l0,1093.75m78.125,-1093.75l0,1093.75m78.125,-1093.75l0,1093.75m78.125,-1093.75l0,1093.75m78.125,-1093.75l0,1093.75m78.125,-1093.75l0,1093.75m78.125,-1093.75l0,1093.75m78.125,-1093.75l0,1093.75" style="fill-rule:nonzero;stroke:#444;stroke-width:3.13px;"/><path d="M347.595,1036.32l625,0m-625,78.125l625,0m-625,78.125l625,0m-625,78.125l625,0m-625,78.125l625,0m-625,78.125l625,0m-625,78.125l625,0m-625,78.125l625,0m-625,78.125l625,0m-625,78.125l625,0m-625,78.125l625,0m-625,78.125l625,0m-625,78.125l625,0m-625,78.125l625,0m-625,78.125l625,0" style="fill-rule:nonzero;stroke:#444;stroke-width:3.13px;"/><text x="922.546px" y="1011.32px" style="font-family:'Consolas', monospace;font-size:37.5px;fill:#777;">0</text><text x="844.311px" y="1011.32px" style="font-family:'Consolas', monospace;font-size:37.5px;fill:#777;">1</text><text x="765.765px" y="1011.32px" style="font-family:'Consolas', monospace;font-size:37.5px;fill:#777;">2</text><text x="687.787px" y="1011.32px" style="font-family:'Consolas', monospace;font-size:37.5px;fill:#777;">3</text><text x="610.229px" y="1011.32px" style="font-family:'Consolas', monospace;font-size:37.5px;fill:#777;">4</text><text x="531.427px" y="1011.32px" style="font-family:'Consolas', monospace;font-size:37.5px;fill:#777;">5</text><text x="453.412px" y="1011.32px" style="font-family:'Consolas', monospace;font-size:37.5px;fill:#777;">6</text><text x="375.818px" y="1011.32px" style="font-family:'Consolas', monospace;font-size:37.5px;fill:#fc0;">7</text><path d="M283.814,1583.204l-31.25,0l0,78.125l31.25,0" style="fill:none;fill-rule:nonzero;stroke:#ddd;stroke-width:6.25px;"/><text x="103.555px" y="1636.329px" style="font-family:'ArialMT', 'Arial', sans-serif;font-size:43.75px;fill:#ddd;">Row 7</text><rect x="348.178" y="1036.32" width="78.125" height="1093.75" style="fill:none;stroke:#fc0;stroke-width:6.25px;stroke-dasharray:12.5,12.5;"/><g id="Rendered-Glyph-Box" serif:id="Rendered Glyph Box"><path d="M2534.372,320.788l0,1905.93c0,10.348 -8.402,18.75 -18.75,18.75l-1212.937,0c-10.348,0 -18.75,-8.402 -18.75,-18.75l0,-1905.93c0,-10.348 8.402,-18.75 18.75,-18.75l1212.937,0c10.348,0 18.75,8.402 18.75,18.75Z" style="fill:#2a2a2a;stroke:#444;stroke-width:6.01px;"/><path d="M1283.935,427.038l1250.437,0" style="fill:none;fill-rule:nonzero;stroke:#444;stroke-width:6.1px;"/></g><rect x="1602.274" y="2013.054" width="583.772" height="113.744"/><g transform="matrix(50,0,0,50,2102.098051,380.555446)"></g><text x="1715.916px" y="380.555px" style="font-family:'Arial-BoldMT', 'Arial', sans-serif;font-weight:700;font-size:50px;fill:#ddd;">Rendered Glyph</text><rect x="1581.97" y="708.68" width="703.125" height="1093.75"/><rect x="2206.97" y="708.68" width="78.125" height="1093.75" style="fill:#0a1a0a;"/><rect x="1739.175" y="708.68" width="155.672" height="389.104" style="fill:#5f5;"/><path d="M1633.863,2013.054l0,48.589l-32.538,0l0,-8.125l16.348,0l0,-40.465l16.189,0Zm8.133,113.744l-0,-56.869l32.451,0l0,8.125l-16.262,0l0,48.744l-16.189,0Zm-24.401,-48.748l-16.269,0l0,-8.125l32.538,0l0,8.125l-0.08,0l0,48.748l-16.189,0l0,-48.748Zm40.5,-24.684l16.316,0l0,8.125l-32.451,0l0,-7.815l0.036,0l0,-40.623l16.189,0l-0.091,40.312Z" style="fill:#5f5;"/><path d="M2153.759,2013.054l0,48.589l32.538,0l0,-8.125l-16.348,0l0,-40.465l-16.189,0Zm-8.133,113.744l0,-56.869l-32.451,0l0,8.125l16.262,0l0,48.744l16.189,0Zm24.401,-48.748l16.269,0l0,-8.125l-32.538,0l0,8.125l0.08,0l0,48.748l16.189,0l0,-48.748Zm-40.5,-24.684l-16.316,0l0,8.125l32.451,0l0,-7.815l-0.036,0l0,-40.623l-16.189,0l0.091,40.312Z" style="fill:#5f5;"/><path d="M1715.031,2013.054l0,48.589l32.538,0l0,-8.125l-16.348,0l0,-40.465l-16.189,0Zm-8.133,113.744l0,-56.869l-32.451,0l0,8.125l16.262,0l0,48.744l16.189,0Zm24.401,-48.748l16.269,0l0,-8.125l-32.538,0l0,8.125l0.08,0l0,48.748l16.189,0l0,-48.748Zm-40.5,-24.684l-16.316,0l0,8.125l32.451,0l0,-7.815l-0.036,0l0,-40.623l-16.189,0l0.091,40.312Z" style="fill:#5f5;"/><path d="M2072.591,2013.054l0,48.589l-32.538,0l0,-8.125l16.348,0l0,-40.465l16.189,0Zm8.133,113.744l-0,-56.869l32.451,0l0,8.125l-16.262,0l0,48.744l-16.189,0Zm-24.401,-48.748l-16.269,0l0,-8.125l32.538,0l0,8.125l-0.08,0l0,48.748l-16.189,0l0,-48.748Zm40.5,-24.684l16.316,0l0,8.125l-32.451,0l0,-7.815l0.036,0l0,-40.623l16.189,0l-0.091,40.312Z" style="fill:#5f5;"/><path d="M1780.106,2013.054l0,48.589l-32.538,0l0,-8.125l16.348,0l0,-40.465l16.189,0Zm8.133,113.744l-0,-56.869l32.451,0l0,8.125l-16.262,0l0,48.744l-16.189,0Zm-24.401,-48.748l-16.269,0l0,-8.125l32.538,0l0,8.125l-0.08,0l0,48.748l-16.189,0l0,-48.748Zm40.5,-24.684l16.316,0l0,8.125l-32.451,0l0,-7.815l0.036,0l0,-40.623l16.189,0l-0.091,40.312Z" style="fill:#5f5;"/><path d="M2007.516,2013.054l0,48.589l32.538,0l0,-8.125l-16.348,0l0,-40.465l-16.189,0Zm-8.133,113.744l0,-56.869l-32.451,0l0,8.125l16.262,0l0,48.744l16.189,0Zm24.401,-48.748l16.269,0l0,-8.125l-32.538,0l0,8.125l0.08,0l0,48.748l16.189,0l0,-48.748Zm-40.5,-24.684l-16.316,0l0,8.125l32.451,0l0,-7.815l-0.036,0l0,-40.623l-16.189,0l0.091,40.312Z" style="fill:#5f5;"/><path d="M1861.273,2013.054l0,48.589l32.538,0l0,-8.125l-16.348,0l0,-40.465l-16.189,0Zm-8.133,113.744l0,-56.869l-32.451,0l0,8.125l16.262,0l0,48.744l16.189,0Zm24.401,-48.748l16.269,0l0,-8.125l-32.538,0l0,8.125l0.08,0l0,48.748l16.189,0l0,-48.748Zm-40.5,-24.684l-16.316,0l0,8.125l32.451,0l0,-7.815l-0.036,0l0,-40.623l-16.189,0l0.091,40.312Z" style="fill:#5f5;"/><path d="M1926.348,2013.054l0,48.589l-32.538,0l0,-8.125l16.348,0l0,-40.465l16.189,0Zm8.133,113.744l-0,-56.869l32.451,0l0,8.125l-16.262,0l0,48.744l-16.189,0Zm-24.401,-48.748l-16.269,0l0,-8.125l32.538,0l0,8.125l-0.08,0l0,48.748l-16.189,0l0,-48.748Zm40.5,-24.684l16.316,0l0,8.125l-32.451,0l0,-7.815l0.036,0l0,-40.623l16.189,0l-0.091,40.312Z" style="fill:#5f5;"/><rect x="1738.409" y="1333.68" width="155.672" height="468.75" style="fill:#5f5;"/><rect x="1973.05" y="708.68" width="155.672" height="389.104" style="fill:#5f5;"/><rect x="1973.05" y="1333.68" width="155.672" height="468.75" style="fill:#5f5;"/><rect x="1972.7" y="1099.305" width="312.045" height="78.125" style="fill:#5f5;"/><rect x="1973.05" y="1255.555" width="312.045" height="78.125" style="fill:#5f5;"/><rect x="1581.97" y="1097.785" width="312.877" height="78.125" style="fill:#5f5;"/><rect x="1581.97" y="1255.555" width="312.877" height="78.125" style="fill:#5f5;"/><path d="M1581.97,708.68l0,1093.75m78.125,-1093.75l0,1093.75m78.125,-1093.75l0,1093.75m78.125,-1093.75l0,1093.75m78.125,-1093.75l0,1093.75m78.125,-1093.75l0,1093.75m78.125,-1093.75l0,1093.75m78.125,-1093.75l0,1093.75m78.125,-1093.75l0,1093.75m78.125,-1093.75l0,1093.75" style="fill-rule:nonzero;stroke:#2a2a2a;stroke-width:3.13px;"/><path d="M1581.97,708.68l703.125,0m-703.125,78.125l703.125,0m-703.125,78.125l703.125,0m-703.125,78.125l703.125,0m-703.125,78.125l703.125,0m-703.125,78.125l703.125,0m-703.125,78.125l703.125,0m-703.125,78.125l703.125,0m-703.125,78.125l703.125,0m-703.125,78.125l703.125,0m-703.125,78.125l703.125,0m-703.125,78.125l703.125,0m-703.125,78.125l703.125,0m-703.125,78.125l703.125,0m-703.125,78.125l703.125,0" style="fill-rule:nonzero;stroke:#2a2a2a;stroke-width:3.13px;"/><rect x="2206.97" y="708.68" width="78.125" height="1093.75" style="fill:none;stroke:#fc0;stroke-width:6.25px;stroke-dasharray:12.5,12.5;"/><text x="2182.495px" y="1880.555px" style="font-family:'Arial-BoldMT', 'Arial', sans-serif;font-weight:700;font-size:37.5px;fill:#fc0;">9th Col</text><text x="324.398px" y="2172.996px" style="font-family:'Arial-BoldMT', 'Arial', sans-serif;font-weight:700;font-size:37.5px;fill:#fc0;">8th Col</text><path d="M1581.97,1818.055l0,15.625l625,0l0,-15.625" style="fill:none;fill-rule:nonzero;stroke:#aaa;stroke-width:6.25px;"/><text x="1640.219px" y="1880.555px" style="font-family:'ArialMT', 'Arial', sans-serif;font-size:37.5px;fill:#aaa;">8 Columns mapped from ROM</text><g transform="matrix(37.5,0,0,37.5,2026.124926,2187.603215)"></g><text x="1755.111px" y="2187.603px" style="font-family:'ArialMT', 'Arial', sans-serif;font-size:37.5px;fill:#aaa;">Repeated Glyph</text><g id="Glyph-Column-Labels" serif:id="Glyph Column Labels"><text x="1610.724px" y="677.43px" style="font-family:'Consolas', monospace;font-size:37.5px;fill:#777;">0</text><text x="1688.849px" y="677.43px" style="font-family:'Consolas', monospace;font-size:37.5px;fill:#777;">1</text><text x="1766.974px" y="677.43px" style="font-family:'Consolas', monospace;font-size:37.5px;fill:#777;">2</text><text x="1845.099px" y="677.43px" style="font-family:'Consolas', monospace;font-size:37.5px;fill:#777;">3</text><text x="1923.224px" y="677.43px" style="font-family:'Consolas', monospace;font-size:37.5px;fill:#777;">4</text><text x="2001.349px" y="677.43px" style="font-family:'Consolas', monospace;font-size:37.5px;fill:#777;">5</text><text x="2079.474px" y="677.43px" style="font-family:'Consolas', monospace;font-size:37.5px;fill:#777;">6</text><text x="2157.599px" y="677.43px" style="font-family:'Consolas', monospace;font-size:37.5px;fill:#0af;">7</text><text x="2235.724px" y="677.43px" style="font-family:'Consolas', monospace;font-size:37.5px;fill:#fc0;">8</text></g><g id="Glyph-Row-Labels" serif:id="Glyph Row Labels"><text x="1514.477px" y="758.68px" style="font-family:'Consolas', monospace;font-size:37.5px;fill:#777;">0</text><text x="1514.477px" y="836.805px" style="font-family:'Consolas', monospace;font-size:37.5px;fill:#777;">1</text><text x="1514.477px" y="914.93px" style="font-family:'Consolas', monospace;font-size:37.5px;fill:#777;">2</text><text x="1514.477px" y="993.055px" style="font-family:'Consolas', monospace;font-size:37.5px;fill:#777;">3</text><text x="1514.477px" y="1071.18px" style="font-family:'Consolas', monospace;font-size:37.5px;fill:#777;">4</text><text x="1514.477px" y="1149.305px" style="font-family:'Consolas', monospace;font-size:37.5px;fill:#777;">5</text><text x="1514.477px" y="1227.43px" style="font-family:'Consolas', monospace;font-size:37.5px;fill:#777;">6</text><text x="1514.477px" y="1305.555px" style="font-family:'Consolas', monospace;font-size:37.5px;fill:#ddd;">7</text><text x="1514.477px" y="1383.68px" style="font-family:'Consolas', monospace;font-size:37.5px;fill:#777;">8</text><text x="1514.477px" y="1461.805px" style="font-family:'Consolas', monospace;font-size:37.5px;fill:#777;">9</text><text x="1493.86px" y="1539.93px" style="font-family:'Consolas', monospace;font-size:37.5px;fill:#777;">10</text><text x="1493.86px" y="1618.055px" style="font-family:'Consolas', monospace;font-size:37.5px;fill:#777;">11</text><text x="1493.86px" y="1696.18px" style="font-family:'Consolas', monospace;font-size:37.5px;fill:#777;">12</text><text x="1493.86px" y="1774.305px" style="font-family:'Consolas', monospace;font-size:37.5px;fill:#777;">13</text></g><g id="Glyph-Row-Labels1" serif:id="Glyph Row Labels"><text x="286.041px" y="1087.358px" style="font-family:'Consolas', monospace;font-size:37.5px;fill:#777;">0</text><text x="286.041px" y="1165.483px" style="font-family:'Consolas', monospace;font-size:37.5px;fill:#777;">1</text><text x="286.041px" y="1243.608px" style="font-family:'Consolas', monospace;font-size:37.5px;fill:#777;">2</text><text x="286.041px" y="1321.733px" style="font-family:'Consolas', monospace;font-size:37.5px;fill:#777;">3</text><text x="286.041px" y="1399.858px" style="font-family:'Consolas', monospace;font-size:37.5px;fill:#777;">4</text><text x="286.041px" y="1477.983px" style="font-family:'Consolas', monospace;font-size:37.5px;fill:#777;">5</text><text x="286.041px" y="1556.108px" style="font-family:'Consolas', monospace;font-size:37.5px;fill:#777;">6</text><text x="286.041px" y="1634.233px" style="font-family:'Consolas', monospace;font-size:37.5px;fill:#ddd;">7</text><text x="286.041px" y="1712.358px" style="font-family:'Consolas', monospace;font-size:37.5px;fill:#777;">8</text><text x="286.041px" y="1790.483px" style="font-family:'Consolas', monospace;font-size:37.5px;fill:#777;">9</text><text x="265.424px" y="1868.608px" style="font-family:'Consolas', monospace;font-size:37.5px;fill:#777;">10</text><text x="265.424px" y="1946.733px" style="font-family:'Consolas', monospace;font-size:37.5px;fill:#777;">11</text><text x="265.424px" y="2024.858px" style="font-family:'Consolas', monospace;font-size:37.5px;fill:#777;">12</text><text x="265.424px" y="2102.983px" style="font-family:'Consolas', monospace;font-size:37.5px;fill:#777;">13</text></g><path d="M2261.372,604.208l-15.339,30.678l-15.339,-30.678l30.678,0Z" style="fill:#fc0;fill-rule:nonzero;"/><path d="M255.344,640.257l0.198,25.256l981.118,0l0.001,-130.63l1009.371,0l0,75.461" style="fill:none;fill-rule:nonzero;stroke:#fc0;stroke-width:5.11px;stroke-dasharray:15.339,10.226;"/><path d="M162.382,563.083l23.096,11.223l-22.836,11.743l-0.26,-22.966Z" style="fill:#a4a4a4;fill-rule:nonzero;"/><path d="M124.065,1573.872l-5.359,-998.81c0,0 28.633,-0.325 48.399,-0.549" style="fill:none;fill-rule:nonzero;stroke:#a4a4a4;stroke-width:5.11px;stroke-dasharray:15.339,10.226;"/><circle cx="255.542" cy="622.384" r="12.5" style="fill:#fc0;"/><rect x="1582.556" y="503.633" width="500" height="62.5" style="fill:#161616;"/><text x="1605.844px" y="544.807px" style="font-family:'ArialMT', 'Arial', sans-serif;font-size:37.5px;fill:#fc0;">Duplicated for 0xC0 - 0xDF</text><path d="M1506.883,1255.555l-31.25,0l0,78.125l31.25,0" style="fill:none;fill-rule:nonzero;stroke:#ddd;stroke-width:6.25px;"/><text x="1326.624px" y="1308.68px" style="font-family:'ArialMT', 'Arial', sans-serif;font-size:43.75px;fill:#ddd;">Row 7</text></svg>