<?xml version="1.0" encoding="UTF-8" standalone="no"?><!DOCTYPE svg PUBLIC "-//W3C//DTD SVG 1.1//EN" "http://www.w3.org/Graphics/SVG/1.1/DTD/svg11.dtd"><svg width="100%" height="100%" viewBox="0 0 2224 1539" version="1.1" xmlns="http://www.w3.org/2000/svg" xmlns:xlink="http://www.w3.org/1999/xlink" xml:space="preserve" xmlns:serif="http://www.serif.com/" style="fill-rule:evenodd;clip-rule:evenodd;stroke-linejoin:round;"><path d="M1846.094,1240.322l375,-375l0,281.25l-375,375l0,-281.25Z" style="fill:url(#_Linear1);fill-rule:nonzero;stroke:#524f4f;stroke-width:3.13px;"/><path d="M1846.094,1209.072l375,-375l0,31.25l-375,375l0,-31.25Z" style="fill:#18181b;fill-rule:nonzero;stroke:#000;stroke-width:3.13px;"/><rect x="2.344" y="1240.322" width="1843.75" height="281.25" style="fill:url(#_Linear2);fill-rule:nonzero;stroke:#524f4f;stroke-width:3.13px;"/><rect x="2.344" y="1209.072" width="1843.75" height="31.25" style="fill:#47474f;fill-rule:nonzero;stroke:#111;stroke-width:3.13px;"/><path id="Top-Deck" serif:id="Top Deck" d="M2.344,1209.072l1843.75,0l375,-375l-1843.75,0l-375,375Z" style="fill:url(#_Linear3);fill-rule:nonzero;stroke:#222;stroke-width:4.69px;"/><g id="track-mark"><path d="M1323.518,1048.017l174.155,0l88.19,-88.19l-174.155,0l-88.19,88.19Z" style="fill:url(#_Linear4);fill-rule:nonzero;stroke:#fff;stroke-opacity:0.4;stroke-width:4.69px;"/><path d="M1711.084,1048.017l242.751,0l89.905,-88.19l-244.466,0l-88.19,88.19Z" style="fill:url(#_Linear5);fill-rule:nonzero;stroke:#fff;stroke-opacity:0.4;stroke-width:4.69px;"/><path d="M1516.958,1048.017l174.155,0l88.19,-88.19l-174.155,0l-88.19,88.19Z" style="fill:url(#_Linear6);fill-rule:nonzero;stroke:#fff;stroke-opacity:0.4;stroke-width:4.69px;"/><path d="M1129.698,1046.677l174.155,0l88.19,-88.19l-174.155,0l-88.19,88.19Z" style="fill:url(#_Linear7);fill-rule:nonzero;stroke:#fff;stroke-opacity:0.4;stroke-width:4.69px;"/><g><path d="M1357.889,1029.005c17.501,-17.637 35.003,-35.274 52.504,-52.911l8.804,0.103l-7.926,41.814l41.991,-41.414l8.229,0.097c-17.89,17.572 -35.781,35.144 -53.671,52.716l-8.603,-0.07l8.119,-41.824l-41.406,41.553l-8.041,-0.065Z" style="fill:#fff;fill-rule:nonzero;"/><path d="M1461.169,1012.81l8.567,-0.499l-4.106,6.493c-0.426,1.904 0.568,3.215 2.138,4.14c2.287,1.348 5.62,1.62 8.121,1.641l9.739,-1.108l8.908,-3.189l6.553,-4.471l2.818,-4.324c0.176,-1.598 -1.301,-2.579 -2.489,-3.148l-8.706,-2.67l-8.947,-3.4c-1.624,-1.29 -2.302,-2.92 -1.763,-4.963c0.656,-2.486 2.792,-4.889 4.534,-6.567l10.503,-7.409l13.596,-5.157l13.775,-1.651c3.224,0.038 7.727,0.366 10.741,2.028c2.251,1.241 3.244,3.068 2.612,5.621c-0.771,3.116 -3.45,6.179 -5.592,8.291l-8.705,0.413c1.087,-1.177 4.597,-4.988 3.469,-7.559c-1.161,-2.645 -7.193,-2.652 -8.597,-2.668c-4.642,-0.053 -9.367,0.518 -13.734,2.182c-3.33,1.268 -6.75,3.031 -9.358,5.533c-0.933,0.896 -2.917,2.93 -2.353,4.685c0.924,3.105 5.763,3.114 8.912,3.876l10.686,3.49c1.971,1.267 3.172,3.001 2.598,5.426c-0.667,2.823 -3.319,5.653 -5.257,7.475l-11.281,7.853l-14.434,5.685l-14.381,1.958c-3.387,-0.027 -8.98,-0.294 -12.243,-2.194c-2.473,-1.441 -3.297,-3.575 -2.628,-6.332c0.863,-3.56 3.87,-7.053 6.306,-9.48Z" style="fill:#fff;fill-rule:nonzero;"/></g><g><path d="M1745.454,1029.005c17.501,-17.637 35.003,-35.274 52.504,-52.911l12.973,0.158l8.004,41.82l42.191,-41.209l12.125,0.148c-17.992,17.468 -35.983,34.937 -53.975,52.405l-12.719,-0.071l-7.77,-41.788l-41.445,41.514l-11.888,-0.066Z" style="fill:#fff;fill-rule:nonzero;"/><path d="M1889.942,1012.991l12.375,-0.476c-1.234,1.456 -3.273,4.136 -2.921,6.425c0.357,2.324 3.472,3.543 5.149,4.1l12.762,1.629l13.815,-1.085l11.576,-3.135l7.48,-4.4c0.989,-0.907 2.596,-2.597 2.051,-4.263c-0.59,-1.804 -4.008,-2.787 -5.188,-3.117l-14.101,-2.667l-14.799,-3.399c-1.953,-0.835 -4.738,-2.365 -4.97,-4.933c-0.232,-2.552 1.919,-4.989 3.527,-6.508c3.305,-3.12 7.807,-5.53 11.897,-7.316c5.568,-2.431 11.532,-4.027 17.505,-5.051l19.432,-1.555c5.143,0.063 11.686,0.468 16.738,2.081c2.478,0.791 6.153,2.365 6.538,5.587c0.379,3.174 -2.248,6.254 -4.214,8.176l-12.595,0.368c1.532,-1.724 4.138,-5.102 1.456,-7.47c-2.901,-2.562 -11.351,-2.665 -13.907,-2.694c-6.172,-0.071 -13.118,0.349 -19.128,2.091c-3.611,1.047 -8.222,2.747 -11.103,5.45c-1.153,1.082 -2.802,2.985 -1.216,4.642c3.494,3.788 9.871,3.098 14.965,3.88l17.4,3.493c2.13,0.764 6.039,2.406 6.451,5.369c0.402,2.889 -2.348,5.759 -4.106,7.362c-3.577,3.262 -8.439,5.823 -12.794,7.723c-5.908,2.578 -12.19,4.37 -18.507,5.592c-6.687,1.294 -13.44,1.964 -20.254,1.927c-5.514,-0.03 -13.571,-0.35 -19.117,-2.17c-2.881,-0.945 -6.484,-2.712 -6.93,-6.268c-0.455,-3.63 2.488,-7.161 4.732,-9.388Z" style="fill:#fff;fill-rule:nonzero;"/></g><g><path d="M1569.429,1010.622l8.03,-0.485l-3.851,6.536c-0.355,1.934 0.716,3.249 2.299,4.167c2.323,1.347 5.64,1.63 8.182,1.651l9.692,-1.116l8.78,-3.21l6.376,-4.5l2.648,-4.353c0.114,-1.613 -1.409,-2.6 -2.611,-3.169l-8.807,-2.686l-9.076,-3.422c-1.647,-1.277 -2.422,-2.911 -1.956,-4.995c0.573,-2.563 2.573,-4.846 4.328,-6.609l10.159,-7.46l13.389,-5.191l13.704,-1.663c3.277,0.039 7.757,0.378 10.815,2.04c2.267,1.232 3.368,3.057 2.83,5.658c-0.647,3.122 -3.185,6.196 -5.266,8.345l-8.686,0.416c1.121,-1.276 4.386,-5.049 3.172,-7.608c-1.251,-2.636 -7.163,-2.667 -8.697,-2.685c-4.606,-0.052 -9.318,0.513 -13.643,2.197c-3.269,1.273 -6.624,3.046 -9.138,5.569c-0.943,0.947 -2.795,2.969 -2.17,4.716c1.042,3.118 5.863,3.129 9.06,3.901l10.818,3.512c1.99,1.256 3.293,2.995 2.809,5.461c-0.554,2.829 -3.074,5.668 -4.963,7.525l-10.97,7.905l-14.207,5.723l-14.3,1.971c-3.455,-0.028 -9.01,-0.307 -12.325,-2.208c-2.494,-1.43 -3.443,-3.559 -2.875,-6.373c0.778,-3.848 3.87,-6.947 6.449,-9.561Z" style="fill:#fff;fill-rule:nonzero;"/><path d="M1638.483,1028.345c18.153,-17.528 36.306,-35.057 54.459,-52.585l8.804,0.103l-9.462,41.558l43.526,-41.158l8.229,0.097c-18.542,17.463 -37.084,34.927 -55.626,52.39l-8.603,-0.07l9.656,-41.568l-42.943,41.297l-8.041,-0.065Z" style="fill:#fff;fill-rule:nonzero;"/></g><g><path d="M1182.168,1009.282l8.03,-0.485l-3.851,6.536c-0.355,1.934 0.716,3.249 2.299,4.167c2.323,1.347 5.64,1.63 8.182,1.651l9.692,-1.116l8.78,-3.21l6.376,-4.5l2.648,-4.353c0.114,-1.613 -1.409,-2.6 -2.611,-3.169l-8.807,-2.686l-9.076,-3.422c-1.647,-1.277 -2.422,-2.911 -1.956,-4.995c0.573,-2.563 2.573,-4.846 4.328,-6.609l10.159,-7.46l13.389,-5.191l13.704,-1.663c3.277,0.039 7.757,0.378 10.815,2.04c2.267,1.232 3.368,3.057 2.83,5.658c-0.647,3.122 -3.185,6.196 -5.266,8.345l-8.686,0.416c1.121,-1.276 4.386,-5.049 3.172,-7.608c-1.251,-2.636 -7.163,-2.667 -8.697,-2.685c-4.606,-0.052 -9.318,0.513 -13.643,2.197c-3.269,1.273 -6.624,3.046 -9.138,5.569c-0.943,0.947 -2.795,2.969 -2.17,4.716c1.042,3.118 5.863,3.129 9.06,3.901l10.818,3.512c1.99,1.256 3.293,2.995 2.809,5.461c-0.554,2.829 -3.074,5.668 -4.963,7.525l-10.97,7.905l-14.207,5.723l-14.3,1.971c-3.455,-0.028 -9.01,-0.307 -12.325,-2.208c-2.494,-1.43 -3.443,-3.559 -2.875,-6.373c0.778,-3.848 3.87,-6.947 6.449,-9.561Z" style="fill:#fff;fill-rule:nonzero;"/><path d="M1251.222,1027.005c18.153,-17.528 36.306,-35.057 54.459,-52.585l8.804,0.103l-9.462,41.558l43.526,-41.158l8.229,0.097c-18.542,17.463 -37.084,34.927 -55.626,52.39l-8.603,-0.07l9.656,-41.568l-42.943,41.297l-8.041,-0.065Z" style="fill:#fff;fill-rule:nonzero;"/></g></g><g id="Track-Direction-Arrow" serif:id="Track Direction Arrow" opacity="0.5"><path d="M443.87,1127.674c97.707,-34.935 217.719,-76.463 345.31,-118.676c-10.373,-9.706 -61.351,-57.406 -135.467,-114.812c-21.152,23.927 -42.304,47.853 -63.456,71.78l-289.697,0c-21.683,28.88 -58.103,57.759 -79.785,86.639c91.347,0.002 197.431,0.003 288.778,0.005c-21.894,25.022 -43.788,50.043 -65.682,75.065Z" style="fill:url(#_Linear8);stroke:#000;stroke-width:4.13px;stroke-linecap:round;stroke-miterlimit:1.5;"/></g><g style="filter:url(#_Effect9);"><path id="Head-Shadow" serif:id="Head Shadow" d="M820.177,1094.992l500,0l187.5,-187.5l-500,0l-187.5,187.5Z" style="fill-opacity:0.4;fill-rule:nonzero;"/></g><path d="M1286.946,417.594l0,-375" style="fill:none;fill-rule:nonzero;stroke:url(#_Linear10);stroke-width:20.66px;stroke-linecap:round;stroke-linejoin:miter;"/><circle cx="1287.331" cy="34.674" r="14.062" style="fill:#fff;stroke:#111;stroke-width:4.69px;stroke-linejoin:miter;"/><path d="M1338.516,365.322l81.314,-81.314c0,0 1.049,541.437 1.049,556.314c0,57.289 -105.16,132.783 -105.16,132.783c14.847,-19.492 21.744,-41.14 22.798,-76.533l0,-531.25Z" style="fill:url(#_Linear11);fill-rule:nonzero;stroke:#222;stroke-width:4.69px;"/><g style="filter:url(#_Effect12);"><path d="M1280.696,47.862l0,369.732" style="fill:none;stroke:#ffe7aa;stroke-opacity:0.6;stroke-width:4.17px;stroke-linecap:round;stroke-linejoin:bevel;stroke-miterlimit:1.5;"/></g><path d="M994.766,896.931l100.003,-80.416l72.859,54.989l-94.582,88.351l-78.281,-62.925Z" style="fill:url(#_Linear13);stroke:#000;stroke-width:3.96px;stroke-linecap:round;stroke-miterlimit:1.5;"/><path d="M994.766,521.572l101.442,-57.372l-1.522,352.202l-98.387,80.529l-1.533,-375.359Z" style="fill:url(#_Linear14);fill-rule:nonzero;stroke:#111;stroke-width:4.17px;"/><path d="M1072.891,959.072l94.738,-86.079l0,53.841l-94.738,94.738l0,-62.5Z" style="fill:url(#_Linear15);fill-rule:nonzero;stroke:#000;stroke-width:4.17px;stroke-linejoin:bevel;"/><g id="Wire-Loop-Underside" serif:id="Wire Loop Underside"><path d="M1255.391,272.889c20.853,2.415 35.868,62.102 16.642,116.362c-2.06,5.814 -45.586,67.256 -49.465,73.874c-14.311,24.411 -33.47,59.295 -56.528,66.928" style="fill:none;fill-rule:nonzero;stroke:url(#_Linear16);stroke-width:21.88px;stroke-linecap:round;stroke-linejoin:miter;"/></g><g id="Wire-Loop-Underside1" serif:id="Wire Loop Underside"><path d="M1218.525,272.889c20.853,2.415 35.868,62.102 16.642,116.362c-2.06,5.814 -45.586,67.256 -49.465,73.874c-14.311,24.411 -33.47,59.295 -56.528,66.928" style="fill:none;fill-rule:nonzero;stroke:url(#_Linear17);stroke-width:21.88px;stroke-linecap:round;stroke-linejoin:miter;"/></g><g id="Wire-Loop-Underside2" serif:id="Wire Loop Underside"><path d="M1181.222,272.889c20.853,2.415 35.868,62.102 16.642,116.362c-2.06,5.814 -45.586,67.256 -49.465,73.874c-14.311,24.411 -33.47,59.295 -56.528,66.928" style="fill:none;fill-rule:nonzero;stroke:url(#_Linear18);stroke-width:21.88px;stroke-linecap:round;stroke-linejoin:miter;"/></g><g id="Wire-Loop-Underside3" serif:id="Wire Loop Underside"><path d="M1142.352,272.889c20.853,2.415 35.868,62.102 16.642,116.362c-2.06,5.814 -45.586,67.256 -49.465,73.874c-14.311,24.411 -33.47,59.295 -56.528,66.928" style="fill:none;fill-rule:nonzero;stroke:url(#_Linear19);stroke-width:21.88px;stroke-linecap:round;stroke-linejoin:miter;"/></g><g id="Wire-Loop-Underside4" serif:id="Wire Loop Underside"><path d="M1134.221,332.596c20.853,2.415 4.314,0.823 -14.912,55.084c-2.06,5.814 -45.586,67.256 -49.465,73.874c-14.311,24.411 -33.47,59.295 -56.528,66.928" style="fill:none;fill-rule:nonzero;stroke:url(#_Linear20);stroke-width:21.88px;stroke-linecap:round;stroke-linejoin:miter;"/></g><path id="Head-Top-Face" serif:id="Head Top Face" d="M838.516,365.322l500,0l81.314,-81.314l-500,0l-81.314,81.314Z" style="fill:url(#_Linear21);fill-rule:nonzero;stroke:#333;stroke-width:4.69px;"/><path id="Head-Front-Face" serif:id="Head Front Face" d="M838.516,365.322l500,0l0,531.25c0,93.75 -62.5,125 -187.5,125l-46.875,0l0,-62.5l78.125,-62.5l0,-375l-187.5,0l0,375l78.125,62.5l0,62.5l-46.875,0c-125,0 -187.5,-31.25 -187.5,-125l0,-531.25Z" style="fill:url(#_Linear22);fill-rule:nonzero;stroke:#333;stroke-width:4.69px;"/><g><clipPath id="_clip23"><path d="M2.344,1209.072l1843.75,0l375,-375l-1843.75,0l-375,375Z" clip-rule="nonzero"/></clipPath><g clip-path="url(#_clip23)"><g><g style="filter:url(#_Effect24);"><g><path id="Head-Front-Face-Reflection" serif:id="Head Front Face Reflection" d="M836.522,1468.212l500,0l1.994,-262.042c0,-93.75 -62.5,-125 -187.5,-125l-46.875,0l0,62.5l78.125,62.5l-1.994,105.792l-187.5,0l1.994,-105.792l78.125,-62.5l0,-62.5l-46.875,0c-125,0 -187.5,31.25 -187.5,125l-1.994,262.042Z" style="fill:url(#_Linear25);fill-rule:nonzero;"/></g></g></g></g></g><g id="Wire-Loop" serif:id="Wire Loop"><g><g style="filter:url(#_Effect26);"><path d="M1137.125,281.378c-6.492,5.518 -13.027,12.871 -17.339,16.926c-19.017,17.885 -20.107,22.256 -46.962,49.041c-4.367,4.356 -17.455,19.271 -19.443,26.68c-5.576,20.785 -7.425,42.399 -7.504,60.958c-0.116,27.249 0.456,52.456 6.652,83.438" style="fill:none;fill-rule:nonzero;stroke:#000;stroke-opacity:0.35;stroke-width:21.88px;stroke-linecap:round;stroke-linejoin:miter;"/></g><path d="M1142.784,272.889c-35.121,29.853 -49.191,44.541 -82.136,77.4c-4.367,4.356 -11.51,16.527 -13.498,23.936c-13.762,51.301 -5.781,103.745 4.636,155.829" style="fill:none;fill-rule:nonzero;stroke:url(#_Linear27);stroke-width:21.88px;stroke-linecap:round;stroke-linejoin:miter;"/></g><g style="filter:url(#_Effect28);"><g><path d="M1137.627,263.743c0,0 -75.869,74.542 -85.386,83.869c-4.855,4.758 -10.687,16.455 -12.42,23.235c-9.004,35.214 -9.255,58.119 -7.275,93.544c0.92,16.461 7.245,50.083 12.26,65.662" style="fill:none;fill-rule:nonzero;stroke:#fde68a;stroke-opacity:0.6;stroke-width:4.69px;stroke-linecap:round;stroke-linejoin:miter;"/></g></g><g><g style="filter:url(#_Effect29);"><path d="M1149.06,278.034c0,0 -66.723,61.395 -76.24,70.721c-4.855,4.758 -17.319,24.458 -19.053,31.238c-9.004,35.214 -7.195,42.114 -5.215,77.539c0.92,16.461 7.245,50.083 12.26,65.662" style="fill:none;fill-rule:nonzero;stroke:#6e2700;stroke-opacity:0.6;stroke-width:2.61px;stroke-linecap:round;stroke-linejoin:miter;"/></g></g></g><g id="Wire-Loop1" serif:id="Wire Loop"><g><g style="filter:url(#_Effect30);"><path d="M1174.002,281.378c-6.492,5.518 -13.027,12.871 -17.339,16.926c-19.017,17.885 -20.107,22.256 -46.962,49.041c-4.367,4.356 -17.455,19.271 -19.443,26.68c-5.576,20.785 -7.425,42.399 -7.504,60.958c-0.116,27.249 0.456,52.456 6.652,83.438" style="fill:none;fill-rule:nonzero;stroke:#000;stroke-opacity:0.35;stroke-width:21.88px;stroke-linecap:round;stroke-linejoin:miter;"/></g><path d="M1179.661,272.889c-35.121,29.853 -49.191,44.541 -82.136,77.4c-4.367,4.356 -11.51,16.527 -13.498,23.936c-13.762,51.301 -5.781,103.745 4.636,155.829" style="fill:none;fill-rule:nonzero;stroke:url(#_Linear31);stroke-width:21.88px;stroke-linecap:round;stroke-linejoin:miter;"/></g><g style="filter:url(#_Effect32);"><g><path d="M1174.504,263.743c0,0 -75.869,74.542 -85.386,83.869c-4.855,4.758 -10.687,16.455 -12.42,23.235c-9.004,35.214 -9.255,58.119 -7.275,93.544c0.92,16.461 7.245,50.083 12.26,65.662" style="fill:none;fill-rule:nonzero;stroke:#fde68a;stroke-opacity:0.6;stroke-width:4.69px;stroke-linecap:round;stroke-linejoin:miter;"/></g></g><g><g style="filter:url(#_Effect33);"><path d="M1185.937,278.034c0,0 -66.723,61.395 -76.24,70.721c-4.855,4.758 -17.319,24.458 -19.053,31.238c-9.004,35.214 -7.195,42.114 -5.215,77.539c0.92,16.461 7.245,50.083 12.26,65.662" style="fill:none;fill-rule:nonzero;stroke:#6e2700;stroke-opacity:0.6;stroke-width:2.61px;stroke-linecap:round;stroke-linejoin:miter;"/></g></g></g><g id="Wire-Loop2" serif:id="Wire Loop"><g><g style="filter:url(#_Effect34);"><path d="M1212.196,281.378c-6.492,5.518 -13.027,12.871 -17.339,16.926c-19.017,17.885 -20.107,22.256 -46.962,49.041c-4.367,4.356 -17.455,19.271 -19.443,26.68c-5.576,20.785 -7.425,42.399 -7.504,60.958c-0.116,27.249 0.456,52.456 6.652,83.438" style="fill:none;fill-rule:nonzero;stroke:#000;stroke-opacity:0.35;stroke-width:21.88px;stroke-linecap:round;stroke-linejoin:miter;"/></g><path d="M1217.855,272.889c-35.121,29.853 -49.191,44.541 -82.136,77.4c-4.367,4.356 -11.51,16.527 -13.498,23.936c-13.762,51.301 -5.781,103.745 4.636,155.829" style="fill:none;fill-rule:nonzero;stroke:url(#_Linear35);stroke-width:21.88px;stroke-linecap:round;stroke-linejoin:miter;"/></g><g style="filter:url(#_Effect36);"><g><path d="M1212.699,263.743c0,0 -75.869,74.542 -85.386,83.869c-4.855,4.758 -10.687,16.455 -12.42,23.235c-9.004,35.214 -9.255,58.119 -7.275,93.544c0.92,16.461 7.245,50.083 12.26,65.662" style="fill:none;fill-rule:nonzero;stroke:#fde68a;stroke-opacity:0.6;stroke-width:4.69px;stroke-linecap:round;stroke-linejoin:miter;"/></g></g><g><g style="filter:url(#_Effect37);"><path d="M1224.131,278.034c0,0 -66.723,61.395 -76.24,70.721c-4.855,4.758 -17.319,24.458 -19.053,31.238c-9.004,35.214 -7.195,42.114 -5.215,77.539c0.92,16.461 7.245,50.083 12.26,65.662" style="fill:none;fill-rule:nonzero;stroke:#6e2700;stroke-opacity:0.6;stroke-width:2.61px;stroke-linecap:round;stroke-linejoin:miter;"/></g></g></g><g id="Wire-Loop3" serif:id="Wire Loop"><g><g style="filter:url(#_Effect38);"><path d="M1249.732,281.378c-6.492,5.518 -13.027,12.871 -17.339,16.926c-19.017,17.885 -20.107,22.256 -46.962,49.041c-4.367,4.356 -17.455,19.271 -19.443,26.68c-5.576,20.785 -7.425,42.399 -7.504,60.958c-0.116,27.249 0.456,52.456 6.652,83.438" style="fill:none;fill-rule:nonzero;stroke:#000;stroke-opacity:0.35;stroke-width:21.88px;stroke-linecap:round;stroke-linejoin:miter;"/></g><path d="M1255.391,272.889c-35.121,29.853 -49.191,44.541 -82.136,77.4c-4.367,4.356 -11.51,16.527 -13.498,23.936c-13.762,51.301 -5.781,103.745 4.636,155.829" style="fill:none;fill-rule:nonzero;stroke:url(#_Linear39);stroke-width:21.88px;stroke-linecap:round;stroke-linejoin:miter;"/></g><g style="filter:url(#_Effect40);"><g><path d="M1250.234,263.743c0,0 -75.869,74.542 -85.386,83.869c-4.855,4.758 -10.687,16.455 -12.42,23.235c-9.004,35.214 -9.255,58.119 -7.275,93.544c0.92,16.461 7.245,50.083 12.26,65.662" style="fill:none;fill-rule:nonzero;stroke:#fde68a;stroke-opacity:0.6;stroke-width:4.69px;stroke-linecap:round;stroke-linejoin:miter;"/></g></g><g><g style="filter:url(#_Effect41);"><path d="M1261.667,278.034c0,0 -66.723,61.395 -76.24,70.721c-4.855,4.758 -17.319,24.458 -19.053,31.238c-9.004,35.214 -7.195,42.114 -5.215,77.539c0.92,16.461 7.245,50.083 12.26,65.662" style="fill:none;fill-rule:nonzero;stroke:#6e2700;stroke-opacity:0.6;stroke-width:2.61px;stroke-linecap:round;stroke-linejoin:miter;"/></g></g></g><g id="Front-straight-wire" serif:id="Front straight wire"><g style="filter:url(#_Effect42);"><path d="M1018.158,519.298l-0.915,-147.72" style="fill:none;fill-rule:nonzero;stroke:#000;stroke-opacity:0.35;stroke-width:20.66px;stroke-linecap:round;stroke-linejoin:miter;"/></g><path d="M1011.35,530.054l0,-375" style="fill:none;fill-rule:nonzero;stroke:url(#_Linear43);stroke-width:20.66px;stroke-linecap:round;stroke-linejoin:miter;"/><g style="filter:url(#_Effect44);"><g><path d="M1004.462,162.429c0,0 0.944,347.445 0.94,367.624" style="fill:none;fill-rule:nonzero;stroke:#fde68a;stroke-opacity:0.6;stroke-width:4.69px;stroke-linecap:round;stroke-linejoin:miter;"/></g></g></g><circle cx="1010.362" cy="148.367" r="14.062" style="fill:#fff;stroke:#111;stroke-width:4.69px;stroke-linejoin:miter;"/><defs><linearGradient id="_Linear1" x1="0" y1="0" x2="1" y2="0" gradientUnits="userSpaceOnUse" gradientTransform="matrix(117.689904,180.989305,-180.989305,117.689904,1920.233947,1153.160438)"><stop offset="0" style="stop-color:#a1a1aa;stop-opacity:1"/><stop offset="1" style="stop-color:#71717a;stop-opacity:1"/></linearGradient><linearGradient id="_Linear2" x1="0" y1="0" x2="1" y2="0" gradientUnits="userSpaceOnUse" gradientTransform="matrix(0,281.25,-281.25,0,2.34375,1240.322026)"><stop offset="0" style="stop-color:#d4d4d8;stop-opacity:1"/><stop offset="1" style="stop-color:#a1a1aa;stop-opacity:1"/></linearGradient><linearGradient id="_Linear3" x1="0" y1="0" x2="1" y2="0" gradientUnits="userSpaceOnUse" gradientTransform="matrix(1.445632,375,-375,1.445632,653.802511,834.072026)"><stop offset="0" style="stop-color:#3a3a3a;stop-opacity:1"/><stop offset="1" style="stop-color:#2f2f2f;stop-opacity:1"/></linearGradient><linearGradient id="_Linear4" x1="0" y1="0" x2="1" y2="0" gradientUnits="userSpaceOnUse" gradientTransform="matrix(90.546264,88.190112,-88.190112,90.546264,1406.344052,959.826667)"><stop offset="0" style="stop-color:#f30000;stop-opacity:1"/><stop offset="1" style="stop-color:#050092;stop-opacity:1"/></linearGradient><linearGradient id="_Linear5" x1="0" y1="0" x2="1" y2="0" gradientUnits="userSpaceOnUse" gradientTransform="matrix(90.546264,88.190112,-88.190112,90.546264,1793.909469,959.826667)"><stop offset="0" style="stop-color:#f30000;stop-opacity:1"/><stop offset="1" style="stop-color:#050092;stop-opacity:1"/></linearGradient><linearGradient id="_Linear6" x1="0" y1="0" x2="1" y2="0" gradientUnits="userSpaceOnUse" gradientTransform="matrix(90.546264,88.190112,-88.190112,90.546264,1599.783797,959.826667)"><stop offset="0" style="stop-color:#050092;stop-opacity:1"/><stop offset="1" style="stop-color:#f30000;stop-opacity:1"/></linearGradient><linearGradient id="_Linear7" x1="0" y1="0" x2="1" y2="0" gradientUnits="userSpaceOnUse" gradientTransform="matrix(90.546264,88.190112,-88.190112,90.546264,1212.523162,958.486908)"><stop offset="0" style="stop-color:#050092;stop-opacity:1"/><stop offset="1" style="stop-color:#f30000;stop-opacity:1"/></linearGradient><linearGradient id="_Linear8" x1="0" y1="0" x2="1" y2="0" gradientUnits="userSpaceOnUse" gradientTransform="matrix(-0,233.487929,-233.487929,-0,654.505715,894.186051)"><stop offset="0" style="stop-color:#fff;stop-opacity:1"/><stop offset="1" style="stop-color:#d8d8d8;stop-opacity:1"/></linearGradient><filter id="_Effect9" filterUnits="userSpaceOnUse" x="670.177" y="757.492" width="987.5" height="487.5"><feGaussianBlur in="SourceGraphic" stdDeviation="25"/></filter><linearGradient id="_Linear10" x1="0" y1="0" x2="1" y2="0" gradientUnits="userSpaceOnUse" gradientTransform="matrix(0,375,-375,0,1286.946205,42.593577)"><stop offset="0" style="stop-color:#e38904;stop-opacity:1"/><stop offset="0.69" style="stop-color:#d2840c;stop-opacity:1"/><stop offset="1" style="stop-color:#c24918;stop-opacity:1"/></linearGradient><linearGradient id="_Linear11" x1="0" y1="0" x2="1" y2="0" gradientUnits="userSpaceOnUse" gradientTransform="matrix(0,594.018481,-594.018481,0,1368.298758,337.521581)"><stop offset="0" style="stop-color:#8a95a5;stop-opacity:1"/><stop offset="0.81" style="stop-color:#65707f;stop-opacity:1"/><stop offset="1" style="stop-color:#3f4650;stop-opacity:1"/></linearGradient><filter id="_Effect12" filterUnits="userSpaceOnUse" x="1274.213" y="41.378" width="12.967" height="382.699"><feGaussianBlur in="SourceGraphic" stdDeviation="0.733"/></filter><linearGradient id="_Linear13" x1="0" y1="0" x2="1" y2="0" gradientUnits="userSpaceOnUse" gradientTransform="matrix(-162.263275,123.258046,-123.258046,-162.263275,1186.119048,808.628242)"><stop offset="0" style="stop-color:#485b72;stop-opacity:1"/><stop offset="1" style="stop-color:#8094ae;stop-opacity:1"/></linearGradient><linearGradient id="_Linear14" x1="0" y1="0" x2="1" y2="0" gradientUnits="userSpaceOnUse" gradientTransform="matrix(244.188818,-163.564092,163.564092,244.188818,991.551071,816.386118)"><stop offset="0" style="stop-color:#4a5563;stop-opacity:1"/><stop offset="1" style="stop-color:#2d3748;stop-opacity:1"/></linearGradient><linearGradient id="_Linear15" x1="0" y1="0" x2="1" y2="0" gradientUnits="userSpaceOnUse" gradientTransform="matrix(-169.530897,130.760709,-130.760709,-169.530897,1237.950098,862.099217)"><stop offset="0" style="stop-color:#343e4e;stop-opacity:1"/><stop offset="1" style="stop-color:#4a5563;stop-opacity:1"/></linearGradient><linearGradient id="_Linear16" x1="0" y1="0" x2="1" y2="0" gradientUnits="userSpaceOnUse" gradientTransform="matrix(7.8125,156.25,-156.25,7.8125,1160.175724,367.187831)"><stop offset="0" style="stop-color:#e38904;stop-opacity:1"/><stop offset="0.3" style="stop-color:#d97706;stop-opacity:1"/><stop offset="0.7" style="stop-color:#b45309;stop-opacity:1"/><stop offset="1" style="stop-color:#c24918;stop-opacity:1"/></linearGradient><linearGradient id="_Linear17" x1="0" y1="0" x2="1" y2="0" gradientUnits="userSpaceOnUse" gradientTransform="matrix(7.8125,156.25,-156.25,7.8125,1123.310006,367.187831)"><stop offset="0" style="stop-color:#e38904;stop-opacity:1"/><stop offset="0.3" style="stop-color:#d97706;stop-opacity:1"/><stop offset="0.7" style="stop-color:#b45309;stop-opacity:1"/><stop offset="1" style="stop-color:#c24918;stop-opacity:1"/></linearGradient><linearGradient id="_Linear18" x1="0" y1="0" x2="1" y2="0" gradientUnits="userSpaceOnUse" gradientTransform="matrix(7.8125,156.25,-156.25,7.8125,1086.007526,367.187831)"><stop offset="0" style="stop-color:#e38904;stop-opacity:1"/><stop offset="0.3" style="stop-color:#d97706;stop-opacity:1"/><stop offset="0.7" style="stop-color:#b45309;stop-opacity:1"/><stop offset="1" style="stop-color:#c24918;stop-opacity:1"/></linearGradient><linearGradient id="_Linear19" x1="0" y1="0" x2="1" y2="0" gradientUnits="userSpaceOnUse" gradientTransform="matrix(7.8125,156.25,-156.25,7.8125,1047.136732,367.187831)"><stop offset="0" style="stop-color:#e38904;stop-opacity:1"/><stop offset="0.3" style="stop-color:#d97706;stop-opacity:1"/><stop offset="0.7" style="stop-color:#b45309;stop-opacity:1"/><stop offset="1" style="stop-color:#c24918;stop-opacity:1"/></linearGradient><linearGradient id="_Linear20" x1="0" y1="0" x2="1" y2="0" gradientUnits="userSpaceOnUse" gradientTransform="matrix(7.8125,156.25,-156.25,7.8125,1007.452182,365.61585)"><stop offset="0" style="stop-color:#e38904;stop-opacity:1"/><stop offset="0.3" style="stop-color:#d97706;stop-opacity:1"/><stop offset="0.7" style="stop-color:#b45309;stop-opacity:1"/><stop offset="1" style="stop-color:#c24918;stop-opacity:1"/></linearGradient><linearGradient id="_Linear21" x1="0" y1="0" x2="1" y2="0" gradientUnits="userSpaceOnUse" gradientTransform="matrix(0,187.5,-187.5,0,838.516498,177.822026)"><stop offset="0" style="stop-color:#fff;stop-opacity:1"/><stop offset="1" style="stop-color:#dce3ec;stop-opacity:1"/></linearGradient><linearGradient id="_Linear22" x1="0" y1="0" x2="1" y2="0" gradientUnits="userSpaceOnUse" gradientTransform="matrix(424.973363,638.949637,-638.949637,424.973363,838.516498,365.322026)"><stop offset="0" style="stop-color:#eef2f6;stop-opacity:1"/><stop offset="0.4" style="stop-color:#d1d9e2;stop-opacity:1"/><stop offset="1" style="stop-color:#9ba6b5;stop-opacity:1"/></linearGradient><filter id="_Effect24" filterUnits="userSpaceOnUse" x="695.897" y="940.545" width="783.244" height="668.292"><feGaussianBlur in="SourceGraphic" stdDeviation="23.438"/></filter><linearGradient id="_Linear25" x1="0" y1="0" x2="1" y2="0" gradientUnits="userSpaceOnUse" gradientTransform="matrix(424.973363,-638.949637,-638.949637,-424.973363,838.516498,1737.41975)"><stop offset="0" style="stop-color:#eef2f6;stop-opacity:0.54"/><stop offset="0.4" style="stop-color:#d1d9e2;stop-opacity:0.54"/><stop offset="1" style="stop-color:#9ba6b5;stop-opacity:0.54"/></linearGradient><filter id="_Effect26" filterUnits="userSpaceOnUse" x="985.734" y="221.248" width="211.52" height="357.303"><feGaussianBlur in="SourceGraphic" stdDeviation="2.506"/></filter><linearGradient id="_Linear27" x1="0" y1="0" x2="1" y2="0" gradientUnits="userSpaceOnUse" gradientTransform="matrix(7.8125,156.25,-156.25,7.8125,1039.337339,366.639065)"><stop offset="0" style="stop-color:#e38904;stop-opacity:1"/><stop offset="0.71" style="stop-color:#d96806;stop-opacity:1"/><stop offset="1" style="stop-color:#c24918;stop-opacity:1"/></linearGradient><filter id="_Effect28" filterUnits="userSpaceOnUse" x="1014.179" y="246.379" width="140.812" height="301.038"><feGaussianBlur in="SourceGraphic" stdDeviation="1.283"/></filter><filter id="_Effect29" filterUnits="userSpaceOnUse" x="1031.039" y="262.137" width="133.918" height="276.954"><feGaussianBlur in="SourceGraphic" stdDeviation="1.039"/></filter><filter id="_Effect30" filterUnits="userSpaceOnUse" x="1022.611" y="221.248" width="211.52" height="357.303"><feGaussianBlur in="SourceGraphic" stdDeviation="2.506"/></filter><linearGradient id="_Linear31" x1="0" y1="0" x2="1" y2="0" gradientUnits="userSpaceOnUse" gradientTransform="matrix(7.8125,156.25,-156.25,7.8125,1076.21445,366.639065)"><stop offset="0" style="stop-color:#e38904;stop-opacity:1"/><stop offset="0.71" style="stop-color:#d96806;stop-opacity:1"/><stop offset="1" style="stop-color:#c24918;stop-opacity:1"/></linearGradient><filter id="_Effect32" filterUnits="userSpaceOnUse" x="1051.056" y="246.379" width="140.812" height="301.038"><feGaussianBlur in="SourceGraphic" stdDeviation="1.283"/></filter><filter id="_Effect33" filterUnits="userSpaceOnUse" x="1067.916" y="262.137" width="133.918" height="276.954"><feGaussianBlur in="SourceGraphic" stdDeviation="1.039"/></filter><filter id="_Effect34" filterUnits="userSpaceOnUse" x="1060.806" y="221.248" width="211.52" height="357.303"><feGaussianBlur in="SourceGraphic" stdDeviation="2.506"/></filter><linearGradient id="_Linear35" x1="0" y1="0" x2="1" y2="0" gradientUnits="userSpaceOnUse" gradientTransform="matrix(7.8125,156.25,-156.25,7.8125,1114.408601,366.639065)"><stop offset="0" style="stop-color:#e38904;stop-opacity:1"/><stop offset="0.71" style="stop-color:#d96806;stop-opacity:1"/><stop offset="1" style="stop-color:#c24918;stop-opacity:1"/></linearGradient><filter id="_Effect36" filterUnits="userSpaceOnUse" x="1089.25" y="246.379" width="140.812" height="301.038"><feGaussianBlur in="SourceGraphic" stdDeviation="1.283"/></filter><filter id="_Effect37" filterUnits="userSpaceOnUse" x="1106.11" y="262.137" width="133.918" height="276.954"><feGaussianBlur in="SourceGraphic" stdDeviation="1.039"/></filter><filter id="_Effect38" filterUnits="userSpaceOnUse" x="1098.341" y="221.248" width="211.52" height="357.303"><feGaussianBlur in="SourceGraphic" stdDeviation="2.506"/></filter><linearGradient id="_Linear39" x1="0" y1="0" x2="1" y2="0" gradientUnits="userSpaceOnUse" gradientTransform="matrix(7.8125,156.25,-156.25,7.8125,1151.944232,366.639065)"><stop offset="0" style="stop-color:#e38904;stop-opacity:1"/><stop offset="0.71" style="stop-color:#d96806;stop-opacity:1"/><stop offset="1" style="stop-color:#c24918;stop-opacity:1"/></linearGradient><filter id="_Effect40" filterUnits="userSpaceOnUse" x="1126.785" y="246.379" width="140.812" height="301.038"><feGaussianBlur in="SourceGraphic" stdDeviation="1.283"/></filter><filter id="_Effect41" filterUnits="userSpaceOnUse" x="1147.922" y="266.414" width="125.365" height="268.401"><feGaussianBlur in="SourceGraphic" stdDeviation="1.039"/></filter><filter id="_Effect42" filterUnits="userSpaceOnUse" x="959.25" y="313.584" width="116.902" height="263.707"><feGaussianBlur in="SourceGraphic" stdDeviation="2.567"/></filter><linearGradient id="_Linear43" x1="0" y1="0" x2="1" y2="0" gradientUnits="userSpaceOnUse" gradientTransform="matrix(0,375,-375,0,1011.349585,155.053769)"><stop offset="0" style="stop-color:#e38904;stop-opacity:1"/><stop offset="0.69" style="stop-color:#d2840c;stop-opacity:1"/><stop offset="1" style="stop-color:#c24918;stop-opacity:1"/></linearGradient><filter id="_Effect44" filterUnits="userSpaceOnUse" x="987.098" y="145.066" width="35.667" height="402.352"><feGaussianBlur in="SourceGraphic" stdDeviation="1.283"/></filter></defs></svg>